<svg width="302" height="192" viewBox="0 0 302 192" fill="none" xmlns="http://www.w3.org/2000/svg">
<path d="M108.339 91.5606C116.002 91.5606 122.215 89.2638 122.215 86.4305C122.215 83.5971 116.002 81.3003 108.339 81.3003C100.676 81.3003 94.4639 83.5971 94.4639 86.4305C94.4639 89.2638 100.676 91.5606 108.339 91.5606Z" fill="#1C2243"/>
<path d="M99.0357 66.9357C97.3013 72.0658 91.9403 75.6175 86.7371 78.6167C81.5338 81.6158 75.8576 84.6939 73.1771 89.5084C71.8369 91.9551 71.285 94.6386 70.7332 97.322C68.2104 110.108 65.2934 122.894 62.2188 135.601C65.2934 137.101 68.6834 138.048 72.1522 138.442C73.4925 127.393 77.7497 116.817 82.8741 106.714C84.5296 103.399 86.3429 100.084 88.708 97.0853C92.8864 91.7183 98.7203 87.2985 102.978 81.9316C106.289 77.6696 108.654 72.8551 109.679 67.8039C106.21 66.7778 102.505 66.4621 98.9568 66.7778" fill="#126D97"/>
<path d="M229.433 7.26773C229.039 5.29459 229.827 3.24253 231.325 1.90079C232.823 0.559057 234.873 -0.0723485 236.844 0.00657713C238.578 0.0855027 240.391 0.795833 241.337 2.21649C242.204 3.40038 242.362 4.97889 243.308 6.00492C244.175 6.95203 245.594 7.42558 246.856 7.10988C248.275 6.71525 249.457 5.53137 250.955 5.37352C252.611 5.21567 254.03 6.47848 255.134 7.74129C256.237 9.0041 257.341 10.4248 258.997 10.7405C260.574 11.0562 262.071 10.3458 263.569 9.79335C265.067 9.24087 266.88 8.84625 268.142 9.87228C269.246 10.7405 269.482 12.24 270.349 13.345C271.217 14.45 272.636 15.0024 274.055 14.7657C276.341 14.371 277.997 12.0033 280.283 12.0033C282.017 12.0033 283.436 13.4239 284.225 15.0024C285.644 17.8438 285.565 21.4743 283.673 24C281.781 26.5256 278.233 27.8673 275.316 26.7624C273.503 26.131 271.926 24.7103 270.113 24.1578C267.827 23.5264 265.304 24.3157 263.017 24.8681C260.652 25.4206 257.972 25.7363 256.001 24.3946C255.134 23.7632 254.503 22.8161 253.715 22.1057C252.138 20.5272 249.852 19.5801 247.565 19.6591C245.831 19.738 243.387 19.738 241.416 18.2384C238.893 16.2653 232.665 13.8975 231.325 12.6347C230.064 11.214 229.354 9.0041 229.433 7.26773Z" fill="black"/>
<path d="M238.341 33.2347C236.764 43.8108 227.461 51.7033 218.395 57.386C209.802 62.8318 197.424 66.3835 187.018 68.7513C185.599 65.1996 185.205 66.3046 183.312 63.0686C203.416 53.5186 220.76 39.0752 234.793 21.7905C234.714 21.7905 239.445 26.2104 238.341 33.2347Z" fill="#9BC9F3"/>
<path d="M183.234 63.0684C181.184 62.6738 178.898 63.4631 177.558 65.1205C176.217 66.7779 175.902 69.2246 176.848 71.1188C177.479 72.3816 179.292 73.4077 180.317 72.3816C180.948 71.7502 180.869 70.7242 181.421 70.0139C182.603 68.4354 185.205 69.6982 187.018 68.83C186.072 66.9358 185.126 65.0416 184.18 63.1474" fill="#9BC9F3"/>
<path d="M198.765 90.4555C195.927 90.1398 192.458 94.165 190.487 96.2171C188.438 98.2692 186.388 103.005 186.703 105.846C186.861 107.74 188.359 112.16 189.068 113.896C193.404 124.709 199.475 132.839 204.047 143.572C203.259 144.204 200.973 146.414 200.578 147.361C203.811 146.493 208.778 147.913 211.852 146.651C209.487 138.363 206.412 129.839 204.836 123.052C203.811 118.79 202.865 114.528 201.84 110.187C201.603 109.319 201.446 108.293 201.84 107.503C202.155 106.872 202.865 106.398 203.495 106.083C206.097 104.583 208.935 103.478 211.852 102.61C210.433 99.8477 208.935 97.1642 207.358 94.5597C206.885 93.8493 206.412 93.0601 205.545 92.7444C204.836 92.5076 204.047 92.5865 203.338 92.7444C201.209 93.2968 199.159 94.3229 197.425 95.7435" fill="#ADD7FF"/>
<path d="M166.993 118.869C171.329 119.106 175.665 119.106 180.002 119.184C186.782 119.263 193.562 119.263 200.341 119.263C214.769 119.263 229.117 119.184 243.544 119.5C248.274 119.579 253.162 119.579 257.893 120.289C258.366 120.368 258.602 119.658 258.129 119.579C254.108 118.948 249.93 118.948 245.909 118.79C239.287 118.632 232.665 118.553 225.964 118.553C211.379 118.474 196.794 118.553 182.209 118.474C177.163 118.474 172.118 118.474 167.072 118.158C166.442 118.08 166.442 118.79 166.993 118.869Z" fill="#1C2243"/>
<path d="M211.3 147.834C212.403 149.965 213.507 152.096 214.532 154.149C214.768 154.622 215.399 154.227 215.163 153.754C214.059 151.623 212.955 149.492 211.93 147.44C211.773 147.045 211.142 147.44 211.3 147.834Z" fill="#1C2243"/>
<path d="M224.466 119.579C220.997 134.891 215.952 149.887 209.408 164.172C211.458 164.646 213.587 165.119 215.636 165.593C216.109 165.672 216.582 165.83 217.055 165.672C217.607 165.514 218.08 165.041 218.396 164.567C228.881 151.071 236.922 135.601 242.047 119.264C236.134 119.264 230.142 119.264 224.23 119.264" fill="#ADD7FF"/>
<path d="M239.602 5.92651C239.918 3.95337 237.553 3.00626 235.503 2.84841C233.532 2.69056 232.271 3.00626 231.246 4.74262C230.221 6.47899 229.984 8.53105 229.984 10.5042C230.063 13.0298 230.694 15.7922 232.901 17.055C235.503 18.5546 239.129 16.8972 240.391 14.1348C241.731 11.3724 240.864 8.60998 239.602 5.92651Z" fill="#B5D5F3"/>
<path d="M234.005 16.5024C233.848 17.7653 233.848 20.3698 233.69 21.6326C233.611 22.0272 233.611 22.5008 233.375 22.8165C233.217 23.1322 232.902 23.369 232.586 23.6847C230.063 25.8946 228.96 27.0785 228.014 30.4723C233.296 30.7091 234.478 30.5512 239.76 30.1566C239.051 27.4731 238.026 24.395 237.001 21.8694C236.292 20.0541 235.819 16.8971 235.819 16.8971C235.74 16.7392 235.582 16.5024 235.346 16.5024C235.109 16.5814 235.346 16.976 235.424 16.8181" fill="#B5D5F3"/>
<path d="M229.985 26.2892C229.591 26.9995 229.275 28.7359 230.773 28.7359C234.005 28.7359 236.528 26.9995 238.026 24.1582C241.101 31.2615 242.126 39.233 240.943 46.8888C236.213 47.5991 231.404 47.4413 226.752 46.5731C226.201 39.7066 225.964 31.9718 229.985 26.2892Z" fill="#5F338C"/>
<path d="M240.864 43.7318C241.337 46.0207 242.283 51.5454 247.565 56.5178C260.494 68.5145 260.336 84.4574 263.175 92.8235C265.855 100.795 272.083 106.951 278.469 112.397C275.631 117.922 268.93 119.895 262.859 121.316C255.922 122.894 248.826 124.394 241.652 124.236C234.478 124.078 227.225 122.263 221.627 117.764C218.474 115.238 215.951 112.002 213.271 108.924C210.354 105.609 207.279 102.531 203.968 99.6901C201.524 97.638 198.844 95.5859 195.69 95.1124C192.537 94.6388 188.831 96.2173 188.043 99.2954C187.018 96.3752 187.885 92.9814 189.62 90.3768C191.354 87.7723 193.798 85.7202 196.084 83.6682C207.2 73.8814 216.818 63.7 224.387 50.993C225.017 49.888 226.358 47.3624 226.673 45.7839C226.988 44.4421 228.88 45.2314 230.221 44.8368C233.69 43.9686 237.316 43.574 240.864 43.7318Z" fill="#5F338C"/>
<path d="M144.525 128.971C132.621 135.522 125.604 149.571 128.285 162.988C129.625 169.618 133.015 175.932 138.061 180.51C143.185 185.245 149.965 188.007 156.903 188.481C160.45 188.718 164.077 188.323 167.467 187.376C170.936 186.429 174.247 184.693 177.322 182.798C182.446 179.562 186.073 174.432 188.438 168.907C191.276 162.357 191.433 154.227 189.463 147.44C188.595 144.44 187.255 141.52 185.284 139.074C182.998 136.232 180.081 133.707 177.006 131.655C168.177 125.656 156.666 123.92 146.733 128.024C146.023 128.261 145.314 128.576 144.525 128.971C144.052 129.208 144.447 129.839 144.92 129.602C153.197 125.262 163.762 125.577 172.118 129.602C175.114 131.023 177.873 132.917 180.396 135.127C182.998 137.337 185.363 139.863 186.94 142.862C190.251 149.176 190.566 156.832 189.305 163.777C188.674 167.092 187.176 170.17 185.442 173.091C184.18 175.221 182.683 177.352 180.948 179.089C178.583 181.457 175.43 183.272 172.434 184.693C169.28 186.271 165.733 187.218 162.264 187.613C155.405 188.323 148.31 186.745 142.554 183.035C136.957 179.405 132.7 173.88 130.414 167.645C128.127 161.41 127.891 154.622 129.862 148.229C131.833 141.915 135.774 136.153 141.057 132.207C142.318 131.26 143.658 130.392 144.998 129.681C145.393 129.366 144.998 128.734 144.525 128.971Z" fill="#1C2243"/>
<path d="M162.579 157.148C162.579 159.042 161.081 160.542 159.189 160.542C157.297 160.542 155.799 159.042 155.799 157.148C155.799 155.253 157.297 153.754 159.189 153.754C161.002 153.754 162.579 155.253 162.579 157.148Z" fill="#1C4E60"/>
<path d="M254.818 128.419C242.914 134.97 235.897 149.018 238.578 162.436C239.918 169.066 243.308 175.38 248.354 179.957C253.478 184.693 260.258 187.455 267.196 187.929C270.743 188.166 274.37 187.771 277.76 186.824C281.229 185.877 284.54 184.14 287.615 182.246C292.739 179.01 296.365 173.88 298.731 168.355C301.569 161.804 301.726 153.675 299.755 146.887C298.888 143.888 297.548 140.968 295.577 138.521C293.291 135.68 290.374 133.154 287.299 131.102C278.469 125.104 266.959 123.368 257.026 127.472C256.237 127.708 255.528 128.024 254.818 128.419C254.345 128.656 254.739 129.287 255.213 129.05C263.49 124.709 274.055 125.025 282.411 129.05C285.407 130.471 288.166 132.365 290.689 134.575C293.291 136.785 295.656 139.311 297.233 142.31C300.544 148.624 300.859 156.28 299.598 163.225C298.967 166.54 297.469 169.618 295.735 172.538C294.473 174.669 292.975 176.8 291.241 178.537C288.876 180.904 285.722 182.641 282.727 184.14C279.573 185.719 276.026 186.666 272.557 187.061C265.698 187.771 258.603 186.192 252.847 182.483C247.25 178.852 242.993 173.328 240.706 167.092C238.42 160.857 238.184 154.07 240.155 147.677C242.126 141.363 246.067 135.601 251.349 131.655C252.611 130.708 253.951 129.839 255.291 129.129C255.607 128.813 255.213 128.182 254.818 128.419Z" fill="#1C2243"/>
<path d="M272.793 156.595C272.793 158.49 271.295 159.989 269.403 159.989C267.511 159.989 266.013 158.49 266.013 156.595C266.013 154.701 267.511 153.202 269.403 153.202C271.295 153.202 272.793 154.701 272.793 156.595Z" fill="#1C4E60"/>
<path d="M159.662 157.384C163.21 135.996 167.388 114.686 172.355 93.5336C173.774 87.6142 175.193 81.6948 176.691 75.8543C176.848 75.3807 176.06 75.1439 175.981 75.6175C170.62 96.6906 165.969 117.922 162.106 139.232C161.002 145.23 159.977 151.228 158.952 157.148C158.795 157.621 159.583 157.858 159.662 157.384Z" fill="#1C2243"/>
<path d="M192.064 67.488C188.91 67.9616 185.835 68.5141 182.682 69.1455C181.105 69.4612 179.607 69.7769 178.031 70.1715C176.848 70.4872 175.508 70.724 174.404 71.4343C172.985 72.3814 172.275 74.7492 174.01 75.7752C174.956 76.3277 176.138 76.2488 177.163 76.1699C178.74 76.0909 180.317 75.9331 181.972 75.7752C185.52 75.4595 188.989 74.986 192.537 74.4335C193.01 74.3546 192.773 73.6442 192.3 73.7232C192.142 73.7232 191.985 73.7232 191.906 73.8021C191.433 73.881 191.591 74.5914 192.142 74.5124C192.3 74.5124 192.458 74.5124 192.537 74.4335C192.458 74.1967 192.379 73.9599 192.3 73.7232C188.91 74.2756 185.52 74.6703 182.13 74.986C180.396 75.1438 178.661 75.3017 177.006 75.3806C175.665 75.4595 173.3 75.4595 173.852 73.4075C174.246 71.829 176.138 71.4343 177.479 71.0397C179.055 70.6451 180.632 70.2504 182.288 69.9347C185.599 69.2244 188.831 68.7509 192.142 68.1984C192.773 68.1194 192.537 67.4091 192.064 67.488Z" fill="#1C2243"/>
<path d="M170.62 95.9804C163.446 96.0593 156.272 95.9014 149.097 95.27C148.861 95.27 148.703 95.4279 148.703 95.6646C148.624 100.637 148.546 105.53 149.255 110.424C149.886 114.844 150.989 120.684 155.168 123.21C156.35 123.92 157.691 124.078 159.031 124.236C161.159 124.473 163.209 124.394 165.338 124.078C165.495 124.078 165.574 123.92 165.574 123.841C166.678 118.948 167.861 113.975 168.964 109.082C169.516 106.714 170.068 104.346 170.541 101.979C170.778 100.874 170.935 99.7688 171.093 98.6638C171.172 97.8746 171.566 96.7696 171.014 96.1382C170.856 96.0593 170.699 95.9804 170.62 95.9804C170.541 96.0593 170.541 96.0593 170.462 96.0593C169.989 96.2171 170.226 96.9275 170.699 96.7696C170.305 96.9275 170.226 98.9006 170.226 99.2952C170.068 100.084 169.989 100.953 169.831 101.742C169.516 103.32 169.201 104.82 168.807 106.399C168.097 109.634 167.309 112.87 166.599 116.106C166.205 117.685 165.89 119.263 165.495 120.921C165.417 121.315 165.338 121.71 165.259 122.105C165.18 122.342 165.18 123.052 165.022 123.289C164.628 123.683 163.367 123.604 162.894 123.683C160.923 123.841 158.637 123.762 156.745 123.052C153.828 122.026 152.33 118.948 151.384 116.185C150.28 112.792 149.886 109.082 149.649 105.53C149.492 102.215 149.492 98.9795 149.57 95.6646C149.413 95.8225 149.334 95.9014 149.176 96.0593C156.35 96.6907 163.525 96.8485 170.699 96.7696C171.093 96.7696 171.093 95.9804 170.62 95.9804Z" fill="#1C2243"/>
<path d="M149.098 104.11C155.799 104.899 162.421 105.294 169.201 105.451C169.674 105.451 169.674 104.662 169.201 104.662C162.5 104.504 155.799 104.031 149.098 103.32C148.625 103.242 148.625 104.031 149.098 104.11Z" fill="#1C2243"/>
<path d="M167.072 113.265C165.653 113.66 164.076 113.581 162.578 113.66C161.396 113.738 160.292 113.738 159.109 113.738C156.271 113.738 153.433 113.581 150.595 113.344C150.122 113.265 150.122 114.054 150.595 114.133C153.512 114.37 156.429 114.528 159.346 114.528C160.528 114.528 161.632 114.449 162.815 114.449C164.313 114.37 165.811 114.37 167.308 113.975C167.703 113.896 167.545 113.186 167.072 113.265Z" fill="#1C2243"/>
<path d="M154.222 96.4541C153.434 105.452 154.616 114.686 157.06 123.368C157.218 123.841 157.927 123.605 157.77 123.131C155.326 114.528 154.143 105.373 154.932 96.3752C155.01 95.9805 154.222 95.9805 154.222 96.4541Z" fill="#1C2243"/>
<path d="M163.446 123.999C163.446 119.974 162.579 115.949 162.421 111.923C162.185 106.793 161.948 101.663 162.263 96.5329C162.263 96.0593 161.554 96.0593 161.475 96.5329C161.081 101.663 161.396 106.793 161.633 111.923C161.79 115.949 162.658 119.974 162.658 123.999C162.658 124.473 163.446 124.473 163.446 123.999Z" fill="#1C2243"/>
<path d="M270.033 156.832C266.249 145.23 262.544 133.628 258.76 122.026C258.602 121.552 257.892 121.789 258.05 122.262C261.834 133.865 265.54 145.467 269.324 157.069C269.481 157.542 270.191 157.305 270.033 156.832Z" fill="#1C2243"/>
<path d="M209.96 163.62C209.014 164.409 208.856 165.83 207.989 166.698C207.043 167.645 205.387 167.724 204.363 168.592C204.284 168.671 204.126 168.75 204.126 168.908C204.126 169.144 204.362 169.302 204.599 169.381C207.752 170.328 211.064 170.723 214.296 170.486C214.848 170.486 215.479 170.407 215.794 169.934C215.952 169.697 215.794 169.223 215.873 168.987C216.425 167.487 217.371 165.83 218.317 164.646C215.715 164.804 212.719 165.04 210.196 164.33C209.96 164.251 209.566 164.014 209.645 163.777" fill="#ADD7FF"/>
<path d="M198.687 148.545C203.023 148.308 207.359 147.993 211.695 147.756C211.537 147.677 211.458 147.598 211.301 147.44C211.301 147.361 211.301 147.361 211.301 147.282C210.827 147.519 211.222 148.15 211.695 147.914C212.01 147.756 212.089 147.519 212.01 147.203C212.01 147.046 211.774 146.888 211.616 146.888C207.28 147.124 202.944 147.44 198.608 147.677C198.214 147.756 198.214 148.545 198.687 148.545Z" fill="#1C2243"/>
<path d="M202.549 171.276C205.545 171.433 208.541 171.512 211.537 171.512C212.798 171.512 214.059 171.512 215.4 171.512C215.873 171.512 216.74 171.67 217.134 171.433C217.528 171.197 217.134 170.486 216.74 170.802C216.897 170.723 216.897 170.802 216.74 170.802C216.582 170.802 216.503 170.802 216.346 170.802C215.951 170.802 215.557 170.802 215.084 170.802C213.823 170.802 212.483 170.802 211.221 170.802C208.304 170.802 205.466 170.802 202.549 170.565C202.076 170.407 202.076 171.197 202.549 171.276Z" fill="#1C2243"/>
<path d="M201.918 145.23C201.051 145.94 199.396 146.966 198.528 147.755C202.549 147.677 208.068 147.124 212.088 146.887C211.931 146.019 211.694 145.309 211.3 144.52C208.462 145.388 204.914 145.309 201.918 145.23Z" fill="#4097D2"/>
<path d="M204.993 168.04C207.989 169.776 213.35 169.855 216.425 168.355C216.504 168.987 216.582 169.855 216.582 170.486C213.035 170.96 208.226 170.723 204.599 170.644C203.496 170.644 202.392 170.565 201.288 170.565C202.392 169.46 203.732 168.75 204.993 168.04Z" fill="#4097D2"/>
<path d="M239.76 41.7587C238.183 52.3347 228.88 60.2273 219.814 65.91C211.221 71.3558 198.843 74.9075 188.437 77.2752C187.018 73.7236 186.624 74.8285 184.731 71.5926C204.835 62.0426 222.179 47.5992 236.212 30.3145C236.133 30.2356 240.785 34.7343 239.76 41.7587Z" fill="#ADD7FF"/>
<path d="M184.653 71.5133C182.603 71.1186 180.317 71.9079 178.977 73.5653C177.636 75.2228 177.321 77.6695 178.267 79.5637C178.898 80.8265 180.711 81.8525 181.736 80.8265C182.367 80.1951 182.288 79.169 182.84 78.4587C184.022 76.8802 186.624 78.143 188.437 77.2748C187.491 75.3806 186.545 73.4864 185.599 71.5922" fill="#ADD7FF"/>
<path d="M231.167 3.71645C230.379 3.95322 230.063 4.97926 230.379 5.68959C230.694 6.39992 231.403 6.9524 232.192 7.11025C232.98 7.34703 233.769 7.42595 234.557 7.50488C239.051 7.82058 240.154 11.7669 240.627 15.3185C241.179 12.7929 243.544 9.63587 241.81 6.6367C240.47 4.42678 238.972 1.98008 236.449 1.50653C233.926 1.03298 231.009 2.69042 230.536 5.21604C230.457 5.53174 230.3 5.92637 229.984 5.92637" fill="black"/>
<path d="M238.814 11.6879C238.972 11.0565 239.76 10.7408 240.391 10.8986C241.022 11.1354 241.416 11.8457 241.258 12.4771C241.101 13.4242 239.997 13.9767 239.13 13.661" fill="#ADD7FF"/>
<path d="M232.035 10.1881C232.192 11.1352 232.035 12.0823 231.719 12.9505C231.64 13.1083 231.719 13.2662 231.798 13.3451C232.113 13.5819 232.429 13.7397 232.823 13.7397C233.059 13.7397 233.217 13.5819 233.217 13.3451C233.217 13.1873 233.059 12.9505 232.823 12.9505C232.665 12.9505 232.429 12.9505 232.271 12.7926C232.271 12.9505 232.35 13.0294 232.35 13.1873C232.744 12.2402 232.823 11.2141 232.744 10.1881C232.744 9.95131 232.586 9.79346 232.35 9.79346C232.192 9.79346 231.956 9.95131 232.035 10.1881Z" fill="#1C2243"/>
<path d="M230.142 10.7408C230.221 10.8986 230.3 11.0565 230.379 11.1354C230.536 11.2932 230.694 11.3722 230.93 11.3722C231.009 11.3722 231.088 11.3722 231.167 11.3722C231.246 11.3722 231.325 11.2932 231.403 11.2932C231.482 11.2143 231.561 11.2143 231.561 11.1354C231.64 11.0565 231.719 10.9775 231.719 10.8197C231.719 10.7408 231.719 10.5829 231.719 10.504C231.64 10.4251 231.561 10.3461 231.482 10.3461C231.403 10.3461 231.246 10.3461 231.167 10.3461L231.088 10.4251C231.009 10.504 231.009 10.504 231.009 10.5829V10.504C231.009 10.504 231.009 10.5829 230.93 10.5829L231.009 10.504L230.93 10.5829L231.009 10.504L230.93 10.5829H231.009C230.93 10.5829 230.93 10.5829 230.852 10.5829H230.93C230.852 10.5829 230.852 10.5829 230.852 10.5829H230.93H230.852H230.93C230.852 10.5829 230.852 10.5829 230.852 10.504L230.93 10.5829L230.852 10.504L230.93 10.5829L230.852 10.504V10.5829V10.504C230.852 10.4251 230.773 10.3461 230.694 10.2672C230.615 10.1883 230.457 10.1883 230.379 10.2672C230.221 10.3461 230.063 10.504 230.142 10.7408Z" fill="#1C2243"/>
<path d="M233.532 10.1094C233.217 10.1094 233.059 10.4251 233.138 10.7408C233.138 10.8986 233.296 11.0565 233.375 11.2143C233.532 11.4511 233.848 11.609 234.163 11.609C234.873 11.6879 235.503 11.2143 235.74 10.5829C235.819 10.4251 235.661 10.1883 235.503 10.1094C235.267 10.0304 235.109 10.1883 235.03 10.3461V10.4251C235.03 10.504 234.951 10.504 234.951 10.5829C234.873 10.6619 235.03 10.504 234.951 10.5829C234.951 10.5829 234.951 10.5829 234.873 10.6619L234.794 10.7408C234.794 10.7408 234.873 10.6619 234.794 10.7408C234.794 10.7408 234.794 10.7408 234.715 10.7408H234.636C234.636 10.7408 234.557 10.7408 234.636 10.7408C234.715 10.7408 234.636 10.7408 234.636 10.7408H234.557H234.478C234.478 10.7408 234.4 10.7408 234.321 10.7408H234.242C234.242 10.7408 234.321 10.7408 234.242 10.7408C234.163 10.7408 234.163 10.6619 234.084 10.6619C234.005 10.6619 234.163 10.6619 234.084 10.6619C234.084 10.6619 234.084 10.6619 234.005 10.5829C234.005 10.5829 234.005 10.5829 233.927 10.504C233.848 10.4251 234.005 10.5829 233.927 10.504L233.848 10.4251C233.848 10.504 233.848 10.504 233.848 10.4251V10.504C233.848 10.5829 233.769 10.6619 233.69 10.7408C233.611 10.7408 233.532 10.7408 233.532 10.8197C233.769 10.8197 233.927 10.6619 233.927 10.4251C233.848 10.3461 233.69 10.1094 233.532 10.1094Z" fill="#1C2243"/>
<path d="M232.586 15.3973C234.163 16.0288 235.976 15.3973 236.922 14.0556C237.08 13.8978 236.922 13.661 236.764 13.5031C236.607 13.4242 236.37 13.5031 236.212 13.661C235.424 14.7659 234.005 15.1606 232.744 14.687C232.586 14.6081 232.349 14.7659 232.271 14.9238C232.192 15.0816 232.349 15.3184 232.586 15.3973Z" fill="#1C2243"/>
<path d="M115.355 38.4438C112.675 48.7831 102.505 55.5707 92.8866 60.3062C83.7415 64.7261 71.0487 66.936 60.4057 68.1199C59.3808 64.4893 58.9078 65.5153 57.3311 62.0426C78.3017 54.7025 97.1438 42.3112 112.99 26.605C113.069 26.605 117.168 31.5773 115.355 38.4438Z" fill="#E25A60"/>
<path d="M57.3307 62.0424C55.281 61.411 52.9159 61.9635 51.418 63.4631C49.92 64.9626 49.2894 67.3304 50.0777 69.3036C50.5507 70.6453 52.2852 71.8292 53.3889 70.961C54.0984 70.4085 54.1773 69.3825 54.7291 68.7511C56.0693 67.3304 58.5133 68.83 60.4054 68.1986C59.6959 66.2255 58.9075 64.2523 58.1979 62.2792" fill="#E25A60"/>
<path d="M39.2771 121.394C43.6132 121.631 47.9492 121.631 52.2852 121.71C59.0652 121.789 65.8452 121.789 72.6252 121.789C87.0524 121.789 101.401 121.71 115.828 122.026C120.558 122.105 125.446 122.105 130.176 122.815C130.649 122.894 130.886 122.183 130.413 122.105C126.392 121.473 122.214 121.473 118.193 121.315C111.571 121.157 104.948 121.079 98.2473 121.079C83.6624 121 69.0775 121.079 54.4927 121C49.4471 121 44.4015 121 39.356 120.684C38.8041 120.526 38.8041 121.315 39.2771 121.394Z" fill="#1C2243"/>
<path d="M112.832 21.3169C112.517 22.5797 112.28 25.1843 111.965 26.3681C111.886 26.7628 111.729 27.1574 111.492 27.552C111.256 27.8677 110.94 28.1045 110.625 28.3413C107.866 30.2355 106.604 31.3404 105.343 34.5764C110.546 35.3657 111.729 35.3657 117.011 35.5235C116.616 32.84 115.907 29.6041 115.119 26.9995C114.567 25.1053 114.488 21.9483 114.488 21.9483C114.409 21.7904 114.251 21.5537 114.094 21.5537C113.857 21.5537 114.015 22.0272 114.173 21.8694" fill="#ED6061"/>
<path d="M107.787 30.63C107.314 31.2614 106.841 32.9188 108.339 33.1556C111.571 33.4713 114.251 32.0507 116.065 29.3672C118.351 36.7862 121.426 58.6486 119.376 66.1465C114.646 66.3044 101.795 68.83 97.2227 67.4093C97.3803 60.5428 103.214 35.7602 107.787 30.63Z" fill="#4E3058"/>
<path d="M16.8095 131.497C4.90514 138.048 -2.11136 152.097 0.569104 165.514C1.90933 172.144 5.29933 178.458 10.3449 183.035C15.4693 187.771 22.2493 190.533 29.187 191.007C32.7346 191.244 36.3611 190.849 39.7511 189.902C43.22 188.955 46.5311 187.218 49.6058 185.324C54.7302 182.088 58.3567 176.958 60.7218 171.433C63.5599 164.882 63.7176 156.753 61.7467 149.966C60.8795 146.966 59.5392 144.046 57.5683 141.599C55.282 138.758 52.3651 136.232 49.2904 134.18C40.4607 128.182 28.9505 126.446 19.017 130.55C18.3074 130.787 17.5979 131.102 16.8095 131.497C16.3365 131.734 16.7307 132.365 17.2037 132.128C25.4816 127.787 36.0458 128.103 44.4025 132.128C47.3983 133.549 50.1576 135.443 52.6804 137.653C55.282 139.863 57.6472 142.389 59.2239 145.388C62.5351 151.702 62.8504 159.358 61.589 166.303C60.9583 169.618 59.4604 172.696 57.726 175.616C56.4646 177.747 54.9667 179.878 53.2323 181.615C50.8672 183.982 47.7137 185.798 44.7179 187.218C41.5644 188.797 38.0167 189.744 34.5479 190.139C27.6891 190.849 20.5937 189.271 14.8386 185.561C9.24118 181.93 4.98398 176.406 2.69771 170.171C0.411429 163.935 0.174918 157.069 2.06701 150.755C4.03794 144.441 7.97979 138.679 13.2619 134.733C14.5233 133.786 15.8635 132.918 17.2037 132.207C17.6768 131.892 17.2826 131.26 16.8095 131.497Z" fill="#1C2243"/>
<path d="M34.863 159.594C34.863 161.489 33.3651 162.988 31.473 162.988C29.5809 162.988 28.083 161.489 28.083 159.594C28.083 157.7 29.5809 156.201 31.473 156.201C33.3651 156.28 34.863 157.779 34.863 159.594Z" fill="#1C4E60"/>
<path d="M127.103 130.866C115.198 137.416 108.182 151.465 110.862 164.883C112.202 171.512 115.592 177.826 120.638 182.404C125.762 187.14 132.542 189.902 139.48 190.376C143.028 190.612 146.654 190.218 150.044 189.271C153.513 188.323 156.824 186.587 159.899 184.693C165.023 181.457 168.65 176.327 171.015 170.802C173.853 164.251 174.011 156.122 172.04 149.334C171.172 146.335 169.832 143.415 167.861 140.968C165.575 138.127 162.658 135.601 159.583 133.549C150.754 127.551 139.243 125.814 129.31 129.918C128.6 130.155 127.812 130.55 127.103 130.866C126.629 131.102 127.024 131.734 127.497 131.497C135.775 127.156 146.339 127.472 154.696 131.497C157.691 132.918 160.451 134.812 162.973 137.022C165.575 139.232 167.94 141.757 169.517 144.757C172.828 151.071 173.143 158.726 171.882 165.672C171.251 168.987 169.753 172.065 168.019 174.985C166.758 177.116 165.26 179.247 163.525 180.983C161.16 183.351 158.007 185.087 155.011 186.587C151.857 188.166 148.31 189.113 144.841 189.507C137.982 190.218 130.887 188.639 125.132 184.93C119.534 181.299 115.277 175.774 112.991 169.539C110.704 163.304 110.468 156.516 112.439 150.123C114.41 143.809 118.352 138.048 123.634 134.102C124.895 133.154 126.235 132.286 127.576 131.576C127.891 131.339 127.497 130.708 127.103 130.866Z" fill="#1C2243"/>
<path d="M145.077 159.042C145.077 160.936 143.579 162.436 141.687 162.436C139.795 162.436 138.297 160.936 138.297 159.042C138.297 157.148 139.795 155.648 141.687 155.648C143.579 155.727 145.077 157.226 145.077 159.042Z" fill="#1C4E60"/>
<path d="M31.9452 159.91C35.4928 138.521 39.6712 117.212 44.6379 96.0595C46.057 90.1401 47.4761 84.2207 48.974 78.3802C49.1317 77.9066 48.3433 77.6698 48.2645 78.1434C42.9035 99.2165 38.2521 120.448 34.3891 141.757C33.2854 147.756 32.2605 153.754 31.2356 159.674C31.078 160.147 31.8663 160.384 31.9452 159.91Z" fill="#1C2243"/>
<path d="M64.3477 69.9347C61.1942 70.4083 58.1196 70.9608 54.9661 71.5922C53.3894 71.9079 51.8915 72.2236 50.3147 72.6182C49.1322 72.9339 47.7919 73.1707 46.6882 73.881C45.2691 74.8281 44.5596 77.1959 46.294 78.2219C47.2401 78.7744 48.4226 78.6955 49.4475 78.6166C51.0243 78.5376 52.601 78.3798 54.2566 78.2219C57.8042 77.9062 61.2731 77.4327 64.8207 76.8802C65.2938 76.8013 65.0573 76.0909 64.5842 76.1699C64.4266 76.1699 64.2689 76.1699 64.19 76.2488C63.717 76.3277 63.8747 77.038 64.4266 76.9591C64.5842 76.9591 64.7419 76.9591 64.8207 76.8802C64.7419 76.6434 64.6631 76.4066 64.5842 76.1699C61.1942 76.7223 57.8042 77.117 54.4142 77.4327C52.6798 77.5905 50.9454 77.7484 49.2898 77.8273C47.9496 77.9062 45.5845 77.9062 46.1364 75.8542C46.5305 74.2757 48.4226 73.881 49.7629 73.4864C51.3396 73.0918 52.9163 72.6971 54.5719 72.3814C57.8831 71.6711 61.1154 71.1976 64.4266 70.6451C65.0572 70.6451 64.8207 69.8558 64.3477 69.9347Z" fill="#1C2243"/>
<path d="M42.9041 98.5057C35.7299 98.5847 28.5557 98.4268 21.3815 97.7954C21.145 97.7954 20.9874 97.9533 20.9874 98.19C20.9085 103.162 20.8297 108.056 21.5392 112.949C22.1699 117.369 23.2736 123.209 27.452 125.735C28.6346 126.445 29.9748 126.603 31.315 126.761C33.4436 126.998 35.4934 126.919 37.622 126.603C37.7797 126.603 37.8585 126.445 37.8585 126.366C38.9622 121.473 40.1448 116.501 41.2485 111.607C41.8003 109.24 42.3522 106.872 42.8252 104.504C43.0617 103.399 43.2194 102.294 43.3771 101.189C43.4559 100.4 43.8501 99.295 43.2983 98.6636C43.2194 98.5847 42.9829 98.5057 42.9041 98.5057C42.8252 98.5847 42.8252 98.5847 42.7464 98.5847C42.2734 98.7425 42.5099 99.4528 42.9829 99.295C42.5887 99.4528 42.5099 101.426 42.5099 101.821C42.3522 102.61 42.2734 103.478 42.1157 104.267C41.8003 105.846 41.485 107.345 41.0908 108.924C40.3813 112.16 39.5929 115.396 38.8834 118.632C38.4892 120.21 38.1738 121.789 37.7797 123.446C37.7008 123.841 37.622 124.235 37.5431 124.63C37.4643 124.867 37.4643 125.577 37.3066 125.814C36.9124 126.209 35.6511 126.13 35.178 126.209C33.2071 126.366 30.9208 126.288 29.0287 125.577C26.1118 124.551 24.6139 121.473 23.6678 118.711C22.5641 115.317 22.1699 111.607 21.9334 108.056C21.7757 104.741 21.7757 101.505 21.8546 98.19C21.6969 98.3479 21.6181 98.4268 21.4604 98.5847C28.6346 99.2161 35.8087 99.3739 42.9829 99.295C43.3771 99.295 43.3771 98.5057 42.9041 98.5057Z" fill="#1C2243"/>
<path d="M21.3811 106.556C28.0823 107.346 34.7046 107.74 41.4846 107.898C41.9576 107.898 41.9576 107.109 41.4846 107.109C34.7834 106.951 28.0823 106.477 21.3811 105.767C20.9081 105.767 20.9081 106.556 21.3811 106.556Z" fill="#1C2243"/>
<path d="M39.3561 115.791C37.9371 116.185 36.3603 116.107 34.8624 116.185C33.6799 116.264 32.5761 116.264 31.3936 116.264C28.5554 116.264 25.7173 116.107 22.8792 115.87C22.4062 115.791 22.4062 116.58 22.8792 116.659C25.7962 116.896 28.7131 117.054 31.6301 117.054C32.8126 117.054 33.9164 116.975 35.0989 116.975C36.5968 116.896 38.0947 116.896 39.5926 116.501C39.9868 116.422 39.8292 115.633 39.3561 115.791Z" fill="#1C2243"/>
<path d="M26.5062 98.9795C25.7178 107.977 26.9004 117.211 29.3443 125.893C29.502 126.367 30.2115 126.13 30.0539 125.656C27.6099 117.053 26.4274 107.898 27.2157 98.9006C27.2946 98.427 26.585 98.427 26.5062 98.9795Z" fill="#1C2243"/>
<path d="M35.7302 126.524C35.7302 122.499 34.863 118.474 34.7053 114.449C34.4688 109.319 34.2323 104.188 34.5476 99.0583C34.5476 98.5847 33.8381 98.5847 33.7593 99.0583C33.3651 104.188 33.6804 109.319 33.9169 114.449C34.0746 118.474 34.9418 122.499 34.9418 126.524C34.9418 126.998 35.7302 126.998 35.7302 126.524Z" fill="#1C2243"/>
<path d="M142.318 159.358C136.72 140.337 131.123 121.395 125.604 102.374C124.027 97.0067 122.451 91.6397 120.874 86.2728C120.716 85.7992 120.007 86.036 120.164 86.5095C125.762 105.531 131.359 124.473 136.878 143.494C138.455 148.861 140.031 154.228 141.608 159.595C141.766 159.989 142.475 159.831 142.318 159.358Z" fill="#1C2243"/>
<path d="M115.828 47.0464C113.147 57.3856 102.977 64.1732 93.3592 68.9088C84.2141 73.3286 71.5214 75.5385 60.8784 76.7224C59.8535 73.0918 59.3805 74.1179 57.8037 70.6451C78.7744 63.305 97.6164 50.9137 113.463 35.2075C113.463 35.2075 117.641 40.1798 115.828 47.0464Z" fill="#ED6061"/>
<path d="M57.8044 70.6454C55.7546 70.014 53.3895 70.5665 51.8916 72.0661C50.3937 73.5657 49.763 75.9334 50.5514 77.9066C51.0244 79.2483 52.7588 80.4322 53.8625 79.564C54.572 79.0116 54.6509 77.9855 55.2027 77.3541C56.543 75.9334 58.9869 77.433 60.879 76.8016C60.1695 74.8285 59.3811 72.8553 58.6716 70.8822" fill="#ED6061"/>
<path d="M118.193 17.055C118.43 16.4236 119.297 16.1868 119.849 16.5025C120.401 16.8182 120.716 17.5285 120.558 18.1599C120.322 19.0281 119.139 19.5017 118.351 19.1071" fill="#ED6061"/>
<path d="M124.185 14.1343C126.866 13.1872 130.019 14.0554 131.99 16.0285C134.04 18.0017 134.907 21.0009 134.671 23.7633C134.513 25.5786 133.803 27.3149 132.542 28.4988C131.281 29.6038 129.625 30.0773 128.048 30.3141C126.471 30.5509 124.895 30.6298 123.318 30.2352C121.82 29.8405 120.322 28.8934 119.613 27.4728C118.824 26.0521 118.903 24.3157 119.376 22.7372C119.849 21.1587 120.716 19.817 121.505 18.4752C122.53 16.8178 123.555 15.1604 124.579 13.5029" fill="#FCB500"/>
<path d="M117.168 9.0046C115.04 8.45212 112.753 8.92567 110.94 10.1096C109.127 11.3724 107.944 13.3455 107.471 15.4765C107.077 17.2918 107.235 19.186 108.023 20.8434C109.679 24.5529 114.33 26.5261 118.114 25.2633C121.977 24.0005 124.579 19.8174 124.106 15.8711C123.869 13.898 123.002 11.9248 121.426 10.5831C119.928 9.24137 117.799 8.60997 115.828 9.08352" fill="#FCB500"/>
<path d="M111.414 14.2923C111.256 15.3184 111.02 16.2655 110.862 17.2915C110.547 18.87 110.31 20.4485 110.625 22.0271C110.941 23.6056 111.966 25.1052 113.542 25.5787C114.646 25.8944 115.908 25.4998 116.854 24.8684C117.8 24.158 118.43 23.132 118.825 22.0271C119.613 22.8163 121.19 22.5006 121.584 21.4746C121.978 20.4485 120.953 19.1857 119.849 19.2647C120.165 17.7651 120.086 16.1866 119.613 14.7659C119.061 13.3452 118.036 11.9246 116.538 11.6878C115.829 11.5299 115.04 11.7667 114.331 11.9246C113.069 12.3192 111.729 12.9506 111.414 14.2134" fill="#ED6061"/>
<path d="M108.496 18.3176C111.965 18.0019 115.355 16.5023 117.878 13.9767C118.666 15.7131 119.613 17.3705 120.716 18.8701C122.293 16.5023 121.662 13.0296 119.534 11.2143C117.405 9.39903 114.015 9.32011 111.65 10.8197C109.285 12.3982 108.023 15.3974 108.339 18.1598C108.339 18.3176 108.654 18.3966 108.575 18.2387" fill="#FCB500"/>
<path d="M112.359 18.7912C112.359 19.7383 112.202 20.6065 111.729 21.4747C111.65 21.6325 111.65 21.7904 111.807 21.9482C112.044 22.2639 112.438 22.4218 112.832 22.4218C113.305 22.4218 113.305 21.6325 112.832 21.6325C112.675 21.6325 112.517 21.5536 112.359 21.3957C112.359 21.5536 112.438 21.7114 112.438 21.8693C112.911 20.9222 113.148 19.8961 113.148 18.8701C113.148 18.3176 112.359 18.3176 112.359 18.7912Z" fill="#1C2243"/>
<path d="M110.467 19.1858C110.467 19.3436 110.624 19.5015 110.703 19.6593C110.782 19.7382 110.94 19.8961 111.097 19.8961C111.255 19.8961 111.334 19.8961 111.413 19.8961C111.492 19.8961 111.571 19.8172 111.649 19.8172C111.807 19.7382 111.965 19.5804 112.044 19.5015C112.122 19.4225 112.122 19.3436 112.044 19.1858C112.044 19.1068 111.965 19.0279 111.886 18.949C111.807 18.8701 111.728 18.8701 111.571 18.949C111.492 18.949 111.413 19.0279 111.334 19.1068C111.334 19.1068 111.334 19.1858 111.255 19.1858L111.334 19.1068L111.255 19.1858L111.334 19.1068L111.255 19.1858H111.334C111.255 19.1858 111.255 19.1858 111.176 19.1858H111.255H111.176H111.255H111.176H111.255C111.255 19.1858 111.176 19.1858 111.176 19.1068L111.255 19.1858L111.176 19.1068L111.255 19.1858C111.255 19.1858 111.176 19.1068 111.176 19.0279V19.1068V19.0279C111.176 18.949 111.097 18.8701 111.019 18.7911C110.94 18.7122 110.782 18.7122 110.703 18.7911C110.624 18.7911 110.546 18.8701 110.467 18.949V19.0279C110.467 19.0279 110.467 19.1068 110.467 19.1858Z" fill="#1C2243"/>
<path d="M113.858 18.8701C113.542 18.8701 113.385 19.1069 113.385 19.4226C113.385 19.5804 113.464 19.7383 113.542 19.8961C113.7 20.1329 114.015 20.3697 114.331 20.4486C114.962 20.6065 115.671 20.2119 115.908 19.6594C115.986 19.5015 115.986 19.2647 115.75 19.1069C115.592 19.028 115.356 19.028 115.198 19.2647C115.198 19.3437 115.119 19.3437 115.119 19.4226V19.5015C115.119 19.5015 115.119 19.4226 115.119 19.5015L115.04 19.5804H114.962C114.883 19.5804 114.883 19.6594 114.804 19.6594C114.725 19.6594 114.883 19.6594 114.804 19.6594H114.725H114.646C114.646 19.6594 114.567 19.6594 114.646 19.6594C114.725 19.6594 114.646 19.6594 114.646 19.6594H114.567H114.488C114.488 19.6594 114.41 19.6594 114.488 19.6594C114.567 19.6594 114.488 19.6594 114.488 19.6594H114.41C114.41 19.6594 114.331 19.5804 114.41 19.6594C114.488 19.6594 114.41 19.6594 114.41 19.6594C114.41 19.6594 114.41 19.6594 114.331 19.5804C114.331 19.5804 114.252 19.5015 114.331 19.5804C114.41 19.5804 114.331 19.5804 114.331 19.5804V19.5015C114.331 19.4226 114.331 19.4226 114.331 19.5015C114.331 19.5804 114.331 19.6594 114.252 19.6594C114.173 19.6594 114.173 19.7383 114.094 19.7383H114.015C114.252 19.7383 114.41 19.5804 114.41 19.3437C114.252 19.028 114.094 18.8701 113.858 18.8701Z" fill="#1C2243"/>
<path d="M112.359 23.9214C113.857 24.7107 115.67 24.395 116.853 23.1322C117.168 22.7376 116.616 22.264 116.301 22.5797C115.434 23.6057 113.936 23.8425 112.753 23.29C112.28 23.0533 111.886 23.6847 112.359 23.9214Z" fill="#1C2243"/>
<path d="M98.0902 67.0145C97.9325 73.3285 94.0695 79.0112 89.5758 83.5099C85.1609 88.0087 79.9576 91.8761 76.2523 97.0062C75.5428 97.9533 74.9121 98.9794 74.5967 100.163C73.966 102.531 74.9121 104.978 75.7793 107.267C81.6132 122.183 87.526 137.1 93.4388 152.017C96.4346 151.938 99.3516 151.86 102.347 151.781C96.2769 136.864 93.9907 120.605 91.7832 104.662C91.7044 103.952 91.5467 103.162 91.862 102.452C92.1774 101.742 92.8869 101.268 93.5176 100.795C100.455 96.138 107.472 91.4814 114.409 86.7459C116.696 85.1674 119.14 83.5099 120.322 80.9843C122.53 76.4066 119.849 71.1186 119.376 66.0674C111.966 66.3042 104.634 66.6988 97.223 67.3302" fill="#1374AA"/>
<path d="M112.753 70.1718C118.982 78.5379 102.741 86.0358 97.459 89.5086C92.0193 93.0602 86.1065 96.6908 85.6335 103.873C85.397 107.267 86.6583 110.661 87.6044 113.897C88.8658 118.159 90.0483 122.499 91.3097 126.761C93.6749 135.128 95.8823 143.573 98.7993 151.702C98.9569 152.097 99.5876 151.86 99.43 151.465C96.1976 142.468 93.8325 133.154 91.1521 123.92C88.7081 115.554 82.8742 103.952 89.4176 96.2172C92.0981 93.1391 96.1188 91.0871 99.5088 88.8771C102.82 86.7462 106.289 84.6941 109.521 82.3263C113.463 79.4061 116.695 74.2759 113.305 69.6982C113.069 69.3825 112.517 69.7771 112.753 70.1718Z" fill="white"/>
<path d="M93.8324 152.176C92.9652 152.886 91.3096 153.912 90.4424 154.701C94.4631 154.622 99.9817 154.07 104.002 153.833C103.845 152.965 103.608 152.255 103.214 151.465C100.455 152.412 96.907 152.255 93.8324 152.176Z" fill="#4097D2"/>
<path d="M62.3764 136.232C61.3515 136.706 59.4595 137.258 58.4346 137.732C62.2976 138.758 67.8162 139.784 71.758 140.652C71.8369 139.784 71.8369 138.995 71.6792 138.127C68.6834 138.284 65.2934 137.18 62.3764 136.232Z" fill="#4097D2"/>
<path d="M71.3639 142.31C78.6958 145.625 85.9488 148.939 93.2806 152.333C93.7537 152.57 94.1479 151.86 93.6748 151.702C86.343 148.387 79.09 145.072 71.7581 141.678C71.2851 141.441 70.8909 142.152 71.3639 142.31Z" fill="#1C2243"/>
</svg>
