<svg width="228" height="175" viewBox="0 0 228 175" fill="none" xmlns="http://www.w3.org/2000/svg">
<path d="M186.451 26.9145C186.284 25.2447 186.117 23.4078 185.45 21.738C184.782 20.0681 183.447 18.7323 181.778 18.0643C178.94 17.0624 175.936 18.7323 173.265 20.2351C170.595 21.571 167.256 22.9069 164.753 21.07C163.084 19.9012 162.416 17.5634 160.413 16.7284C158.911 16.2275 157.242 16.7284 155.906 17.7304C154.571 18.5653 153.403 19.7342 151.734 20.2351C149.898 20.7361 147.895 20.4021 146.559 19.2332C144.89 17.7304 143.889 15.2256 141.886 14.3907C139.716 13.5557 137.379 14.7246 135.376 15.7265C133.373 16.7284 130.703 17.7304 128.867 16.3945C127.031 15.2256 126.864 12.5538 126.363 10.383C125.528 6.20841 122.524 2.70173 118.685 1.03188C114.846 -0.637968 110.006 -0.303998 106.5 2.20077C102.995 4.53856 100.659 8.37921 101.159 12.5538C99.824 24.0758 104.831 28.4174 107.168 29.9202C107.669 30.4212 108.17 30.9221 109.004 31.4231C112.009 33.5939 116.515 34.2618 120.354 34.5958C125.028 34.9298 127.865 33.5939 129.2 33.2599C130.536 32.926 131.704 32.258 133.039 31.9241C135.209 31.5901 137.546 32.425 139.549 33.5939C141.552 34.7628 143.388 36.0987 145.391 36.9336C148.061 37.9355 151.233 38.1025 153.903 36.9336C154.571 36.5996 155.406 36.2657 156.073 36.0987C158.076 35.5977 160.246 36.2657 162.249 37.2676C164.085 38.2695 165.754 39.6053 167.757 40.4403C171.429 41.9431 175.602 41.6092 179.274 40.1063C181.611 39.1044 183.947 37.6015 185.116 35.4307C185.784 34.0949 185.95 32.592 185.617 31.2561C185.784 30.9221 185.95 30.7552 186.117 30.4212C186.618 29.2523 186.451 28.0834 186.451 26.9145Z" fill="#1A4956"/>
<path d="M182.445 151.986C193.962 153.99 205.98 153.823 217.33 151.151C219.333 150.65 221.503 150.149 223.673 150.65C225.676 151.151 227.512 152.988 227.178 155.159C225.175 168.518 198.469 172.525 195.465 172.525C192.961 172.525 178.94 171.189 174.601 169.854C177.438 164.009 178.606 156.996 182.445 151.986Z" fill="#B1BFE2"/>
<path d="M44.9098 148.813C33.3929 150.65 21.3753 150.316 10.0253 147.477C8.02233 146.976 5.85248 146.475 3.68263 146.809C1.67969 147.31 -0.156343 149.147 0.0105688 151.318C1.67969 164.677 28.5525 169.018 31.39 169.018C33.8937 169.018 48.0812 168.016 52.254 166.681C49.9172 161.003 48.5819 153.99 44.9098 148.813Z" fill="#B1BFE2"/>
<path d="M110.506 25.7455C104.664 24.9105 102.995 17.8972 103.83 12.0527C104.33 7.8781 106.667 3.36952 111.007 2.70158C114.011 2.20062 116.849 4.03746 118.685 6.37524C120.354 8.88001 121.021 11.8857 121.188 14.7245C121.355 17.0623 121.355 19.4001 120.521 21.5709C119.686 23.7417 117.349 25.5785 115.013 25.7455C115.013 28.0833 114.679 33.9277 114.679 36.0985C123.692 40.2731 133.707 41.609 141.051 48.1214C132.205 49.6243 137.212 71.4993 110.005 71.1653C89.3082 70.8313 92.3126 49.2903 84.4678 46.6186C85.4692 44.2808 101.66 39.4382 110.172 36.0985C110.172 32.4249 110.339 29.4191 110.506 25.7455Z" fill="#B1BFE2"/>
<path d="M88.6407 93.2075C82.6318 102.559 47.0796 106.733 38.0664 108.403C51.5863 113.079 98.1546 131.28 112.509 131.614C128.366 131.948 173.933 114.581 188.955 109.405C173.933 107.902 145.558 101.056 137.546 91.7046C131.537 93.0405 122.19 93.5414 117.683 93.5414C105.833 93.3744 100.658 93.3744 88.6407 93.2075Z" fill="#30606D"/>
<path d="M75.4544 103.227C68.9448 97.2151 62.7691 90.3687 55.0912 85.6931C45.911 80.3496 34.7279 78.5128 24.2125 80.8506C19.539 81.8525 14.8654 83.8563 11.6941 87.196C7.1875 92.0385 6.18603 99.3859 7.68824 105.898C9.19044 112.411 13.0294 118.088 17.3691 123.098C32.0574 140.464 52.5875 152.32 74.1191 159.667C95.8176 167.015 118.518 170.187 141.385 172.358C158.576 174.028 175.768 175.03 193.127 174.529C193.795 166.514 194.462 158.331 195.297 150.316C182.111 150.65 168.758 148.813 156.073 145.14C156.073 145.14 98.4882 124.434 75.4544 103.227Z" fill="#532277"/>
<path d="M151.734 102.558C158.41 96.547 164.586 89.8676 172.264 85.359C181.444 80.0155 192.794 78.5127 203.143 80.8505C207.816 82.0193 212.323 83.8562 215.494 87.3629C220.001 92.3724 220.835 99.7197 219.333 106.065C217.664 112.411 213.825 118.088 209.318 123.098C194.463 140.297 173.766 151.986 152.068 158.999C130.369 166.18 107.502 169.018 84.6353 170.855C67.4434 172.191 50.0846 173.193 32.8927 172.358C32.225 164.343 31.7243 156.161 31.0566 148.145C44.2427 148.646 57.5956 146.976 70.4478 143.47C70.4478 143.303 128.533 123.432 151.734 102.558Z" fill="#9129A1"/>
<path d="M93.1478 41.2749C76.4566 43.2787 73.1184 82.8541 72.9515 82.6871C69.4463 77.6776 63.6044 85.1919 63.6044 85.1919C63.1037 86.6947 66.275 100.221 66.275 102.224C66.275 108.904 80.4625 104.896 83.9676 100.387C87.9735 95.044 89.1419 70.9982 93.3147 65.6547C93.6485 65.1537 93.4816 62.6489 93.6485 61.981C93.8154 61.1461 94.9838 59.9772 94.8169 58.9753C94.3162 55.1346 94.1493 41.4419 92.6471 41.9428" fill="#FBC049"/>
<path d="M97.4875 40.2734C97.9883 43.6131 99.1566 48.2887 100.659 51.4614C101.493 53.4652 102.662 55.302 104.164 56.6379C108.504 60.4786 115.848 59.6437 120.021 55.636C124.36 51.6284 125.863 45.6169 125.529 39.7725C126.864 40.1064 129.868 40.6074 131.204 40.9414C130.536 44.1141 130.536 49.6246 130.035 52.7973C128.366 65.9891 133.04 67.6589 133.04 68.4938C134.041 78.179 134.208 84.0234 137.379 91.7047C121.022 96.5473 100.993 95.3784 87.8066 93.8755C89.1419 84.1904 89.6427 78.8469 89.4758 68.3269C91.4787 67.4919 93.8155 62.3154 93.8155 54.4671C93.8155 50.2925 91.9794 45.7839 91.4787 41.7763C93.1478 41.2753 96.1522 40.4404 97.4875 40.2734Z" fill="#FBC049"/>
<path d="M104.163 6.37533C103.162 7.21026 102.995 8.88011 103.829 9.88201C104.497 11.0509 105.832 11.5519 107.168 11.8858C108.503 12.2198 109.838 12.0528 111.173 12.2198C116.515 12.5538 121.856 15.7265 124.026 20.569C124.693 15.0585 122.69 9.21408 118.851 5.20644C117.349 3.53659 115.179 2.20072 113.009 2.03373C111.507 1.86675 110.172 2.3677 108.837 2.86865C106.667 3.70358 104.497 4.70549 103.662 6.87629" fill="#1A4956"/>
<path d="M104.163 16.5615C103.496 16.5615 102.661 16.5615 102.16 16.8955C101.66 17.2295 101.326 18.0644 101.493 18.7323C101.66 19.2333 102.16 19.5672 102.828 19.5672C103.329 19.5672 103.829 19.5672 104.497 19.4003" fill="#B1BFE2"/>
<path d="M120.854 16.7285C121.522 16.7285 122.357 16.7285 122.857 17.0625C123.358 17.3965 123.692 18.2314 123.525 18.8993C123.358 19.4003 122.69 19.7342 122.19 19.7342C121.689 19.7342 121.188 19.7342 120.521 19.5673" fill="#B1BFE2"/>
<path d="M104.998 15.8935C104.998 16.3945 105.332 16.8954 105.666 17.3964C105.999 17.7303 106.5 18.0643 107.168 18.0643C108.169 18.2313 109.171 17.3964 109.505 16.3945C109.671 16.0605 109.338 15.7265 109.004 15.5595C108.67 15.5595 108.336 15.7265 108.169 16.0605V16.2275C108.169 16.2275 108.169 16.3945 108.002 16.3945C108.002 16.3945 108.002 16.3945 107.835 16.5615C107.835 16.5615 107.835 16.5615 107.669 16.5615C107.669 16.5615 107.835 16.5615 107.669 16.5615L107.502 16.7284C107.335 16.7284 107.502 16.7284 107.502 16.7284C107.502 16.7284 107.502 16.7284 107.335 16.7284H107.168C107.168 16.7284 107.001 16.7284 106.834 16.7284C106.667 16.7284 106.834 16.7284 106.834 16.7284H106.667C106.667 16.7284 106.667 16.7284 106.5 16.7284C106.5 16.7284 106.667 16.7284 106.5 16.7284C106.5 16.7284 106.333 16.7284 106.333 16.5615C106.166 16.5615 106.5 16.5615 106.333 16.5615C106.333 16.5615 106.333 16.5615 106.166 16.5615C106.166 16.5615 105.999 16.3945 106.166 16.5615L105.999 16.3945C105.999 16.3945 105.999 16.3945 105.999 16.2275C105.999 16.2275 105.999 16.3945 105.999 16.2275V16.0605C105.999 16.0605 105.999 15.8935 105.999 16.0605C105.999 15.7265 105.666 15.3926 105.332 15.3926C105.332 15.2256 104.831 15.5595 104.998 15.8935Z" fill="#30606D"/>
<path d="M114.012 16.2275C114.012 17.3964 115.013 18.3983 116.182 18.3983C117.183 18.3983 118.351 17.5634 118.518 16.5615C118.518 16.2275 118.518 15.8935 118.018 15.7265C117.684 15.7265 117.35 15.8935 117.183 16.2275C117.183 16.3945 117.183 16.3945 117.183 16.5615V16.7284C117.183 16.7284 117.183 16.7284 117.183 16.8954C117.183 17.0624 117.35 16.7284 117.183 16.8954L117.016 17.0624C116.849 17.2294 117.183 17.0624 117.016 17.0624C117.016 17.0624 117.016 17.0624 116.849 17.0624C116.849 17.0624 116.849 17.0624 116.682 17.0624C116.515 17.0624 116.682 17.0624 116.682 17.0624C116.515 17.0624 116.515 17.0624 116.348 17.0624H116.182H116.015C116.182 17.0624 116.182 17.0624 116.015 17.0624H115.848C115.848 17.0624 115.848 17.0624 115.681 17.0624L115.514 16.8954L115.347 16.7284C115.347 16.7284 115.347 16.7284 115.18 16.5615L115.013 16.3945C115.013 16.2275 115.013 16.5615 115.013 16.3945C115.013 16.3945 115.013 16.3945 115.013 16.2275V16.0605C115.013 16.0605 115.013 16.0605 115.013 15.8935C115.013 15.5596 114.679 15.2256 114.346 15.2256C114.346 15.5596 114.012 15.8935 114.012 16.2275Z" fill="#30606D"/>
<path d="M111.174 17.2295C111.174 18.0644 111.174 18.8993 111.174 19.5672C111.174 19.9012 111.174 20.4022 111.174 20.7361C111.341 21.2371 111.841 21.5711 112.342 21.2371C112.676 21.0701 112.676 20.7361 112.509 20.4022C112.342 20.0682 112.008 20.0682 111.675 20.2352H111.841C112.008 20.2352 112.008 20.2352 112.175 20.4022C112.008 20.4022 112.175 20.4022 112.342 20.5692C112.342 20.7361 112.342 20.7361 112.342 20.5692C112.342 20.4022 112.342 20.2352 112.342 20.0682C112.342 19.7342 112.342 19.4003 112.342 19.0663C112.342 18.3984 112.342 17.8974 112.342 17.2295C112.342 16.8955 112.008 16.5615 111.675 16.5615C111.508 16.5615 111.174 16.7285 111.174 17.2295Z" fill="#30606D"/>
<path d="M131.371 40.9414C148.062 41.9433 153.236 82.3536 153.403 82.3536C153.904 82.6876 151.901 85.0254 151.901 85.0254C152.568 86.5282 154.071 100.054 153.904 100.221C149.564 105.397 144.724 103.06 141.051 98.8851C136.712 93.7086 135.71 72.5015 131.371 67.325C130.87 66.824 128.7 65.4881 128.366 64.8202C128.032 63.9853 126.196 59.6437 126.363 58.8088C126.697 55.1351 129.868 40.7744 131.371 40.9414Z" fill="#FBC049"/>
<path d="M74.9535 40.9414L110.506 64.1523L137.879 41.2754L143.721 61.8145C143.721 61.8145 103.829 86.3612 102.995 85.1923C102.16 84.0235 71.7822 67.158 71.7822 67.158L74.9535 40.9414Z" fill="#F7F2F8"/>
<path d="M66.1074 43.4463L108.837 65.3213L147.06 43.4463L150.231 67.4921L107.168 90.8699L69.4457 73.8375L66.1074 43.4463Z" fill="#D9C7E1"/>
<path d="M60.7666 47.7876V116.585L111.675 135.789L160.246 115.75L158.577 47.7876L108.837 66.1559L60.7666 47.7876Z" fill="#926492"/>
<path d="M110.673 136.624C107.502 136.624 104.831 133.952 104.831 130.779V67.4919C104.831 64.3192 107.502 61.6475 110.673 61.6475C113.844 61.6475 116.515 64.3192 116.515 67.4919V130.779C116.515 134.119 113.844 136.624 110.673 136.624Z" fill="#744974"/>
<path d="M55.7596 79.6817C54.4243 83.0214 55.9265 88.3649 57.2618 91.7046C57.9295 93.3744 58.764 94.8773 60.0993 95.8792C61.6015 96.8811 63.7714 96.7141 64.7728 95.3783C65.2736 94.7103 65.4405 94.0424 65.6074 93.2075C65.9412 91.8716 66.1081 90.7027 66.275 89.3668C66.6089 87.029 66.7758 84.6912 66.1081 82.5204C65.4405 80.3496 63.9383 78.1788 61.7684 77.5109C59.4317 76.676 56.5942 77.5109 55.7596 79.6817Z" fill="#B1BFE2"/>
<path d="M164.752 79.5147C165.086 83.1883 164.752 86.862 163.417 90.3687C162.749 92.0385 161.914 93.5414 160.579 94.5433C159.077 95.5452 156.907 95.3782 155.906 94.0423C155.405 93.3744 155.238 92.5395 155.071 91.7045C154.737 90.3687 154.57 89.1998 154.403 87.8639C154.07 85.5261 153.903 83.1883 154.57 81.0175C155.238 78.8467 156.74 76.6759 158.91 76.008C161.08 75.1731 164.418 75.841 164.752 79.5147Z" fill="#B1BFE2"/>
</svg>
