<svg width="288" height="363" viewBox="0 0 288 363" fill="none" xmlns="http://www.w3.org/2000/svg">
<g clip-path="url(#clip0)">
<path d="M152.868 69.9588C164.796 69.6443 176.881 69.3299 188.809 69.0155C198.226 68.7011 208.428 68.2294 216.118 62.8843C217.688 69.0155 218.316 75.3039 218.002 81.5924C208.271 84.265 198.54 87.0948 188.652 89.7673C175.783 93.3832 162.756 96.999 149.572 96.213C150.671 88.3524 151.926 80.6491 153.496 72.7886C153.653 72.3169 153.653 71.8453 154.124 71.6881C154.595 71.5309 155.065 72.0025 154.752 72.3169" fill="#CCEBF0"/>
<path d="M64.3492 68.3867C53.0489 104.388 39.5513 141.175 13.4979 168.53C7.8478 174.19 -2.66773 180.793 0.62818 188.339C3.2963 188.968 6.12137 187.71 8.47559 186.452C31.547 173.875 51.3225 155.324 65.2908 133C67.3312 129.699 69.2146 126.398 70.1562 122.624C70.784 119.795 70.784 116.808 70.6271 113.978C70.1562 100.772 68.5868 87.7237 66.0756 74.6752" fill="#CCEBF0"/>
<path d="M122.106 344.92C126.187 352.152 133.877 356.711 139.213 363C129.483 360.17 120.066 356.711 110.806 352.624C110.649 350.108 111.12 347.436 112.218 345.078C112.218 344.92 112.375 344.763 112.532 344.763C112.689 344.606 112.846 344.763 113.16 344.763C116.613 345.392 119.909 346.021 123.362 346.65" fill="#45ACC4"/>
<path d="M53.99 340.047C53.2053 341.462 52.1067 342.877 51.165 344.134C46.1426 350.423 41.2772 356.711 36.2549 363C39.3938 362.371 42.2189 360.956 45.044 359.698C50.6941 357.026 56.3443 354.196 61.9944 351.523C62.1513 351.366 62.4652 351.366 62.6222 351.052C62.7791 350.737 62.7791 350.266 62.7791 349.951C62.3083 346.964 61.8374 343.977 61.3666 340.99C59.1693 341.147 56.8151 340.833 54.7748 340.361" fill="#45ACC4"/>
<path d="M224.122 176.076C225.692 230.943 228.674 287.067 230.243 341.776L242.328 341.934C242.328 341.934 243.113 334.23 243.898 328.256C248.606 292.884 250.332 253.424 251.745 217.58C252.373 202.173 250.646 186.295 251.117 170.888C242.642 173.561 237.149 178.906 228.36 178.434" fill="#B1BFE2"/>
<path d="M215.804 177.177C211.567 231.886 206.701 286.281 202.464 340.991L192.419 341.62C189.908 338.475 187.71 259.713 188.181 223.869C188.338 208.462 189.28 184.566 189.594 169.159C197.912 172.146 202.934 179.535 211.723 179.378" fill="#B1BFE2"/>
<path d="M145.02 164.442C144.863 173.875 143.922 183.15 142.038 192.426C141.881 193.055 141.724 193.841 141.254 194.312C140.783 194.784 139.998 194.784 139.37 194.941C116.927 197.771 94.1691 195.884 71.7255 194.155C70.3129 183.622 70.6268 172.932 72.8241 162.556C83.1827 161.927 93.6982 161.298 104.057 162.399C109.079 163.027 113.945 163.971 118.81 164.442C127.285 165.386 135.917 164.914 144.549 164.285" fill="#1C4E60"/>
<path d="M104.214 8.96121C101.86 8.33237 99.1915 9.43285 97.7789 11.4766C96.2094 13.3631 95.7386 15.8785 95.5817 18.3939C95.2678 22.1669 95.8955 25.94 96.8372 29.5558C97.7789 33.4861 99.1915 37.4164 101.546 40.5606C103.9 43.862 107.353 46.3774 111.276 47.1635C115.2 47.7923 119.595 46.3774 121.949 43.076C123.518 40.7178 123.989 37.7308 123.989 34.7438C123.832 26.8833 120.379 19.0227 114.572 13.5203C111.433 10.5333 107.196 8.17516 103.115 9.11843" fill="#CCEBF0"/>
<path d="M98.4064 34.7439C96.523 33.9579 94.1688 35.3728 93.8549 37.4165C93.384 39.4603 94.9535 41.504 96.8369 41.9756C98.7203 42.4473 100.918 41.504 102.016 39.6175" fill="#CCEBF0"/>
<path d="M258.023 151.708C257.866 161.141 256.925 170.417 255.041 179.692C254.884 180.321 254.727 181.107 254.256 181.578C253.786 182.05 253.001 182.05 252.373 182.207C229.93 185.037 207.172 183.151 184.728 181.421C183.316 170.888 183.63 160.198 185.827 149.822C196.186 149.193 206.701 148.564 217.06 149.665C222.082 150.294 226.947 151.237 231.813 151.708C240.288 152.652 248.92 152.18 257.552 151.551" fill="#662D91"/>
<path d="M228.988 4.55925C227.262 3.14435 224.593 3.14435 222.553 4.24483C220.513 5.3453 219.1 7.23183 218.159 9.27558C216.589 12.4198 215.647 15.8784 215.02 19.3371C214.392 23.1101 214.235 26.8832 215.02 30.499C215.804 34.1149 217.845 37.7307 220.984 39.7745C224.123 41.8182 226.634 42.6043 231.028 40.5605C233.539 39.4601 235.423 36.4731 236.365 33.9577C239.19 27.0404 239.033 19.0227 236.208 12.2626C234.638 8.64673 231.97 5.03088 228.046 4.24483" fill="#B1BFE2"/>
<path d="M221.611 39.46C221.297 46.3772 223.024 57.0676 216.275 61.9411C209.526 66.8147 203.562 68.2296 195.558 66.6575C201.679 71.531 221.14 96.5275 228.988 96.8419C243.584 97.3136 246.88 75.4613 261.162 78.7627C254.57 70.7449 247.194 66.8147 238.091 61.9411C232.127 58.7969 231.97 47.1633 231.97 39.9316C230.086 40.4032 228.36 40.8749 226.476 41.3465" fill="#B1BFE2"/>
<path d="M236.521 24.8393C237.62 24.5249 239.19 24.5249 240.288 25.1538C241.858 26.097 241.858 29.2412 240.445 30.4989C239.19 31.7566 237.149 31.7566 235.423 31.285" fill="#B1BFE2"/>
<path d="M215.49 24.6821C214.235 24.3677 212.822 24.5249 211.723 25.1537C210.311 26.097 210.311 29.2412 211.723 30.4989C212.979 31.5994 215.019 31.7566 216.746 31.285" fill="#B1BFE2"/>
<path d="M237.934 61.9411C233.696 65.557 231.97 68.0723 226.633 68.0723C219.885 68.2295 216.275 61.9411 216.275 61.9411C215.333 61.4695 187.239 60.5262 176.253 62.8844C178.136 96.8419 175.625 132.057 180.804 165.543C214.391 172.46 260.534 167.272 260.534 167.272C263.045 156.425 272.148 94.0121 268.225 63.5132C257.552 62.4127 248.606 63.356 237.934 61.9411Z" fill="#FBC049"/>
<path d="M268.382 63.356C283.135 77.0333 295.691 105.646 282.664 127.184C270.108 147.935 233.225 149.35 217.687 128.284C215.176 124.825 211.88 121.996 208.114 124.197C204.033 126.555 196.029 127.655 195.558 124.825C195.087 121.996 199.168 116.65 203.248 114.292C206.701 112.249 209.997 112.249 214.548 112.877C221.454 113.821 227.104 116.965 232.911 120.738C239.032 124.668 246.409 126.712 253.629 125.611C260.848 124.354 267.126 122.782 268.853 115.707C269.48 113.035 268.068 110.048 268.225 107.218C269.166 93.8549 268.696 76.8761 268.382 63.356Z" fill="#FBC049"/>
<path d="M176.253 62.8843C161.97 76.876 151.769 103.602 164.011 128.127C173.114 146.363 212.979 150.294 227.889 128.913C230.4 125.454 235.736 123.096 239.817 124.668C248.135 127.97 251.274 126.712 252.216 124.983C254.57 120.895 247.507 116.179 242.956 114.921C239.032 113.821 224.279 111.777 213.763 120.581C208.113 125.297 204.033 127.498 196.813 126.555C189.593 125.611 179.706 123.568 177.665 116.493C176.881 113.821 178.45 108.475 178.764 105.646C180.02 90.239 179.549 72.6314 176.253 62.8843Z" fill="#FBC049"/>
<path d="M208.114 124.354C204.033 126.712 196.029 127.813 195.558 124.983C195.087 122.153 199.168 116.808 203.248 114.45C206.701 112.406 209.997 112.406 214.548 113.035" fill="#B1BFE2"/>
<path d="M239.661 124.511C247.979 127.813 251.118 126.555 252.06 124.826C254.414 120.738 247.351 116.022 242.8 114.764C241.073 114.292 237.464 113.664 232.912 113.664" fill="#B1BFE2"/>
<path d="M254.885 180.478C253.001 209.876 254.257 235.659 252.373 263.8C244.055 263.8 225.064 264.114 225.064 264.114C223.495 237.074 225.535 209.876 222.867 181.736C233.226 182.05 243.427 181.264 253.629 179.377" fill="#662D91"/>
<path d="M217.688 180.478C216.276 208.462 214.863 236.445 213.451 264.429C214.235 264.271 194.617 264.586 185.985 266.158C185.985 262.071 185.985 258.14 186.142 254.053C186.455 226.855 184.572 202.802 184.729 175.604C196.343 177.491 209.841 177.491 220.827 181.579" fill="#662D91"/>
<path d="M242.642 341.776C245.468 348.851 252.53 353.41 256.297 360.013C255.826 360.642 254.884 360.327 254.1 360.013C249.862 357.812 245.781 355.611 241.544 353.253C237.777 351.209 234.01 349.322 230.087 347.75C229.616 347.593 228.988 347.279 228.831 346.807C228.831 346.65 228.831 346.335 228.831 346.178C228.988 345.078 229.145 343.82 229.302 342.72C229.302 342.405 229.459 342.091 229.616 341.934C229.773 341.776 230.087 341.776 230.244 341.776C234.795 341.776 238.091 341.776 242.642 341.776Z" fill="#1C4E60"/>
<path d="M202.463 340.833C199.481 340.99 196.499 341.147 193.674 341.305C193.203 341.305 192.89 341.305 192.419 341.619C192.105 341.776 191.948 342.091 191.634 342.405C187.396 348.851 183.316 355.296 179.078 361.742C186.769 358.598 193.674 354.039 200.266 349.008C201.679 347.907 203.248 348.379 203.248 346.493C203.248 345.235 202.15 342.248 202.62 341.147" fill="#1C4E60"/>
<path d="M238.719 25.4682C239.504 20.2802 239.817 14.935 239.817 9.74708C239.817 8.33218 239.817 7.07449 239.347 5.8168C238.405 2.67258 235.266 0.628842 231.97 0.157209C228.674 -0.314424 225.535 0.471631 222.396 1.57211C220.513 2.20095 218.629 2.98701 216.589 3.14422C214.549 3.30143 212.352 2.51537 211.253 0.786053C213.921 11.6336 214.549 22.9528 215.02 33.8003C215.491 33.8003 215.961 33.8003 216.432 33.9576C215.961 27.9835 216.118 22.0095 216.746 16.0355C223.181 17.7648 229.773 19.6514 236.365 19.1797C236.835 23.7388 236.679 28.4552 236.835 33.0143C236.835 33.0143 237.934 33.1715 238.248 32.8571C238.562 30.0273 238.091 28.4552 238.719 25.4682Z" fill="#FBC049"/>
<path d="M110.492 179.849C110.335 234.716 111.434 290.84 111.277 345.707L123.205 346.336C123.205 346.336 124.146 338.632 125.088 332.658C130.895 297.443 136.702 260.656 139.057 224.969C140.155 209.562 142.352 188.496 143.294 173.089C134.662 175.448 123.048 183.308 114.259 182.522" fill="#926492"/>
<path d="M144.864 156.268C144.707 165.7 143.765 174.976 141.882 184.251C141.725 184.88 141.568 185.666 141.097 186.138C140.626 186.609 139.842 186.609 139.214 186.766C116.77 189.596 94.0128 187.71 71.5692 185.98C70.1567 175.447 70.4706 164.757 72.6679 154.381C83.0264 153.752 93.542 153.123 103.901 154.224C108.923 154.853 113.788 155.796 118.654 156.268C127.129 157.211 135.761 156.739 144.393 156.11" fill="#8B5E3C"/>
<path d="M108.295 44.019C107.981 50.9363 109.707 61.6267 102.958 66.5002C96.2096 71.3737 90.2456 72.7886 82.2412 71.2165C88.3622 76.0901 107.824 101.087 115.671 101.401C130.267 101.873 133.563 79.8631 147.846 83.3218C141.254 75.304 133.877 71.3737 124.774 66.5002C118.81 63.356 118.653 51.7224 118.653 44.4907C116.77 44.9623 115.043 45.4339 113.16 45.9056" fill="#CCEBF0"/>
<path d="M124.774 66.6572C120.537 71.0591 118.81 73.7316 113.474 73.8889C106.725 74.0461 103.116 66.4999 103.116 66.4999C102.017 66.0283 73.9232 64.9278 63.0938 67.6004C64.9771 107.689 62.6229 149.193 67.9591 188.653C101.546 196.985 147.689 190.854 147.689 190.854C150.043 178.12 158.989 104.545 155.222 68.5437C144.236 67.4432 135.447 68.3865 124.774 66.6572Z" fill="#662D91"/>
<path d="M101.86 194.941C93.3845 243.205 64.9769 341.777 62.3088 342.72C62.3088 342.72 53.8336 341.148 51.9502 341.305C52.2641 323.854 70.784 202.488 71.7257 193.998C80.9856 194.627 91.8151 192.583 100.918 194.313" fill="#926492"/>
<path d="M122.263 27.3546C126.344 22.7955 122.106 12.4196 119.281 9.43257C104.685 -5.50247 89.7749 8.96094 89.9319 18.5508C90.0888 27.9835 97.4654 36.0012 102.331 44.1762C102.802 44.1762 103.272 44.1762 103.743 44.1762C100.918 38.9882 99.9766 31.9137 99.5057 26.0969C99.3488 24.9965 102.645 15.4066 112.532 17.4503C117.241 18.3936 118.496 18.0792 122.263 24.3676" fill="#1C4E60"/>
<path d="M123.833 35.8438C126.344 37.2586 128.541 39.4596 128.541 42.2894C128.541 45.2764 126.972 48.1062 124.304 49.5211C122.263 50.7788 119.752 50.936 117.398 51.0932C114.416 51.2504 111.434 51.4076 108.609 50.6216C105.784 49.8355 103.116 48.1062 101.703 45.5908C101.075 44.1759 100.761 42.761 100.448 41.1889C100.134 39.6168 99.8198 38.2019 99.5059 36.6298C100.448 36.9442 100.918 38.0447 101.389 38.8308C102.645 40.7173 110.806 43.3899 119.281 42.1322C122.42 41.6606 124.931 37.7303 123.833 35.8438Z" fill="#1C4E60"/>
<path d="M260.848 61.4696C260.063 64.4566 258.651 67.2864 256.61 69.4873C255.982 70.1161 255.355 70.9022 254.413 71.2166C253.628 71.531 252.53 71.531 251.745 71.0594C250.803 70.2734 250.646 69.0157 250.489 67.758C250.489 66.3431 250.489 64.9282 250.489 63.5133C250.489 62.8845 250.489 62.2556 250.803 61.6268C251.588 60.0547 253.628 59.7402 255.355 59.7402C256.453 59.7402 257.395 59.7402 258.494 59.7402C258.964 59.7402 259.592 59.7402 260.063 60.0547C260.534 60.3691 260.848 60.9979 260.534 61.4696" fill="#CCEBF0"/>
<path d="M266.811 119.166C261.475 122.939 255.354 125.769 248.762 125.769C244.054 125.769 239.659 124.354 235.579 122.153C232.754 120.581 230.243 118.694 227.731 116.808C223.965 113.978 219.099 113.349 214.391 113.349C213.763 113.349 213.763 114.292 214.391 114.292C218.158 114.292 222.238 114.607 225.691 116.493C226.633 116.965 227.417 117.751 228.202 118.38C231.027 120.581 234.009 122.625 237.305 124.039C247.664 128.756 258.336 126.555 267.282 120.109C267.753 119.638 267.282 118.852 266.811 119.166Z" fill="#1C4E60"/>
<path d="M264.615 140.704C254.414 143.691 243.27 143.534 233.696 138.503C229.459 136.302 225.535 133.315 221.768 130.328C218.158 127.498 214.078 124.04 209.526 123.096C208.899 122.939 208.742 123.882 209.369 123.882C214.392 124.983 218.786 129.07 222.71 132.057C226.791 135.202 231.028 138.346 235.737 140.389C244.997 144.477 255.512 144.32 264.929 141.49C265.4 141.49 265.086 140.547 264.615 140.704Z" fill="#1C4E60"/>
<path d="M232.754 113.349C231.499 113.663 230.086 113.821 228.831 114.135C227.575 114.292 226.476 114.764 225.378 115.393C224.907 115.707 225.378 116.493 225.848 116.179C226.947 115.55 228.046 115.236 229.301 115.078C230.557 114.921 231.813 114.607 233.225 114.45C233.539 114.135 233.225 113.192 232.754 113.349Z" fill="#1C4E60"/>
<path d="M178.136 140.389C179.863 141.647 182.374 142.276 184.414 142.747C188.181 143.691 192.105 144.005 196.028 143.848C206.387 143.533 216.118 139.76 223.337 132.057C223.651 131.585 223.18 130.957 222.709 131.428C215.647 138.974 205.916 142.747 195.557 142.905C191.791 142.905 188.181 142.59 184.571 141.804C182.531 141.333 180.176 140.861 178.607 139.603C178.136 139.289 177.822 140.075 178.136 140.389Z" fill="#1C4E60"/>
<path d="M195.401 124.668C190.849 126.083 185.513 123.568 181.903 120.738C178.45 117.908 175.939 113.192 177.823 108.79C177.98 108.318 177.352 107.847 177.038 108.318C174.998 113.035 177.352 118.065 180.962 121.21C184.728 124.354 190.535 127.027 195.558 125.612C196.186 125.297 195.872 124.511 195.401 124.668Z" fill="#1C4E60"/>
<path d="M267.597 63.6703C262.575 78.1337 262.575 94.012 267.754 108.318C267.911 108.79 268.853 108.633 268.539 108.161C263.516 93.8548 263.359 78.1337 268.382 63.9847C268.696 63.5131 267.754 63.1987 267.597 63.6703Z" fill="#1C4E60"/>
<path d="M175.939 63.1988C178.607 70.4305 180.49 77.9766 181.118 85.5228C181.746 92.4401 181.746 99.9862 177.822 106.117C177.508 106.589 178.293 107.061 178.607 106.589C182.53 100.615 182.687 93.2261 182.06 86.3088C181.432 78.2911 179.548 70.4305 176.723 63.0416C176.566 62.4128 175.782 62.7272 175.939 63.1988Z" fill="#1C4E60"/>
<path d="M237.149 61.7837C236.364 62.4126 235.893 63.3558 235.109 63.9847C234.481 64.7707 233.696 65.2424 232.754 65.8712C231.028 66.9717 228.988 67.6005 226.947 67.6005C222.867 67.6005 219.1 65.3996 217.06 61.9409C216.746 61.4693 215.961 61.9409 216.275 62.4126C218.472 66.0284 222.396 68.3866 226.633 68.5438C228.674 68.5438 230.871 68.0722 232.754 66.9717C233.696 66.5001 234.481 65.8712 235.266 65.0852C236.207 64.2991 236.835 63.1986 237.777 62.4126C238.248 61.9409 237.62 61.3121 237.149 61.7837Z" fill="#1C4E60"/>
<path d="M226.162 68.3869C225.221 77.0335 224.593 85.6801 224.122 94.1695C224.122 94.7984 224.907 94.7984 225.064 94.1695C225.535 85.5229 226.162 76.8763 227.104 68.3869C227.104 67.9153 226.162 67.9153 226.162 68.3869Z" fill="#1C4E60"/>
<path d="M225.848 94.6411C224.907 94.4839 223.965 94.4839 223.18 94.4839C223.023 94.4839 222.866 94.7983 222.866 94.9555C223.023 95.27 223.18 95.27 223.337 95.27H223.494H223.651C223.808 95.27 223.808 95.27 223.965 95.27C224.122 95.27 224.436 95.27 224.593 95.27C224.75 95.27 225.063 95.27 225.22 95.27H225.377C225.534 95.27 225.534 95.27 225.691 95.27C225.848 95.27 226.162 95.27 226.162 94.9555C226.162 94.9555 226.005 94.6411 225.848 94.6411Z" fill="#1C4E60"/>
<path d="M233.854 25.311C233.54 26.0971 232.755 26.5687 231.97 26.5687C231.028 26.5687 230.244 26.0971 229.93 25.311C229.773 25.1538 229.459 24.9966 229.302 25.1538C229.145 25.311 228.988 25.4682 229.145 25.7827C229.616 26.8831 230.872 27.512 231.97 27.512C233.226 27.512 234.167 26.7259 234.638 25.6254C234.795 25.4682 234.481 25.1538 234.324 25.1538C234.167 24.8394 233.854 24.9966 233.854 25.311Z" fill="#1C4E60"/>
<path d="M224.122 24.8394C223.965 25.7826 223.181 26.5687 222.239 26.5687C221.297 26.5687 220.356 25.9398 220.042 25.1538C219.885 24.6821 218.943 24.8394 219.257 25.311C219.728 26.5687 220.983 27.5119 222.239 27.5119C223.495 27.3547 224.75 26.4115 225.064 25.1538C225.064 24.5249 224.279 24.2105 224.122 24.8394Z" fill="#1C4E60"/>
<path d="M230.086 33.8003C227.418 34.9008 224.279 34.4291 221.925 32.6998C221.454 32.3854 220.983 33.1714 221.454 33.4859C223.965 35.3724 227.575 35.844 230.557 34.5863C231.028 34.4291 230.557 33.6431 230.086 33.8003Z" fill="#1C4E60"/>
<path d="M235.893 10.2185C234.794 7.70314 231.341 7.23151 228.987 7.70314C227.575 8.01756 226.319 8.96083 224.749 8.96083C223.337 8.96083 221.767 8.48919 220.826 7.38872C220.355 6.91708 219.727 7.54593 220.198 8.01756C222.081 9.90409 224.749 10.2185 227.104 9.27525C228.516 8.6464 229.929 8.17477 231.498 8.33198C232.911 8.48919 234.637 9.11804 235.265 10.5329C235.265 11.1618 236.05 10.6901 235.893 10.2185Z" fill="#1C4E60"/>
<path d="M233.695 14.6209C232.597 12.8916 230.713 12.1055 228.673 12.5772C226.79 12.8916 223.651 14.6209 222.238 12.42C221.924 11.9483 221.14 12.42 221.454 12.8916C222.709 14.7781 225.063 14.6209 226.947 13.9921C228.045 13.6777 229.301 13.206 230.557 13.5204C231.655 13.6777 232.44 14.3065 233.068 15.2498C233.225 15.5642 234.009 15.0926 233.695 14.6209Z" fill="#1C4E60"/>
<path d="M253.157 168.059C252.843 169.002 252.529 169.945 252.058 170.888C251.901 171.046 252.215 171.36 252.372 171.36C252.686 171.36 252.843 171.36 252.843 171.046C253.157 170.102 253.471 169.159 253.942 168.216C254.099 168.059 253.785 167.744 253.628 167.744C253.471 167.744 253.314 167.901 253.157 168.059Z" fill="#1C4E60"/>
<path d="M251.588 174.662C251.274 175.605 251.117 176.548 251.117 177.491C251.117 177.649 251.274 177.963 251.588 177.963C251.745 177.963 252.059 177.806 252.059 177.491C252.059 177.334 252.059 177.02 252.059 176.863C252.059 176.705 252.059 176.705 252.059 176.548C252.059 176.391 252.059 176.391 252.059 176.234C252.059 175.762 252.216 175.29 252.373 174.976C252.53 174.819 252.216 174.504 252.059 174.504C251.902 174.19 251.588 174.347 251.588 174.662Z" fill="#1C4E60"/>
<path d="M250.489 180.635C250.489 180.95 250.489 181.421 250.489 181.736C250.489 181.893 250.489 181.893 250.489 182.05C250.489 181.893 250.489 182.05 250.489 182.05V182.207C250.489 182.365 250.489 182.522 250.332 182.679C250.332 182.836 250.332 183.151 250.646 183.151C250.803 183.151 251.117 183.151 251.117 182.836C251.274 182.05 251.431 181.264 251.274 180.478C251.274 180.321 251.117 180.006 250.803 180.006C250.803 180.321 250.489 180.478 250.489 180.635Z" fill="#1C4E60"/>
<path d="M250.018 186.295C249.861 187.238 249.861 188.181 249.704 189.125C249.704 189.282 249.861 189.596 250.175 189.596C250.489 189.596 250.646 189.439 250.646 189.125C250.803 188.181 250.803 187.238 250.96 186.295C250.96 186.138 250.803 185.823 250.489 185.823C250.332 185.823 250.175 185.98 250.018 186.295Z" fill="#1C4E60"/>
<path d="M249.861 192.426C249.861 193.369 249.861 194.156 249.861 195.099C249.861 195.256 250.018 195.57 250.332 195.57C250.646 195.57 250.803 195.413 250.803 195.099C250.803 194.156 250.803 193.369 250.803 192.426C250.803 192.269 250.646 191.955 250.332 191.955C250.018 191.955 249.861 192.269 249.861 192.426Z" fill="#1C4E60"/>
<path d="M249.704 198.4C249.704 199.186 249.704 199.815 249.704 200.601C249.704 200.758 249.861 201.073 250.175 201.073C250.489 201.073 250.646 200.916 250.646 200.601C250.646 199.815 250.646 199.186 250.646 198.4C250.646 198.243 250.489 197.929 250.175 197.929C249.861 197.929 249.704 198.243 249.704 198.4Z" fill="#1C4E60"/>
<path d="M250.803 204.374C250.803 205.16 250.646 205.946 250.646 206.732L250.803 204.374Z" fill="#662D91"/>
<path d="M250.018 211.291C249.861 212.077 249.861 212.864 249.704 213.65C249.704 213.807 249.861 214.121 250.175 214.121C250.489 214.121 250.646 213.964 250.646 213.65C250.803 212.864 250.803 212.077 250.96 211.291C250.96 211.134 250.803 210.82 250.489 210.82C250.332 210.82 250.175 210.977 250.018 211.291Z" fill="#1C4E60"/>
<path d="M249.862 217.266C249.862 218.209 249.705 218.995 249.548 219.781C249.548 219.938 249.548 220.253 249.862 220.253C250.019 220.253 250.333 220.253 250.333 219.938C250.49 218.995 250.646 218.052 250.646 217.108C250.646 216.951 250.49 216.637 250.176 216.637C250.176 216.794 249.862 216.951 249.862 217.266Z" fill="#1C4E60"/>
<path d="M249.548 223.24C249.548 224.026 249.548 224.655 249.548 225.441C249.548 225.598 249.705 225.912 250.019 225.912C250.333 225.912 250.49 225.755 250.49 225.441C250.49 224.655 250.49 224.026 250.49 223.24C250.49 223.082 250.333 222.768 250.019 222.768C249.705 222.768 249.548 222.925 249.548 223.24Z" fill="#1C4E60"/>
<path d="M249.548 228.899C249.548 230 249.548 231.1 249.548 232.201C249.548 232.829 250.49 232.829 250.49 232.201C250.49 231.1 250.49 230 250.49 228.899C250.49 228.428 249.548 228.428 249.548 228.899Z" fill="#1C4E60"/>
<path d="M249.861 235.816C249.705 236.917 249.548 237.86 249.391 238.961C249.391 239.275 249.548 239.432 249.861 239.432C250.175 239.432 250.332 239.275 250.332 238.961C250.489 237.86 250.646 236.917 250.803 235.816C250.803 235.502 250.646 235.345 250.332 235.345C250.018 235.345 249.861 235.502 249.861 235.816Z" fill="#1C4E60"/>
<path d="M249.548 242.262C249.548 243.048 249.548 243.677 249.548 244.463C249.548 244.62 249.705 244.935 250.019 244.935C250.333 244.935 250.49 244.778 250.49 244.463C250.49 243.677 250.49 243.048 250.49 242.262C250.49 242.105 250.333 241.791 250.019 241.791C249.862 241.791 249.548 241.948 249.548 242.262Z" fill="#1C4E60"/>
<path d="M249.862 248.394C249.705 249.18 249.705 249.808 249.548 250.594C249.548 250.752 249.705 251.066 250.019 251.066C250.333 251.066 250.49 250.909 250.49 250.594C250.647 249.808 250.647 249.18 250.803 248.394C250.803 248.236 250.647 247.922 250.333 247.922C250.019 248.079 249.862 248.236 249.862 248.394Z" fill="#1C4E60"/>
<path d="M249.547 254.839C249.39 255.468 249.39 256.096 249.233 256.883C249.233 257.04 249.233 257.197 249.39 257.197C249.39 257.197 249.547 257.354 249.704 257.354C249.861 257.354 249.861 257.354 250.018 257.197C250.175 257.04 250.175 257.04 250.175 256.883C250.332 256.254 250.332 255.625 250.489 254.839C250.489 254.682 250.489 254.524 250.332 254.524C250.332 254.524 250.175 254.367 250.018 254.367C249.861 254.367 249.861 254.367 249.704 254.524C249.547 254.682 249.547 254.682 249.547 254.839Z" fill="#1C4E60"/>
<path d="M249.234 259.712C249.234 260.656 249.077 261.442 249.077 262.385C249.077 262.542 249.234 262.857 249.548 262.857C249.862 262.857 250.019 262.699 250.019 262.385C250.019 261.442 250.176 260.656 250.176 259.712C250.176 259.555 250.019 259.241 249.705 259.241C249.391 259.241 249.234 259.555 249.234 259.712Z" fill="#1C4E60"/>
<path d="M185.356 167.273C185.199 168.53 185.356 169.945 185.513 171.203C185.513 171.36 185.827 171.517 185.984 171.517C186.298 171.517 186.298 171.203 186.298 171.046C186.141 169.788 185.984 168.687 186.141 167.43C186.141 167.115 185.984 166.958 185.67 166.958C185.513 166.801 185.356 166.958 185.356 167.273Z" fill="#1C4E60"/>
<path d="M186.454 174.19C186.611 175.29 186.611 176.391 186.768 177.491C186.768 177.806 186.925 177.963 187.239 177.963C187.396 177.963 187.71 177.806 187.71 177.491C187.553 176.391 187.553 175.29 187.396 174.19C187.396 173.875 187.239 173.718 186.925 173.718C186.611 173.875 186.454 174.033 186.454 174.19Z" fill="#1C4E60"/>
<path d="M187.396 182.679C187.396 183.622 187.396 184.566 187.239 185.509C187.239 185.666 187.239 185.981 187.553 185.981C187.71 185.981 188.024 185.981 188.024 185.666C188.181 184.723 188.338 183.622 188.338 182.679C188.338 182.522 188.181 182.208 187.867 182.208C187.553 182.208 187.396 182.365 187.396 182.679Z" fill="#1C4E60"/>
<path d="M187.239 189.125C187.239 189.754 187.239 190.383 187.239 191.169C187.239 191.326 187.396 191.64 187.71 191.64C188.024 191.64 188.181 191.483 188.181 191.169C188.181 190.54 188.181 189.911 188.181 189.125C188.181 188.968 188.024 188.653 187.71 188.653C187.396 188.653 187.239 188.811 187.239 189.125Z" fill="#1C4E60"/>
<path d="M188.024 194.312C188.181 195.256 188.024 196.199 187.867 197.142C187.867 197.299 187.867 197.614 188.181 197.614C188.338 197.614 188.652 197.614 188.652 197.299C188.809 196.356 188.966 195.256 188.809 194.312C188.809 194.155 188.652 193.841 188.338 193.841C188.181 193.998 187.867 194.155 188.024 194.312Z" fill="#1C4E60"/>
<path d="M187.867 201.544C187.867 202.488 187.867 203.431 187.867 204.374C187.867 204.531 188.024 204.846 188.338 204.846C188.652 204.846 188.809 204.689 188.809 204.374C188.809 203.431 188.809 202.488 188.809 201.544C188.809 201.387 188.652 201.073 188.338 201.073C188.024 201.073 187.867 201.23 187.867 201.544Z" fill="#1C4E60"/>
<path d="M188.181 207.833C188.181 208.933 188.181 210.034 188.181 211.134C188.181 211.763 189.122 211.763 189.122 211.134C189.122 210.034 189.122 208.933 189.122 207.833C188.965 207.361 188.181 207.361 188.181 207.833Z" fill="#1C4E60"/>
<path d="M188.181 216.322C188.181 217.266 188.181 218.052 188.181 218.995C188.181 219.152 188.338 219.466 188.652 219.466C188.965 219.466 189.122 219.309 189.122 218.995C189.122 218.052 189.122 217.266 189.122 216.322C189.122 216.165 188.965 215.851 188.652 215.851C188.495 215.851 188.181 216.008 188.181 216.322Z" fill="#1C4E60"/>
<path d="M188.338 223.082C188.024 224.026 188.024 224.812 188.181 225.755C188.181 225.912 188.495 226.069 188.652 226.069C188.966 225.912 188.966 225.755 188.966 225.598C188.966 225.598 188.966 225.598 188.966 225.441V225.283C188.966 225.126 188.966 225.126 188.966 224.969C188.966 224.812 188.966 224.497 188.966 224.34C188.966 224.183 188.966 224.183 188.966 224.026C188.966 224.026 188.966 224.026 188.966 223.869V223.711C188.966 223.554 188.966 223.397 189.123 223.082C189.123 222.925 189.123 222.611 188.809 222.611C188.652 222.611 188.338 222.768 188.338 223.082Z" fill="#1C4E60"/>
<path d="M188.023 230.629C188.023 231.886 188.023 232.987 188.023 234.244C188.023 234.873 188.965 234.873 188.965 234.244C188.965 232.987 188.965 231.886 188.965 230.629C188.808 230.157 188.023 230.157 188.023 230.629Z" fill="#1C4E60"/>
<path d="M188.023 237.389C188.023 238.489 188.023 239.432 188.023 240.533C188.023 240.847 188.18 241.004 188.494 241.004C188.808 241.004 188.965 240.847 188.965 240.533C188.965 239.432 188.965 238.489 188.965 237.389C188.965 237.074 188.808 236.917 188.494 236.917C188.337 236.917 188.023 237.074 188.023 237.389Z" fill="#1C4E60"/>
<path d="M188.181 244.935C188.495 246.192 188.495 247.45 188.495 248.865C188.495 249.494 189.436 249.494 189.436 248.865C189.436 247.45 189.279 246.192 189.122 244.777C189.122 244.62 188.808 244.463 188.652 244.463C188.181 244.463 188.181 244.777 188.181 244.935Z" fill="#1C4E60"/>
<path d="M188.966 252.166C188.966 253.267 188.809 254.21 188.809 255.311C188.809 255.625 188.966 255.782 189.279 255.782C189.593 255.782 189.75 255.625 189.75 255.311C189.75 254.21 189.907 253.267 189.907 252.166C189.907 251.852 189.75 251.695 189.436 251.695C189.122 251.695 188.966 251.852 188.966 252.166Z" fill="#1C4E60"/>
<path d="M189.279 258.612C189.122 259.398 188.966 260.027 188.809 260.813C188.809 260.97 188.809 261.284 189.122 261.284C189.279 261.284 189.593 261.284 189.593 260.97C189.75 260.184 189.907 259.555 190.064 258.769C190.064 258.612 190.064 258.297 189.75 258.297C189.593 258.297 189.436 258.455 189.279 258.612Z" fill="#1C4E60"/>
<path d="M188.965 262.856C188.808 263.642 188.808 264.429 189.122 265.057C189.122 265.215 189.436 265.372 189.593 265.372C189.75 265.372 189.907 265.057 189.907 264.9C189.907 264.743 189.75 264.586 189.75 264.429C189.75 264.271 189.75 264.271 189.75 264.114C189.75 264.271 189.75 264.114 189.75 264.114V263.957C189.75 263.8 189.75 263.642 189.75 263.485C189.75 263.328 189.75 263.328 189.75 263.171C189.75 263.171 189.75 263.171 189.75 263.014C189.75 263.171 189.75 263.014 189.75 263.014C189.75 262.856 189.75 262.542 189.436 262.542C189.279 262.542 188.965 262.699 188.965 262.856Z" fill="#1C4E60"/>
<path d="M121.007 112.248C121.635 112.248 121.635 111.305 121.007 111.305C120.379 111.462 120.379 112.248 121.007 112.248Z" fill="#1C4E60"/>
<path d="M127.441 67.4433C127.441 68.5438 126.814 69.6443 126.029 70.4303C125.872 70.5875 125.872 70.902 126.029 71.0592C126.186 71.2164 126.5 71.2164 126.657 71.0592C127.755 70.1159 128.226 68.8582 128.383 67.4433C128.383 67.1289 128.226 66.9717 127.912 66.9717C127.755 67.1289 127.441 67.2861 127.441 67.4433Z" fill="#1C4E60"/>
<path d="M124.931 72.3169C124.303 73.2601 123.205 74.0462 122.106 74.3606C121.949 74.5178 121.792 74.675 121.792 74.8323C121.792 74.9895 122.106 75.1467 122.263 75.1467C123.518 74.675 124.774 73.7318 125.559 72.6313C125.716 72.4741 125.559 72.1597 125.402 72.0024C125.245 72.1597 125.088 72.1597 124.931 72.3169Z" fill="#1C4E60"/>
<path d="M120.065 75.7759C118.967 76.2475 117.711 76.5619 116.612 76.4047C116.299 76.4047 116.142 76.5619 116.142 76.8764C116.142 77.1908 116.299 77.348 116.612 77.348C118.025 77.5052 119.281 77.1908 120.536 76.5619C120.693 76.4047 120.85 76.0903 120.693 75.9331C120.536 75.7759 120.222 75.7759 120.065 75.7759Z" fill="#1C4E60"/>
<path d="M114.101 77.1904C113.002 77.6621 111.747 77.6621 110.648 77.3476C110.177 77.1904 109.863 77.9765 110.491 78.1337C111.747 78.4481 113.159 78.4481 114.415 77.9765C114.572 77.8193 114.729 77.6621 114.729 77.5049C114.572 77.3476 114.258 77.1904 114.101 77.1904Z" fill="#1C4E60"/>
<path d="M107.667 76.8759C106.411 76.5615 105.312 76.0899 104.214 75.461C103.743 75.1466 103.272 75.9327 103.743 76.2471C104.842 76.8759 106.097 77.3476 107.353 77.8192C107.98 77.8192 108.137 77.0331 107.667 76.8759Z" fill="#1C4E60"/>
<path d="M102.33 74.0463C101.86 73.2603 101.232 72.6314 100.761 71.8454C100.604 71.6882 100.29 71.531 100.133 71.6882C99.9761 71.8454 99.8192 72.1598 99.9761 72.317C100.447 73.1031 101.075 73.7319 101.546 74.518C101.703 74.6752 102.016 74.8324 102.173 74.6752C102.33 74.518 102.487 74.2035 102.33 74.0463Z" fill="#1C4E60"/>
<path d="M99.6625 70.2732C99.5056 69.0155 99.1917 67.7579 98.7208 66.5002C98.5639 66.3429 98.25 66.1857 98.093 66.343C97.9361 66.5002 97.7792 66.6574 97.9361 66.9718C98.4069 68.0723 98.7208 69.1728 98.8778 70.2732C98.8778 70.5877 99.0347 70.7449 99.3486 70.7449C99.5056 70.7449 99.6625 70.5877 99.6625 70.2732Z" fill="#1C4E60"/>
<path d="M148.002 185.509C147.061 186.138 145.962 186.452 144.863 186.295C144.55 186.295 144.393 186.452 144.393 186.767C144.393 187.081 144.55 187.238 144.863 187.238C146.119 187.238 147.375 186.924 148.473 186.295C148.63 186.138 148.787 185.981 148.63 185.666C148.63 185.509 148.316 185.352 148.002 185.509Z" fill="#1C4E60"/>
<path d="M142.352 187.081C141.096 186.924 139.841 186.924 138.585 186.767C138.271 186.767 138.114 186.924 138.114 187.238C138.114 187.553 138.271 187.71 138.585 187.71C139.841 187.867 141.096 187.867 142.352 188.024C142.666 188.024 142.823 187.867 142.823 187.553C142.823 187.238 142.509 187.081 142.352 187.081Z" fill="#1C4E60"/>
<path d="M135.289 187.081C133.877 187.396 132.307 187.396 130.894 187.081C130.267 186.924 130.11 187.867 130.738 187.867C132.307 188.182 134.033 188.182 135.603 187.867C136.231 187.867 135.917 186.924 135.289 187.081Z" fill="#1C4E60"/>
<path d="M126.814 186.767C125.402 187.081 124.146 187.081 122.734 187.081C122.42 187.081 122.263 187.238 122.263 187.553C122.263 187.867 122.42 188.024 122.734 188.024C124.146 188.181 125.559 188.024 126.971 187.71C127.128 187.71 127.285 187.395 127.285 187.238C127.285 186.924 126.971 186.767 126.814 186.767Z" fill="#1C4E60"/>
<path d="M119.124 188.024C117.868 188.024 116.769 188.024 115.514 188.024C114.886 188.024 114.886 188.968 115.514 188.968C116.769 188.968 117.868 188.968 119.124 188.968C119.751 188.968 119.751 188.024 119.124 188.024Z" fill="#1C4E60"/>
<path d="M112.061 188.811C111.119 188.968 110.177 189.125 109.235 189.125C109.079 189.125 108.765 189.282 108.765 189.597C108.765 189.754 108.922 190.068 109.235 190.068C110.177 189.911 111.119 189.754 112.061 189.754C112.217 189.754 112.531 189.597 112.531 189.282C112.531 189.125 112.374 188.811 112.061 188.811Z" fill="#1C4E60"/>
<path d="M104.371 188.182C103.115 188.182 102.016 188.182 100.761 188.182C100.133 188.182 100.133 189.125 100.761 189.125C102.016 189.125 103.115 189.125 104.371 189.125C104.998 189.125 104.998 188.182 104.371 188.182Z" fill="#1C4E60"/>
<path d="M96.9944 187.867C95.5819 188.024 94.1694 187.867 92.9138 187.552C92.4429 187.395 92.129 188.181 92.7568 188.338C94.1694 188.81 95.5819 188.81 97.1514 188.653C97.4653 188.653 97.6222 188.496 97.6222 188.181C97.4653 188.024 97.3083 187.867 96.9944 187.867Z" fill="#1C4E60"/>
<path d="M89.9315 187.71C88.8329 187.867 87.5773 187.71 86.4787 187.395C86.3217 187.238 86.0078 187.553 86.0078 187.71C86.0078 188.024 86.1648 188.181 86.3217 188.181C87.4203 188.653 88.6759 188.81 89.9315 188.653C90.2454 188.653 90.4024 188.496 90.4024 188.181C90.4024 188.024 90.2454 187.71 89.9315 187.71Z" fill="#1C4E60"/>
<path d="M82.3975 186.138C81.1419 185.98 79.7294 185.823 78.4738 185.666C78.1599 185.666 78.0029 185.823 78.0029 186.138C78.0029 186.452 78.1599 186.609 78.4738 186.609C79.7294 186.766 81.1419 186.924 82.3975 187.081C82.7114 187.081 82.8683 186.924 82.8683 186.609C82.8683 186.295 82.7114 186.138 82.3975 186.138Z" fill="#1C4E60"/>
<path d="M75.3354 185.823C74.3937 185.351 73.2951 185.037 72.1964 185.194C72.0395 185.194 71.7256 185.351 71.7256 185.666C71.7256 185.823 71.8825 186.137 72.1964 186.137C73.1381 186.137 74.0798 186.295 74.8646 186.766C75.0215 186.924 75.3354 186.766 75.4923 186.609C75.6493 186.137 75.6493 185.98 75.3354 185.823Z" fill="#1C4E60"/>
<path d="M69.3714 185.352C68.9005 185.194 68.2727 185.194 67.8019 185.037C67.645 185.037 67.6449 185.037 67.488 185.037C67.3311 185.037 67.3311 185.194 67.3311 185.352C67.3311 185.509 67.331 185.823 67.6449 185.823C68.1158 185.98 68.7436 185.98 69.2144 186.138C69.3714 186.138 69.3714 186.138 69.5283 186.138C69.6853 186.138 69.6853 185.98 69.6853 185.823C69.6853 185.823 69.5283 185.509 69.3714 185.352Z" fill="#1C4E60"/>
<path d="M120.379 26.4113C120.065 27.0401 119.28 27.669 118.653 27.669C117.868 27.669 117.083 27.1973 116.612 26.5685C116.298 26.0969 115.514 26.5685 115.828 27.0401C116.298 27.9834 117.554 28.7695 118.653 28.6122C119.751 28.455 120.85 27.669 121.164 26.7257C121.321 26.5685 121.007 26.2541 120.85 26.2541C120.693 26.0969 120.536 26.2541 120.379 26.4113Z" fill="#1C4E60"/>
<path d="M111.277 28.1407C110.492 30.1845 107.824 30.9705 105.94 29.7128C105.469 29.3984 104.999 30.1845 105.469 30.4989C107.667 32.071 111.12 30.8133 112.061 28.2979C112.218 27.8263 111.433 27.6691 111.277 28.1407Z" fill="#1C4E60"/>
<path d="M119.124 38.202C117.868 38.9881 116.456 39.3025 115.043 38.9881C113.474 38.6737 112.218 37.7304 111.12 36.4727C110.806 36.0011 110.178 36.6299 110.492 37.1015C111.59 38.3592 113.16 39.4597 114.886 39.7741C116.613 40.0885 118.182 39.7741 119.595 38.8309C120.066 38.6737 119.595 37.8876 119.124 38.202Z" fill="#1C4E60"/>
</g>
<defs>
<clipPath id="clip0">
<rect width="288" height="363" fill="white"/>
</clipPath>
</defs>
</svg>
