<svg width="90" height="69" viewBox="0 0 90 69" fill="none" xmlns="http://www.w3.org/2000/svg">
<circle cx="67.5" cy="17.5" r="17.5" fill="#6B007C"/>
<path d="M74.3913 24.336V26H61.6253V24.674L69.1913 17.264C70.1447 16.328 70.786 15.522 71.1153 14.846C71.462 14.1527 71.6353 13.4593 71.6353 12.766C71.6353 11.6913 71.2627 10.8593 70.5173 10.27C69.7893 9.66333 68.7407 9.36 67.3713 9.36C65.2393 9.36 63.584 10.036 62.4053 11.388L61.0793 10.244C61.79 9.412 62.6913 8.77067 63.7833 8.32C64.8927 7.86933 66.1407 7.644 67.5273 7.644C69.382 7.644 70.8467 8.086 71.9213 8.97C73.0133 9.83667 73.5593 11.0327 73.5593 12.558C73.5593 13.494 73.3513 14.3953 72.9353 15.262C72.5193 16.1287 71.7307 17.1253 70.5693 18.252L64.3813 24.336H74.3913Z" fill="white"/>
<path d="M63.3125 26.8125H22.6875C21.8232 26.8125 21.125 27.5107 21.125 28.375V59.625C21.125 60.4893 21.8232 61.1875 22.6875 61.1875H63.3125C64.1768 61.1875 64.875 60.4893 64.875 59.625V28.375C64.875 27.5107 64.1768 26.8125 63.3125 26.8125ZM61.3594 32.2227V57.6719H24.6406V32.2227L23.293 31.1729L25.2119 28.707L27.3018 30.333H58.7031L60.793 28.707L62.7119 31.1729L61.3594 32.2227ZM58.7031 30.3281L43 42.5352L27.2969 30.3281L25.207 28.7021L23.2881 31.168L24.6357 32.2178L41.3154 45.1865C41.7951 45.5592 42.3852 45.7615 42.9927 45.7615C43.6001 45.7615 44.1902 45.5592 44.6699 45.1865L61.3594 32.2227L62.707 31.1729L60.7881 28.707L58.7031 30.3281Z" fill="#6B007C"/>
</svg>
