<svg width="103" height="76" viewBox="0 0 103 76" fill="none" xmlns="http://www.w3.org/2000/svg">
<ellipse cx="78" cy="24.5" rx="25" ry="24.5" fill="#6B007C"/>
<path d="M84.3913 31.336V33H71.6253V31.674L79.1913 24.264C80.1447 23.328 80.786 22.522 81.1153 21.846C81.462 21.1527 81.6353 20.4593 81.6353 19.766C81.6353 18.6913 81.2627 17.8593 80.5173 17.27C79.7893 16.6633 78.7407 16.36 77.3713 16.36C75.2393 16.36 73.584 17.036 72.4053 18.388L71.0793 17.244C71.79 16.412 72.6913 15.7707 73.7833 15.32C74.8927 14.8693 76.1407 14.644 77.5273 14.644C79.382 14.644 80.8467 15.086 81.9213 15.97C83.0133 16.8367 83.5593 18.0327 83.5593 19.558C83.5593 20.494 83.3513 21.3953 82.9353 22.262C82.5193 23.1287 81.7307 24.1253 80.5693 25.252L74.3813 31.336H84.3913Z" fill="white"/>
<path d="M73.3125 33.8125H32.6875C31.8232 33.8125 31.125 34.5107 31.125 35.375V66.625C31.125 67.4893 31.8232 68.1875 32.6875 68.1875H73.3125C74.1768 68.1875 74.875 67.4893 74.875 66.625V35.375C74.875 34.5107 74.1768 33.8125 73.3125 33.8125ZM71.3594 39.2227V64.6719H34.6406V39.2227L33.293 38.1729L35.2119 35.707L37.3018 37.333H68.7031L70.793 35.707L72.7119 38.1729L71.3594 39.2227ZM68.7031 37.3281L53 49.5352L37.2969 37.3281L35.207 35.7021L33.2881 38.168L34.6357 39.2178L51.3154 52.1865C51.7951 52.5592 52.3852 52.7615 52.9927 52.7615C53.6001 52.7615 54.1902 52.5592 54.6699 52.1865L71.3594 39.2227L72.707 38.1729L70.7881 35.707L68.7031 37.3281Z" fill="#6B007C"/>
</svg>
