<svg width="291" height="243" viewBox="0 0 291 243" fill="none" xmlns="http://www.w3.org/2000/svg">
<path d="M273.538 103.299C275.918 102.326 278.406 101.353 280.786 100.379C281.435 100.163 282.3 99.8388 282.841 100.271C283.166 100.488 282.192 101.353 281.651 101.785C281.11 102.11 280.461 102.434 280.028 102.867C279.92 102.975 279.812 103.191 279.812 103.408C279.812 103.516 279.92 103.516 279.92 103.624C280.353 103.948 280.786 104.056 281.327 104.056C283.815 104.273 286.303 104.597 288.791 105.138C289.115 105.246 289.332 105.246 289.656 105.354C289.873 105.462 289.981 105.462 290.089 105.787C290.089 105.895 289.981 106.111 289.873 106.219C289.656 106.436 289.332 106.436 289.007 106.436C287.817 106.436 283.815 106.436 283.815 106.652C283.815 106.868 288.899 106.76 290.522 107.517C290.738 107.625 290.846 107.733 290.738 107.95C290.738 108.166 290.522 108.166 290.414 108.274C288.899 108.707 283.815 108.815 284.031 108.923C285.437 109.788 288.466 108.815 289.981 109.788C290.197 109.896 290.414 110.112 290.414 110.329C290.305 111.302 283.49 110.869 283.707 111.086C283.923 111.41 287.385 112.059 288.25 112.6C288.466 112.708 288.575 112.924 288.466 113.14C288.466 113.357 288.25 113.465 288.034 113.465C287.817 113.465 287.601 113.573 287.276 113.573C282.3 113.681 277.216 113.465 272.456 111.951C272.348 111.951 272.24 111.843 272.131 111.735C272.023 111.626 272.023 111.518 272.023 111.41C271.699 109.896 271.699 108.166 272.24 106.652C272.672 105.462 273.321 104.165 273.105 102.867" fill="#B1BFE2"/>
<path d="M270.617 231.991C274.079 232.207 277.108 234.262 280.028 236.208C283.166 238.371 286.411 240.534 289.548 242.697C289.548 241.94 289.224 241.183 288.899 240.534C286.844 236.1 284.788 231.666 282.625 227.341C282.408 226.8 282.192 226.367 281.759 225.935C281.327 225.502 280.569 225.286 280.028 225.178C277.432 224.529 274.836 223.772 272.24 223.123C271.374 225.61 270.401 228.098 269.535 230.585" fill="#4097D2"/>
<path d="M19.967 168.726C24.6187 166.564 29.4867 165.158 34.4629 164.401C35.2201 164.292 35.9774 164.184 36.7346 163.86C37.3837 163.535 38.0328 162.995 38.6818 163.211C39.2227 163.319 39.6555 163.86 39.98 164.401C40.6291 165.482 41.3863 166.564 42.0354 167.645C42.1436 167.861 42.3599 168.078 42.3599 168.294V168.402H42.4681C44.7398 168.294 70.8108 176.945 76.1116 179.216C85.4149 183.218 94.2856 186.895 104.238 187.111C104.671 187.111 105.103 187.111 105.428 186.895C105.861 186.57 105.861 185.921 105.861 185.381C105.752 178.459 102.723 171.754 99.3699 165.807C95.9082 159.75 91.9056 154.019 89.4175 147.53C86.9294 141.041 85.9558 133.471 88.8766 127.199L88.6603 125.252C92.8792 127.848 98.18 127.307 103.048 126.55C104.995 126.226 106.942 126.009 108.998 125.685C109.755 125.577 110.512 125.469 111.053 126.009C111.486 126.334 111.594 126.875 111.81 127.415C112.676 130.552 143.615 195.438 116.462 206.685C114.515 207.442 112.46 207.875 110.512 208.091C94.0692 209.929 79.7897 203.333 64.7529 195.762C62.3729 194.573 45.8216 180.622 40.0882 174.891C37.7082 173.16 34.6792 173.052 31.7584 172.728C28.0804 172.187 24.6187 170.997 21.0488 169.808C20.3997 169.592 19.8588 169.267 19.967 168.726Z" fill="#C54133"/>
<path d="M90.0666 65.6649C90.8238 64.259 91.3647 62.6368 91.0402 61.1228C90.7156 59.6088 89.4175 58.0948 87.903 57.9866C86.713 57.8785 85.4149 58.4192 84.4413 57.7703C82.4941 56.6889 83.684 53.012 81.7368 51.8224C80.2223 50.9572 78.4915 52.4713 76.7606 52.255C75.3543 52.0387 74.3807 50.8491 73.8398 49.5514C73.2989 48.3618 72.758 47.0641 71.568 46.6315C69.2963 45.8745 67.5654 49.2269 65.1855 49.3351C62.5892 49.3351 61.5074 45.7663 58.9112 45.2256C57.2885 44.9012 55.6658 45.9826 54.584 47.2803C53.1777 48.7944 52.2041 50.741 52.2041 52.7957C52.3123 54.8504 53.7186 56.9052 55.774 57.1215C57.7212 57.3378 59.7766 55.8237 61.7238 56.3645C63.5628 56.9052 64.4283 59.0681 64.7528 60.9065C65.1855 62.745 65.6182 64.9079 67.2409 65.9893C68.539 66.8544 70.2699 66.6382 71.8926 66.6382C73.5153 66.53 75.3543 66.7463 76.2197 68.044C76.8688 68.9092 76.8688 69.9906 77.3015 70.8558C77.7342 71.8291 78.816 72.6942 79.6814 72.2617C80.1141 72.0454 80.4387 71.6128 80.8714 71.5046C81.7368 71.3965 82.1695 72.3698 82.8186 72.9105C84.1167 73.8838 86.064 72.8024 87.1457 71.6128C88.6602 69.8825 89.6339 67.7196 90.0666 65.3404" fill="#1C4E60"/>
<path d="M83.5758 61.123C82.9267 60.9067 82.0613 61.123 81.5204 61.5556C80.5468 62.3126 80.0059 63.6103 80.0059 64.7999C80.0059 66.0976 80.4386 67.2872 80.8713 68.4768C81.6285 70.2071 82.6021 72.0456 84.4412 72.5863C86.0639 73.0189 87.7947 72.2619 88.7683 70.9641C89.7419 69.6664 89.9583 67.8279 89.6337 66.3139C89.3092 64.6917 88.4438 63.2859 87.362 61.9881C86.7129 61.2311 85.9557 60.4741 84.9821 60.4741C84.1166 60.4741 83.3594 60.9067 82.7103 61.4474" fill="#EE614A"/>
<path d="M85.6314 72.262C86.2805 74.6412 87.0377 78.1018 86.8214 79.8321C88.0113 79.3995 90.0667 79.9402 91.0403 79.0751C89.7422 76.5878 89.2013 72.9109 88.2277 70.0991C87.5786 71.1806 86.605 71.7213 85.415 72.1539" fill="#EE614A"/>
<path d="M81.3044 68.8011C80.9799 68.6929 80.5472 68.9092 80.439 69.2337C80.2226 69.5581 80.2226 69.9907 80.3308 70.3151C80.439 70.5314 80.5472 70.8558 80.6554 70.964C80.9799 71.1803 81.3044 71.2884 81.7371 71.1803C82.0617 71.0721 82.3862 70.964 82.7107 70.7477C82.3862 70.0988 82.0617 69.4499 81.629 68.8011" fill="#EE614A"/>
<path d="M88.3354 61.123C88.9845 61.7718 88.8763 62.9614 88.2272 63.6103C87.5782 64.2592 86.7127 64.5836 85.8473 64.908C84.6574 65.3406 83.5756 65.665 82.3856 66.0976C81.7365 66.3139 80.9793 66.5302 80.4384 66.9628C79.8975 67.3953 79.4648 68.0442 79.4648 68.8012C78.8157 67.2872 78.0585 65.7732 78.0585 64.2592C77.9503 62.637 78.5994 60.9067 80.0057 60.1497C80.3302 59.9334 80.7629 59.8253 81.1956 59.7171C82.602 59.3927 84.0083 59.1764 85.4146 59.5008C86.8209 59.8253 88.1191 60.6904 88.66 61.88" fill="#1C4E60"/>
<path d="M2.22591 175.648C6.87758 173.485 11.7456 172.079 16.7218 171.322C17.4791 171.214 18.2363 171.106 18.9936 170.781C19.6426 170.457 20.2917 169.916 20.9408 170.132C21.4817 170.24 21.9144 170.781 22.2389 171.322C22.888 172.403 23.6452 173.485 24.2943 174.566C24.4025 174.782 24.6188 174.999 24.6188 175.215V175.323H24.727C26.9988 175.215 52.3125 183.001 59.885 185.056C69.5129 187.652 79.898 191.869 80.2226 191.653C80.6553 191.328 80.0062 186.462 80.0062 185.921C79.898 179 84.8742 178.784 81.5207 172.728C78.059 166.672 74.0564 160.94 71.5683 154.451C69.0802 147.963 68.1066 140.393 71.0274 134.12L73.9482 132.498C78.1672 135.094 80.3307 134.228 85.0906 133.471C87.0378 133.147 88.985 132.931 91.0404 132.606C91.7977 132.498 92.5549 132.39 93.0958 132.931C93.5285 133.255 93.6367 133.796 93.8531 134.337C94.7185 137.473 125.658 202.359 98.5047 213.606C96.5575 214.363 94.5021 214.796 92.5549 215.012C76.1118 216.851 36.9512 198.682 23.5371 182.893C21.1571 181.163 16.7218 179.973 13.801 179.541C10.1229 179 6.66123 177.81 3.09134 176.621C2.65862 176.405 2.11773 176.08 2.22591 175.648Z" fill="#EE614A"/>
<path d="M24.402 174.134C22.6712 174.242 21.0485 174.458 19.3177 174.566C16.9377 174.783 14.4496 174.999 12.5024 176.297C11.0961 177.27 9.90613 178.784 8.17527 179C7.30985 179.108 6.33624 178.892 5.47081 178.568C3.84814 178.027 2.33364 177.594 0.710962 177.054C0.494605 176.946 0.278248 176.946 0.17007 176.729C-0.370822 176.189 0.494605 175.323 1.14368 175.107C7.63438 172.62 14.666 171.646 21.2649 169.484C21.6976 169.375 22.2385 169.159 22.6712 169.267C23.5366 169.484 24.0775 170.349 24.2939 171.322C24.5102 172.187 24.5102 173.16 24.7266 174.026" fill="#1C4E60"/>
<path d="M42.0358 166.455C40.305 166.563 38.6823 166.78 36.9514 166.888C34.5715 167.104 32.0834 167.32 30.1362 168.618C28.7299 169.591 27.5399 170.997 25.8091 171.322C24.9436 171.43 23.97 171.214 23.1046 170.889C21.4819 170.457 19.9674 169.916 18.3448 169.483C18.1284 169.375 17.912 169.375 17.8039 169.159C17.263 168.618 18.1284 167.861 18.7775 167.537C25.3763 165.158 32.2998 164.076 38.8987 161.913C39.3314 161.805 39.8723 161.589 40.305 161.697C41.1704 161.913 41.7113 162.778 41.8195 163.644C41.9277 164.509 42.0358 165.482 42.2522 166.239" fill="#1C4E60"/>
<path d="M116.462 123.63C125.441 138.446 125.766 150.126 128.578 166.996C129.119 170.24 131.391 176.621 133.771 179C118.518 185.489 109.539 187.868 92.8793 188.625C87.3622 188.841 69.08 186.462 67.1328 184.191C71.3518 158.236 63.4547 143.529 72.4336 129.686C72.6499 129.254 72.8663 128.713 73.1908 128.497C73.5153 128.28 73.9481 128.172 74.3808 128.064C85.9559 125.793 97.7473 124.495 109.539 123.955C111.486 123.955 114.623 122.981 116.462 123.63Z" fill="#662D91"/>
<path d="M90.4994 77.2362C90.283 78.1014 89.5258 78.8584 88.5522 78.9666C87.6868 79.0747 86.7132 78.6421 86.2804 77.777C82.6024 78.6421 79.1407 80.2643 75.679 81.9946C74.1645 82.7516 72.5418 83.6168 71.6764 85.2389C71.1355 86.3204 71.1355 87.5099 71.0273 88.8077C70.8109 96.3778 70.7027 104.056 70.4864 111.626C70.3782 114.87 67.1329 131.416 67.3492 131.957C70.7028 138.013 114.84 134.012 121.114 126.117C121.006 121.9 110.945 87.5099 108.457 81.6702C108.241 81.1294 107.483 78.8584 104.995 78.3177C99.9109 77.3444 95.692 77.1281 90.4994 77.2362Z" fill="#926492"/>
<path d="M36.3019 18.1896C38.2491 16.4593 40.1963 14.729 42.1435 12.9987C42.6844 12.5661 43.3335 11.9173 43.1171 11.1602C43.0089 10.7277 41.819 11.2684 41.2781 11.5928C40.7372 11.9173 40.1963 12.3498 39.5472 12.5661C39.3309 12.5661 39.1145 12.6743 39.0063 12.458C39.0063 12.3498 38.8981 12.3498 38.8981 12.2417C38.79 11.701 38.8981 11.2684 39.1145 10.8358C40.0881 8.45664 40.9535 6.07747 41.6026 3.6983C41.7108 3.37387 41.7108 3.15758 41.819 2.83315C41.819 2.61686 41.819 2.40057 41.6026 2.29242C41.4944 2.18428 41.2781 2.18428 41.1699 2.29242C40.8454 2.40057 40.7372 2.725 40.629 2.94129C40.0881 4.02273 38.2491 7.59149 38.0327 7.48335C37.9245 7.3752 40.1963 2.83315 40.3045 1.10284C40.3045 0.88655 40.1963 0.778406 39.9799 0.670262C39.7636 0.562117 39.6554 0.778406 39.5472 0.88655C38.4654 2.07614 36.0855 6.51005 36.0855 6.29376C35.9773 4.6716 38.2491 2.29242 38.0327 0.562117C38.0327 0.345829 37.9245 0.129541 37.7082 0.0213965C36.7346 -0.41118 34.0301 5.86118 33.9219 5.64489C33.7056 5.32046 34.6792 1.85985 34.6792 0.994694C34.6792 0.778406 34.571 0.562117 34.3546 0.562117C34.1383 0.453973 33.9219 0.670262 33.8138 0.778406C33.8138 0.778406 33.5974 0.88655 33.4892 1.10284C31.1093 5.53675 28.9457 10.0788 28.1885 15.0534C28.1885 15.1616 28.1885 15.2697 28.1885 15.3779C28.1885 15.486 28.2967 15.5942 28.4048 15.5942C29.5948 16.6756 31.1093 17.3245 32.732 17.5408C34.0301 17.757 35.4364 17.6489 36.41 18.5141" fill="#EE614A"/>
<path d="M164.061 33.9786C162.871 31.5994 161.681 29.3284 160.491 26.9492C160.167 26.3003 159.842 25.5433 160.167 24.8944C160.383 24.57 161.357 25.4352 161.789 25.9759C162.222 26.5166 162.547 27.0573 162.979 27.4899C163.087 27.5981 163.304 27.7062 163.52 27.5981C163.628 27.5981 163.628 27.4899 163.628 27.3818C163.845 26.9492 163.953 26.4085 163.953 25.9759C163.953 23.4886 164.061 20.8931 164.277 18.4058C164.277 18.0814 164.386 17.7569 164.494 17.5406C164.494 17.3244 164.602 17.2162 164.818 17.1081C164.926 17.1081 165.143 17.1081 165.251 17.2162C165.467 17.4325 165.467 17.7569 165.576 18.0814C165.684 19.2709 166.008 23.2723 166.333 23.1641C166.549 23.1641 166.008 18.0814 166.657 16.4592C166.766 16.2429 166.874 16.1348 167.09 16.1348C167.306 16.1348 167.415 16.3511 167.415 16.4592C167.955 17.9732 168.496 22.9479 168.605 22.7316C169.362 21.3257 168.064 18.2976 168.929 16.6755C169.037 16.4592 169.145 16.2429 169.47 16.2429C170.444 16.2429 170.66 23.056 170.876 22.9478C171.201 22.7316 171.525 19.1628 171.958 18.2976C172.066 18.0814 172.283 17.9732 172.391 17.9732C172.607 17.9732 172.715 18.1895 172.824 18.4058C172.932 18.6221 172.932 18.8384 172.932 19.0547C173.473 24.0293 173.689 29.1121 172.715 33.9786C172.715 34.0867 172.607 34.1948 172.607 34.303C172.499 34.4111 172.391 34.4111 172.391 34.4111C170.876 34.9519 169.254 35.06 167.631 34.6274C166.333 34.303 165.035 33.7623 163.845 34.1948" fill="#C54133"/>
<path d="M106.293 78.7505C115.056 81.8867 122.412 79.6157 130.309 74.7492C138.206 69.8827 146.968 62.8533 151.512 54.7425C156.055 46.6317 157.57 40.3593 161.248 31.8159C164.709 33.7625 170.118 33.0055 173.905 34.1951C172.282 38.5209 170.01 49.2271 168.387 53.5529C165.467 61.88 157.57 76.2632 147.834 85.3473C134.528 97.5676 123.385 100.271 112.567 104.056C110.837 96.2699 107.591 86.645 105.86 78.7505" fill="#926492"/>
<path d="M76.7604 81.4542C72.7578 82.8601 48.2013 73.5597 43.1169 61.2312C39.2225 51.9308 38.7898 43.063 39.2225 33.0056C39.547 25.8681 39.6552 23.3808 40.0879 16.2433C36.3017 16.1351 26.3492 14.6211 26.2411 15.3781C24.402 23.8133 22.0221 51.4983 26.782 65.9896C29.3782 73.9922 34.1381 82.2112 40.1961 88.1591C46.0377 93.8908 53.6102 97.2433 61.1827 100.271C65.7262 102.11 70.486 103.732 75.3541 103.732C75.7868 97.4595 77.8422 89.7813 76.3277 83.7252" fill="#926492"/>
<path d="M172.607 36.7907C170.768 37.5477 168.388 37.1151 166.549 36.7907C164.385 36.4662 162.222 35.9255 160.166 35.1685C159.842 35.0604 159.734 35.6011 160.058 35.7092C162.222 36.4662 164.494 37.007 166.765 37.3314C168.604 37.6558 170.876 37.9803 172.715 37.2233C173.04 37.2233 172.931 36.6825 172.607 36.7907Z" fill="#EFCB22"/>
<path d="M171.308 41.1163C166.981 40.9 162.762 40.0348 158.76 37.9801C158.435 37.872 158.219 38.3045 158.543 38.4127C162.546 40.4674 166.873 41.3326 171.308 41.5489C171.633 41.657 171.633 41.1163 171.308 41.1163Z" fill="#EFCB22"/>
<path d="M170.335 45.2256C168.172 45.4419 165.9 44.9012 163.736 44.3605C161.573 43.8197 159.193 43.0627 157.462 41.765C157.137 41.5487 156.921 41.9813 157.245 42.1976C159.085 43.6035 161.464 44.2523 163.736 44.793C165.9 45.3338 168.28 45.8745 170.443 45.6582C170.66 45.7663 170.66 45.2256 170.335 45.2256Z" fill="#EFCB22"/>
<path d="M169.145 50.3087C164.385 49.5517 159.95 47.8214 155.839 45.2259C155.514 45.0097 155.298 45.4422 155.622 45.6585C159.625 48.254 164.277 50.0924 169.037 50.8494C169.361 50.8494 169.469 50.3087 169.145 50.3087Z" fill="#EFCB22"/>
<path d="M154.542 49.5516C158.003 53.1203 162.763 54.7425 167.307 56.3647C167.631 56.4728 167.739 55.9321 167.415 55.824C162.871 54.3099 158.22 52.6878 154.866 49.2272C154.65 48.9027 154.217 49.2272 154.542 49.5516Z" fill="#EFCB22"/>
<path d="M165.899 59.1764C163.519 59.2845 161.031 58.0949 158.868 57.1216C156.596 56.0402 154.432 54.6343 152.485 53.1203C152.269 52.904 151.836 53.3366 152.161 53.4447C154.216 55.0669 156.488 56.5809 158.868 57.6623C161.031 58.6356 163.519 59.8252 165.899 59.7171C166.224 59.7171 166.224 59.1764 165.899 59.1764Z" fill="#EFCB22"/>
<path d="M149.782 57.6624C153.784 60.7985 158.003 63.7184 162.979 64.7999C163.304 64.908 163.412 64.3673 163.088 64.2592C158.111 63.1777 154.001 60.366 150.106 57.3379C149.89 57.1216 149.457 57.4461 149.782 57.6624Z" fill="#EFCB22"/>
<path d="M160.707 69.0177C155.515 67.9363 150.322 65.9897 146.428 62.2046C146.211 61.9883 145.778 62.3128 146.103 62.5291C149.997 66.3141 155.298 68.3688 160.599 69.4503C160.923 69.5584 161.032 69.1259 160.707 69.0177Z" fill="#EFCB22"/>
<path d="M157.462 73.8839C156.056 73.4514 154.65 73.0188 153.351 72.3699C152.053 71.721 150.863 71.0722 149.673 70.3152C147.293 68.693 145.238 66.8546 143.507 64.5835C143.291 64.3672 142.966 64.6917 143.183 64.908C145.022 67.179 147.077 69.1256 149.457 70.6396C150.647 71.3966 151.945 72.1536 153.243 72.8025C154.541 73.4514 155.948 73.8839 157.354 74.3165C157.57 74.5328 157.787 73.9921 157.462 73.8839Z" fill="#EFCB22"/>
<path d="M153.243 79.0747C147.618 77.02 143.291 72.8024 139.396 68.4766C139.18 68.2603 138.747 68.5847 139.072 68.801C143.074 73.2349 147.402 77.4526 153.135 79.5073C153.351 79.7236 153.568 79.1829 153.243 79.0747Z" fill="white"/>
<path d="M148.483 84.482C143.399 81.0214 139.072 76.6956 135.718 71.6128C135.502 71.2884 135.069 71.6128 135.286 71.8291C138.747 77.02 143.074 81.454 148.267 84.9146C148.483 85.1309 148.808 84.6983 148.483 84.482Z" fill="white"/>
<path d="M131.715 73.992C134.095 79.94 138.639 84.9146 142.966 89.5648C143.182 89.7811 143.615 89.4566 143.291 89.2404C139.072 84.6983 134.528 79.8318 132.148 73.8839C132.148 73.5594 131.607 73.6676 131.715 73.992Z" fill="white"/>
<path d="M126.631 76.6956C127.172 79.8318 129.227 82.4272 130.958 84.9146C132.905 87.8345 134.961 90.6462 137.016 93.458C137.232 93.6742 137.665 93.458 137.449 93.2417C135.393 90.5381 133.446 87.8345 131.607 85.0227C129.876 82.4273 127.821 79.7236 127.172 76.5875C127.064 76.1549 126.631 76.3712 126.631 76.6956Z" fill="white"/>
<path d="M121.763 79.075C123.602 85.3474 126.199 91.4034 129.552 97.1351C129.768 97.4595 130.201 97.1351 129.985 96.9188C126.631 91.2953 124.143 85.2392 122.304 78.9669C122.196 78.5343 121.655 78.7506 121.763 79.075Z" fill="white"/>
<path d="M116.462 80.4806C117.003 87.4019 119.383 94.1068 123.494 99.7303C123.71 99.9466 124.143 99.7303 123.926 99.514C119.924 93.9987 117.436 87.4019 117.003 80.4806C117.003 80.1562 116.462 80.1562 116.462 80.4806Z" fill="white"/>
<path d="M109.106 79.8317C110.188 87.8344 112.568 95.6208 116.246 102.758C116.354 103.083 116.895 102.758 116.679 102.542C113.109 95.4045 110.729 87.7262 109.647 79.8317C109.539 79.5073 108.998 79.3991 109.106 79.8317Z" fill="white"/>
<path d="M75.4623 81.6706C74.8133 89.0244 73.1906 96.27 70.5943 103.191C70.4861 103.516 71.027 103.624 71.1352 103.299C73.7315 96.3782 75.3542 89.0244 76.0032 81.6706C76.0032 81.3461 75.4623 81.3461 75.4623 81.6706Z" fill="white"/>
<path d="M71.0273 80.8053C69.4046 87.8346 67.4574 94.6477 64.9693 101.353C64.8611 101.677 65.402 101.785 65.5102 101.461C67.9983 94.7559 70.0537 87.8346 71.5682 80.9134C71.5682 80.589 71.0273 80.4808 71.0273 80.8053Z" fill="white"/>
<path d="M65.1853 78.8586C65.2935 80.697 64.5362 82.3192 63.9954 84.0495C63.4545 85.6716 62.9136 87.1857 62.2645 88.8078C60.9664 92.0522 59.56 95.2965 58.0455 98.5408C57.9374 98.8652 58.3701 99.0815 58.4782 98.7571C59.9927 95.5128 61.5072 92.2684 62.8054 88.916C63.4545 87.1857 64.1035 85.5635 64.6444 83.8332C65.1853 82.211 65.8344 80.5889 65.7262 78.8586C65.618 78.5341 65.0771 78.5341 65.1853 78.8586Z" fill="white"/>
<path d="M59.8851 76.6959C59.0197 83.6171 56.4234 90.2139 52.2045 95.7293C51.9881 96.0537 52.4208 96.27 52.6372 95.9456C56.8561 90.3221 59.4524 83.6171 60.3179 76.5878C60.426 76.3715 59.8851 76.3715 59.8851 76.6959Z" fill="white"/>
<path d="M54.4762 73.4513C52.7453 80.0481 50.3654 86.8611 45.6055 91.9439C45.3892 92.1602 45.7137 92.5928 45.9301 92.2684C50.7981 87.0774 53.0698 80.2643 54.9089 73.5594C55.1252 73.235 54.5843 73.1268 54.4762 73.4513Z" fill="white"/>
<path d="M49.8241 69.8827C46.9032 75.9387 42.7925 81.2378 37.7081 85.4554C37.4917 85.6717 37.8162 85.9961 38.0326 85.7799C43.2252 81.4541 47.3359 76.155 50.2568 70.0989C50.3649 69.7745 49.9322 69.5582 49.8241 69.8827Z" fill="white"/>
<path d="M45.9295 66.0976C41.9269 70.4234 37.0589 73.884 31.65 76.155C31.3255 76.2632 31.65 76.6958 31.8663 76.5876C37.2753 74.2084 42.2515 70.7478 46.2541 66.422C46.4704 66.2058 46.1459 65.7732 45.9295 66.0976Z" fill="white"/>
<path d="M42.2514 60.1496C41.7105 61.4473 40.196 62.3125 39.1143 63.0695C38.0325 63.8265 36.8425 64.5835 35.5444 65.1242C33.0563 66.4219 30.46 67.2871 27.7555 67.936C27.431 68.0441 27.5392 68.4767 27.8637 68.4767C30.7845 67.8278 33.5972 66.8545 36.1934 65.4486C37.4916 64.7998 38.7897 63.9346 39.9797 63.0695C40.9533 62.3125 42.1433 61.5555 42.6841 60.3659C42.9005 59.9333 42.3596 59.8251 42.2514 60.1496Z" fill="white"/>
<path d="M40.1965 53.4446C35.4367 55.8238 30.3523 58.3111 24.8352 57.7704C24.5107 57.7704 24.5107 58.3111 24.8352 58.3111C30.4605 58.8519 35.5449 56.3645 40.4129 53.9854C40.7374 53.7691 40.5211 53.2284 40.1965 53.4446Z" fill="white"/>
<path d="M39.4397 47.4966C36.8434 47.7129 34.4635 48.7943 31.9753 49.0106C29.3791 49.2269 26.5664 49.0106 23.9701 48.4699C23.6456 48.3617 23.5374 48.9025 23.862 49.0106C26.3501 49.6595 29.1627 49.7676 31.6508 49.6595C34.3553 49.5513 36.8434 48.3617 39.4397 48.1454C39.7642 48.0373 39.7642 47.4966 39.4397 47.4966Z" fill="white"/>
<path d="M39.1147 40.7918C34.1384 42.4139 28.7295 42.0895 23.9697 39.8185C23.6451 39.7103 23.4288 40.1429 23.7533 40.2511C28.6213 42.5221 34.2466 42.9547 39.331 41.2244C39.5474 41.1162 39.4392 40.6836 39.1147 40.7918Z" fill="white"/>
<path d="M39.0062 35.0602C34.0299 35.6009 28.8374 34.7358 24.2939 32.5729C23.9694 32.4647 23.753 32.8973 24.0775 33.0055C28.7292 35.1683 33.9218 36.1416 39.0062 35.4928C39.3307 35.4928 39.3307 35.0602 39.0062 35.0602Z" fill="white"/>
<path d="M39.2229 28.2472C34.3548 28.5716 29.4868 27.7065 24.9433 25.7599C24.6188 25.6517 24.4024 26.0843 24.7269 26.1925C29.2704 28.1391 34.2466 29.0042 39.2229 28.7879C39.5474 28.7879 39.5474 28.2472 39.2229 28.2472Z" fill="white"/>
<path d="M39.7634 21.5423C37.2753 21.5423 34.7872 21.4342 32.2991 21.1097C29.9192 20.7853 27.4311 20.4609 25.2675 19.2713C24.943 19.055 24.7266 19.5957 25.0512 19.7039C27.2147 20.8934 29.7028 21.326 32.0828 21.6505C34.679 21.9749 37.2753 22.1912 39.8716 22.083C40.088 22.083 40.088 21.5423 39.7634 21.5423Z" fill="white"/>
<path d="M39.8715 18.7304C35.1116 19.0548 30.3518 18.5141 25.9164 17.0001C25.5919 16.8919 25.4837 17.4326 25.8083 17.5408C30.3518 19.0548 35.1116 19.7037 39.9796 19.2711C40.196 19.1629 40.196 18.6222 39.8715 18.7304Z" fill="white"/>
<path d="M92.5547 77.2366C92.771 78.3181 92.4465 79.5077 91.6892 80.2647C90.932 81.0217 89.5257 81.5624 88.4439 81.6706C86.3885 81.7787 84.3331 80.481 83.684 78.5344C83.5758 78.2099 83.035 78.3181 83.1431 78.6425C83.9004 80.9135 86.2803 82.4276 88.6602 82.1031C89.9584 81.995 91.3647 81.3461 92.2301 80.3728C92.9874 79.3995 93.3119 78.2099 92.9874 77.0204C92.9874 76.6959 92.4465 76.9122 92.5547 77.2366Z" fill="white"/>
<path d="M94.5024 77.3445C94.9351 78.8585 94.2861 80.8051 93.4206 82.1028C92.3388 83.6169 90.4998 84.0494 88.769 84.2657C87.1463 84.3739 85.4154 84.1576 84.0091 83.2924C83.36 82.8598 82.8191 82.4273 82.3864 81.8866C82.1701 81.5621 81.9537 81.3458 81.8455 81.0214C81.7374 80.8051 81.3046 80.0481 81.521 79.8318C81.4128 79.8318 81.3046 79.94 81.1965 79.94C81.1965 79.94 81.0883 79.94 81.0883 79.8318C81.1965 79.7237 81.1965 79.6155 81.3046 79.5074C80.9801 79.6155 81.0883 80.1562 81.4128 80.0481C81.521 79.94 81.6292 79.8318 81.6292 79.7237C81.6292 79.5074 81.521 79.5074 81.3046 79.3992C81.1965 79.3992 81.0883 79.3992 80.9801 79.5074C80.6556 80.0481 81.1965 81.0214 81.4128 81.5621C81.8455 82.3191 82.3864 82.968 83.0355 83.4006C84.55 84.5902 86.6054 85.0227 88.4444 84.9146C90.2835 84.8064 92.3388 84.3739 93.4206 82.8599C94.5024 81.454 95.2597 79.1829 94.8269 77.3445C94.9351 76.8038 94.3942 77.0201 94.5024 77.3445Z" fill="white"/>
<path d="M76.1114 134.445C75.7869 135.31 75.6787 136.283 75.6787 137.256C75.6787 137.581 76.2196 137.581 76.2196 137.256C76.2196 136.391 76.436 135.418 76.6523 134.553C76.6523 134.337 76.2196 134.12 76.1114 134.445Z" fill="white"/>
<path d="M75.5713 138.338C75.5713 139.203 75.5713 139.96 75.5713 140.825C75.5713 141.15 76.1122 141.15 76.1122 140.825C76.1122 139.96 76.1122 139.203 76.1122 138.338C76.1122 138.014 75.5713 138.014 75.5713 138.338Z" fill="white"/>
<path d="M75.6787 142.88C75.6787 143.637 75.7869 144.394 75.7869 145.151C75.7869 145.476 76.3278 145.476 76.3278 145.151C76.3278 144.394 76.2196 143.637 76.2196 142.88C76.2196 142.556 75.6787 142.556 75.6787 142.88Z" fill="white"/>
<path d="M75.8955 146.665C75.8955 147.53 76.0037 148.504 76.0037 149.369C76.0037 149.693 76.5446 149.693 76.5446 149.369C76.5446 148.504 76.4364 147.53 76.4364 146.665C76.4364 146.341 75.8955 146.341 75.8955 146.665Z" fill="white"/>
<path d="M76.2197 152.505C76.2197 153.262 76.2197 154.127 76.4361 154.884C76.4361 154.992 76.6524 155.1 76.7606 155.1C76.8688 155.1 76.977 154.884 76.977 154.776C76.8688 154.019 76.7606 153.262 76.7606 152.505C76.7606 152.18 76.2197 152.18 76.2197 152.505Z" fill="white"/>
<path d="M76.3282 156.831C76.22 157.696 76.22 158.669 76.3282 159.534C76.3282 159.642 76.5446 159.751 76.6527 159.751C76.7609 159.751 76.8691 159.534 76.8691 159.426C76.7609 158.669 76.7609 157.804 76.8691 157.047C76.8691 156.939 76.8691 156.723 76.6527 156.723C76.5446 156.614 76.3282 156.723 76.3282 156.831Z" fill="white"/>
<path d="M76.3281 162.995C76.4363 163.86 76.5445 164.725 76.5445 165.59C76.5445 165.698 76.6527 165.806 76.7608 165.806C76.869 165.806 77.0854 165.698 76.9772 165.59C76.869 164.725 76.7608 163.86 76.7608 162.995C76.7608 162.886 76.6527 162.778 76.5445 162.778C76.4363 162.67 76.3281 162.778 76.3281 162.995Z" fill="white"/>
<path d="M77.8428 171.43C77.8428 172.187 77.8428 172.944 77.8428 173.701C77.8428 174.025 78.3837 174.025 78.3837 173.701C78.3837 172.944 78.3837 172.187 78.3837 171.43C78.3837 171.105 77.8428 171.105 77.8428 171.43Z" fill="white"/>
<path d="M78.167 175.648C78.167 176.513 78.167 177.27 78.2752 178.135C78.2752 178.459 78.8161 178.459 78.8161 178.135C78.8161 177.27 78.8161 176.513 78.7079 175.648C78.5997 175.323 78.167 175.323 78.167 175.648Z" fill="white"/>
<path d="M78.3836 180.298C78.3836 181.163 78.2754 182.028 78.2754 183.002C78.2754 183.326 78.8163 183.326 78.8163 183.002C78.8163 182.136 78.9245 181.271 78.9245 180.298C78.9245 179.974 78.3836 179.974 78.3836 180.298Z" fill="white"/>
<path d="M78.1668 184.948C78.1668 185.164 78.1668 185.489 78.1668 185.705C78.1668 185.921 78.1668 186.246 78.0586 186.462C78.0586 186.57 78.0586 186.786 78.275 186.786C78.3831 186.786 78.5995 186.786 78.5995 186.57C78.7077 186.029 78.7077 185.489 78.7077 184.84C78.7077 184.732 78.5995 184.624 78.4913 184.624C78.275 184.624 78.1668 184.732 78.1668 184.948Z" fill="white"/>
<path d="M78.9239 135.093C78.7076 135.742 78.5994 136.391 78.4912 137.148C78.4912 137.256 78.5994 137.364 78.7076 137.364C78.8158 137.364 78.9239 137.256 78.9239 137.148C78.9239 136.499 79.1403 135.85 79.2485 135.31C79.2485 135.202 79.2485 134.985 79.0321 134.985C79.1403 134.877 79.0321 134.985 78.9239 135.093Z" fill="white"/>
<path d="M78.4919 138.879C78.3837 139.636 78.2755 140.393 78.3837 141.258C78.3837 141.366 78.4918 141.474 78.6 141.474C78.7082 141.474 78.9246 141.366 78.8164 141.258C78.8164 140.501 78.8164 139.744 78.9246 139.095C78.9246 138.987 78.9246 138.77 78.7082 138.77C78.7082 138.662 78.6 138.77 78.4919 138.879Z" fill="white"/>
<path d="M78.3839 142.988C78.2757 143.745 78.2757 144.502 78.3839 145.259C78.3839 145.367 78.492 145.475 78.6002 145.475C78.7084 145.475 78.9248 145.367 78.8166 145.259C78.7084 144.502 78.7084 143.745 78.8166 142.988C78.8166 142.88 78.7084 142.772 78.6002 142.772C78.492 142.664 78.3839 142.88 78.3839 142.988Z" fill="white"/>
<path d="M78.5996 147.53C78.5996 148.179 78.7078 148.828 78.7078 149.477C78.7078 149.585 78.816 149.693 78.9241 149.693C79.0323 149.693 79.2487 149.585 79.1405 149.477C79.1405 148.828 79.0323 148.179 79.0323 147.53C79.0323 147.422 78.9241 147.314 78.816 147.314C78.7078 147.206 78.5996 147.422 78.5996 147.53Z" fill="white"/>
<path d="M78.7078 151.099C78.5996 151.748 78.5996 152.289 78.816 152.938C78.816 153.046 79.0323 153.154 79.1405 153.154C79.2487 153.154 79.3568 152.938 79.3568 152.829C79.2487 152.289 79.2487 151.748 79.2487 151.315C79.2487 151.207 79.2487 150.991 79.0323 150.991C78.9241 150.883 78.816 150.883 78.7078 151.099Z" fill="white"/>
<path d="M78.8164 154.884C78.9246 155.641 79.0328 156.506 79.1409 157.263C79.1409 157.371 79.2491 157.479 79.3573 157.479C79.4655 157.479 79.6818 157.371 79.5736 157.263C79.4655 156.506 79.3573 155.641 79.2491 154.884C79.2491 154.776 79.1409 154.667 79.0328 154.667C79.0328 154.559 78.8164 154.667 78.8164 154.884Z" fill="white"/>
<path d="M79.4648 160.615C79.4648 161.481 79.573 162.238 79.573 163.103C79.573 163.427 80.1139 163.427 80.1139 163.103C80.1139 162.238 80.0057 161.481 80.0057 160.615C79.8976 160.291 79.4648 160.291 79.4648 160.615Z" fill="white"/>
<path d="M79.8975 165.374C79.7894 166.131 79.7894 166.78 79.8975 167.537C79.8975 167.645 80.1139 167.753 80.2221 167.753C80.3302 167.753 80.4384 167.537 80.4384 167.429C80.3303 166.78 80.3303 166.131 80.4384 165.59C80.4384 165.482 80.4384 165.266 80.2221 165.266C80.1139 165.158 79.8975 165.266 79.8975 165.374Z" fill="white"/>
<path d="M79.898 169.591C79.898 170.457 80.0062 171.43 80.1144 172.295C80.1144 172.403 80.3307 172.511 80.4389 172.511C80.5471 172.511 80.6553 172.295 80.6553 172.187C80.5471 171.322 80.4389 170.457 80.4389 169.591C80.3307 169.267 79.7898 169.267 79.898 169.591Z" fill="white"/>
<path d="M80.1143 174.566C80.1143 175.215 80.2224 175.756 80.2224 176.405C80.2224 176.513 80.3306 176.621 80.4388 176.621C80.547 176.621 80.7633 176.513 80.6551 176.405C80.6551 175.756 80.547 175.215 80.547 174.566C80.547 174.458 80.4388 174.35 80.3306 174.35C80.3306 174.242 80.1143 174.458 80.1143 174.566Z" fill="white"/>
<path d="M80.4385 178.243C80.4385 178.892 80.4385 179.541 80.4385 180.298C80.4385 180.622 80.9794 180.622 80.9794 180.298C80.9794 179.649 80.9794 179 80.9794 178.243C80.9794 177.918 80.4385 177.918 80.4385 178.243Z" fill="white"/>
<path d="M80.5469 182.461C80.5469 183.002 80.5469 183.651 80.5469 184.191C80.5469 184.299 80.6551 184.408 80.7632 184.408C80.8714 184.408 80.9796 184.299 80.9796 184.191C80.9796 183.651 80.9796 183.002 80.9796 182.461C80.9796 182.353 80.8714 182.245 80.7632 182.245C80.6551 182.245 80.5469 182.353 80.5469 182.461Z" fill="white"/>
<path d="M80.6553 185.921C80.6553 186.029 80.7635 186.137 80.7635 186.137V186.246C80.7635 186.246 80.7635 186.246 80.7635 186.354C80.7635 186.57 80.7635 186.678 80.7635 186.894C80.7635 187.003 80.8716 187.111 80.9798 187.111C81.088 187.111 81.1962 187.003 81.1962 186.894C81.1962 186.57 81.1962 186.137 81.088 185.813C81.088 185.705 80.8716 185.597 80.7635 185.597C80.7635 185.705 80.6553 185.813 80.6553 185.921Z" fill="white"/>
<path d="M131.175 176.729C131.175 176.729 131.066 176.837 131.175 176.729C131.066 176.837 131.066 176.837 131.066 176.837C131.066 176.945 130.958 176.945 130.85 177.053C130.742 177.162 130.634 177.27 130.526 177.378C130.526 177.378 130.417 177.378 130.417 177.486C130.309 177.486 130.309 177.594 130.201 177.594C130.093 177.594 130.093 177.702 129.985 177.702C129.985 177.702 129.877 177.702 129.877 177.81C129.768 177.81 129.66 178.027 129.66 178.135C129.66 178.243 129.877 178.351 129.985 178.351C130.742 178.027 131.283 177.594 131.716 176.945C131.824 176.837 131.716 176.621 131.607 176.621C131.391 176.513 131.283 176.513 131.175 176.729Z" fill="white"/>
<path d="M128.254 178.567C127.821 178.676 127.28 178.784 126.847 178.784C126.739 178.784 126.631 179 126.631 179.108C126.631 179.216 126.847 179.324 126.955 179.324C127.388 179.216 127.929 179.108 128.362 179.108C128.47 179.108 128.578 178.892 128.578 178.784C128.578 178.676 128.47 178.567 128.254 178.567Z" fill="white"/>
<path d="M124.901 179.649C124.252 179.973 123.494 180.19 122.845 180.514C122.737 180.622 122.629 180.73 122.629 180.839C122.629 180.947 122.845 181.055 122.953 181.055C123.603 180.73 124.36 180.514 125.009 180.19C125.117 180.082 125.225 179.973 125.225 179.865C125.225 179.757 125.117 179.649 124.901 179.649Z" fill="white"/>
<path d="M120.789 181.163C120.573 181.271 120.249 181.379 120.032 181.487C119.816 181.596 119.491 181.704 119.275 181.704C119.167 181.704 119.059 181.92 119.059 182.028C119.059 182.136 119.275 182.244 119.383 182.244C119.924 182.136 120.465 181.92 121.006 181.704C121.114 181.596 121.222 181.487 121.114 181.379C121.006 181.163 120.898 181.055 120.789 181.163Z" fill="white"/>
<path d="M117.436 182.136C116.678 182.244 116.029 182.461 115.272 182.785C115.164 182.785 115.056 183.001 115.056 183.11C115.056 183.218 115.272 183.326 115.38 183.326C116.029 183.001 116.787 182.785 117.544 182.677C117.652 182.677 117.76 182.461 117.76 182.353C117.652 182.244 117.544 182.136 117.436 182.136Z" fill="white"/>
<path d="M113 183.542C112.351 183.758 111.702 183.975 111.053 183.867C110.945 183.867 110.837 183.975 110.837 184.083C110.837 184.191 110.945 184.299 111.053 184.299C111.811 184.299 112.568 184.191 113.217 183.867C113.325 183.759 113.433 183.65 113.433 183.542C113.325 183.542 113.109 183.434 113 183.542Z" fill="white"/>
<path d="M108.025 184.299C107.484 184.407 106.943 184.624 106.402 184.732C106.294 184.732 106.186 184.948 106.186 185.056C106.186 185.164 106.402 185.273 106.51 185.273C107.051 185.164 107.592 184.948 108.133 184.84C108.241 184.84 108.349 184.624 108.349 184.516C108.349 184.407 108.241 184.299 108.025 184.299Z" fill="white"/>
<path d="M104.238 184.948C103.589 185.164 102.94 185.164 102.183 185.272C101.858 185.272 101.858 185.813 102.183 185.813C102.94 185.813 103.589 185.705 104.346 185.489C104.671 185.38 104.563 184.84 104.238 184.948Z" fill="white"/>
<path d="M100.344 185.597C99.4785 185.489 98.613 185.489 97.7476 185.597C97.6394 185.597 97.5312 185.813 97.5312 185.921C97.5312 186.029 97.7476 186.137 97.8558 186.137C98.613 186.029 99.3703 186.029 100.128 186.137C100.236 186.137 100.452 186.137 100.452 185.921C100.56 185.705 100.452 185.597 100.344 185.597Z" fill="white"/>
<path d="M94.2861 185.705C93.7452 185.813 93.2043 185.921 92.5552 185.921C92.447 185.921 92.3389 186.03 92.3389 186.138C92.3389 186.246 92.447 186.354 92.5552 186.354C93.2043 186.354 93.8534 186.246 94.3943 186.138C94.5024 186.138 94.6106 185.921 94.6106 185.813C94.6106 185.705 94.5024 185.705 94.2861 185.705Z" fill="white"/>
<path d="M90.8235 185.813C90.0663 185.813 89.309 185.921 88.4436 185.921C88.1191 185.921 88.1191 186.462 88.4436 186.462C89.2008 186.462 89.9581 186.354 90.8235 186.354C91.1481 186.246 91.1481 185.705 90.8235 185.813Z" fill="white"/>
<path d="M87.5782 185.921C86.8209 185.813 86.1718 185.813 85.4146 185.921C85.3064 185.921 85.1982 186.138 85.1982 186.246C85.1982 186.354 85.4146 186.462 85.5228 186.462C86.1718 186.354 86.8209 186.354 87.3618 186.462C87.47 186.462 87.6863 186.462 87.6863 186.246C87.7945 186.03 87.6863 185.921 87.5782 185.921Z" fill="white"/>
<path d="M82.6025 185.489C82.0616 185.597 81.5207 185.597 80.9798 185.489C80.8716 185.489 80.6553 185.489 80.6553 185.705C80.6553 185.813 80.6553 186.029 80.8716 186.029C81.5207 186.246 82.1698 186.246 82.8188 186.029C82.927 186.029 83.0352 185.813 83.0352 185.705C82.927 185.597 82.8189 185.489 82.6025 185.489Z" fill="white"/>
<path d="M77.734 185.273C77.1931 185.164 76.544 184.948 76.0031 184.732C75.895 184.624 75.6786 184.732 75.6786 184.84C75.5704 184.948 75.6786 185.164 75.7868 185.164C76.4358 185.381 76.9767 185.597 77.6258 185.705C77.734 185.705 77.9503 185.705 77.9503 185.489C77.9503 185.381 77.8422 185.273 77.734 185.273Z" fill="white"/>
<path d="M73.9484 184.083C73.5157 183.866 72.9748 183.65 72.4339 183.542C72.3257 183.542 72.1094 183.542 72.1094 183.758C72.1094 183.866 72.1094 184.083 72.3257 184.083C72.5421 184.083 72.8666 184.191 73.083 184.299C73.1912 184.299 73.1912 184.299 73.2993 184.407C73.2993 184.407 73.4075 184.407 73.4075 184.515C73.4075 184.515 73.5157 184.515 73.5157 184.623C73.6239 184.623 73.6239 184.732 73.732 184.732C73.8402 184.84 74.0566 184.732 74.0566 184.623C74.1648 184.407 74.0566 184.191 73.9484 184.083Z" fill="white"/>
<path d="M70.8106 183.11C70.1615 182.893 69.4043 182.677 68.7552 182.353C68.647 182.353 68.4307 182.353 68.4307 182.569C68.4307 182.677 68.4307 182.893 68.647 182.893C69.2961 183.11 70.0533 183.326 70.7024 183.65C70.8106 183.65 71.0269 183.65 71.0269 183.434C71.0269 183.326 71.027 183.218 70.8106 183.11Z" fill="white"/>
<path d="M88.7686 65.9895C88.3359 65.665 87.795 65.5569 87.2541 65.7732C86.8214 65.9895 86.4969 66.422 86.3887 66.8546C86.3887 66.9628 86.3887 67.179 86.605 67.179C86.7132 67.179 86.9296 67.179 86.9296 66.9628C87.0377 66.6383 87.1459 66.3139 87.4705 66.2057C87.795 66.0976 88.1195 66.0976 88.4441 66.3139C88.5522 66.422 88.6604 66.422 88.7686 66.3139C88.8768 66.2057 88.8768 66.0976 88.7686 65.9895Z" fill="black"/>
<path d="M84.9828 67.5033C84.6582 67.0708 84.1173 66.8545 83.5765 66.9626C83.0356 67.1789 82.6028 67.7196 82.711 68.2603C82.711 68.3685 82.8192 68.4766 82.9274 68.4766C83.0356 68.4766 83.2519 68.3685 83.1437 68.2603V68.1522C83.1437 68.1522 83.1437 68.1522 83.1437 68.0441C83.1437 68.0441 83.1437 68.0441 83.1437 67.9359C83.1437 67.9359 83.1437 67.8278 83.1437 67.9359C83.1437 67.9359 83.1437 67.8278 83.2519 67.8278C83.2519 67.8278 83.2519 67.7196 83.2519 67.8278L83.3601 67.7196C83.3601 67.7196 83.3601 67.7196 83.4683 67.7196C83.4683 67.7196 83.4683 67.7196 83.5765 67.7196H83.6846C83.6846 67.7196 83.6846 67.7196 83.7928 67.7196C83.7928 67.7196 83.7928 67.7196 83.901 67.7196H84.0092C84.0092 67.7196 84.1173 67.7196 84.0092 67.7196C84.0092 67.7196 84.0092 67.7196 84.1173 67.7196C84.1173 67.7196 84.2255 67.7196 84.2255 67.8278C84.2255 67.8278 84.3337 67.9359 84.3337 68.0441C84.4419 68.1522 84.5501 68.2603 84.6582 68.1522C84.9828 67.8278 84.9828 67.6115 84.9828 67.5033Z" fill="black"/>
<path d="M85.9561 68.0444C86.1724 68.6933 86.497 69.3421 86.8215 69.991C86.8215 69.8828 86.9297 69.7747 86.9297 69.6666C86.8215 69.7747 86.6051 69.8828 86.4969 69.8828C86.3888 69.8828 86.2806 69.991 86.2806 70.0991C86.2806 70.2073 86.3888 70.4236 86.4969 70.3154C86.7133 70.3154 87.0378 70.2073 87.2542 69.991C87.3624 69.8828 87.4706 69.7747 87.3624 69.6666C87.0378 69.1258 86.8215 68.477 86.6051 67.8281C86.6051 67.72 86.3888 67.6118 86.2806 67.6118C86.0642 67.72 85.9561 67.8281 85.9561 68.0444Z" fill="black"/>
<path d="M87.5784 70.6394C86.6048 70.9638 85.4149 70.7475 84.6576 70.0987C84.5494 69.9905 84.4413 69.9905 84.3331 70.0987C84.2249 70.2068 84.2249 70.4231 84.3331 70.4231C85.3067 71.1801 86.6048 71.5046 87.7948 71.072C88.0112 71.072 87.903 70.5313 87.5784 70.6394Z" fill="black"/>
<path d="M77.085 167.645C77.1931 168.294 77.3013 169.051 77.4095 169.699C77.4095 169.808 77.6259 169.916 77.734 169.916C77.8422 169.916 77.9504 169.699 77.9504 169.591C77.8422 168.942 77.734 168.185 77.6259 167.537C77.6259 167.428 77.4095 167.32 77.3013 167.32C77.085 167.428 77.085 167.537 77.085 167.645Z" fill="white"/>
<path d="M116.571 224.421C113.109 223.988 109.647 225.286 106.402 226.584C102.832 227.99 99.2623 229.504 95.6924 230.909C95.9087 230.152 96.3415 229.504 96.7742 228.963C99.695 225.07 102.724 221.285 105.645 217.391C105.969 216.959 106.294 216.526 106.835 216.202C107.376 215.877 108.025 215.877 108.674 215.769C111.378 215.661 114.083 215.553 116.679 215.445C117.004 218.04 117.436 220.744 117.761 223.339" fill="#4097D2"/>
<path d="M192.512 168.51C197.055 181.271 201.274 199.331 207.549 211.335C208.306 212.849 209.171 214.471 210.578 215.445C211.984 216.418 213.715 216.634 215.446 216.959C236.432 220.095 256.878 226.692 275.809 236.533C277.215 232.531 279.055 228.746 281.434 225.178C272.131 217.824 263.369 210.47 250.928 206.361C243.247 203.765 224.749 200.196 224.1 199.331C223.343 198.466 223.234 166.023 216.744 148.936C212.417 150.234 203.113 149.477 198.678 149.26C194.783 149.152 191.105 150.883 187.319 150.991C184.831 151.099 182.343 150.45 179.855 149.909C176.718 149.152 168.821 146.449 165.575 145.692C165.034 145.584 163.844 177.054 167.414 201.386C167.523 201.819 156.272 201.494 141.776 204.738C128.146 207.875 120.898 211.335 114.731 214.147C115.813 217.932 116.462 226.367 116.462 226.367C116.462 226.367 159.842 223.231 181.802 216.851C183.857 216.202 185.48 214.471 185.697 212.2C187.319 196.628 190.565 183.542 192.512 168.51Z" fill="#662D91"/>
<path d="M149.673 29.8692C150.214 27.0574 150.863 24.2457 151.404 21.4339C151.512 20.6769 151.728 19.7036 151.079 19.1629C150.754 18.8385 149.997 20.1362 149.781 20.785C149.565 21.4339 149.348 22.1909 148.915 22.7316C148.807 22.9479 148.591 23.0561 148.375 23.0561C148.266 23.0561 148.266 22.9479 148.158 22.9479C147.725 22.5154 147.509 22.0828 147.401 21.5421C146.752 18.8385 145.886 16.1348 144.913 13.5394C144.805 13.215 144.588 12.8905 144.48 12.6742C144.372 12.4579 144.264 12.3498 143.939 12.3498C143.723 12.3498 143.615 12.4579 143.507 12.5661C143.29 12.8905 143.398 13.215 143.507 13.5394C143.723 14.8371 144.48 19.1629 144.264 19.1629C144.047 19.1629 143.182 13.6475 141.992 12.0254C141.884 11.8091 141.667 11.8091 141.451 11.8091C141.235 11.9172 141.235 12.0254 141.235 12.2417C141.127 13.972 141.884 19.4873 141.776 19.271C140.586 17.9733 141.018 14.4045 139.72 12.8905C139.504 12.6742 139.288 12.5661 139.071 12.5661C137.989 12.8905 139.72 20.1362 139.504 20.028C139.071 19.9199 137.773 16.1348 137.016 15.3778C136.908 15.1616 136.583 15.1616 136.475 15.1616C136.259 15.2697 136.15 15.486 136.15 15.7023C136.15 15.9186 136.15 16.243 136.259 16.4593C137.124 21.8665 138.314 27.3818 140.802 32.3565C140.91 32.4646 140.91 32.5728 141.018 32.6809C141.127 32.7891 141.235 32.7891 141.343 32.7891C143.074 32.8972 144.805 32.5728 146.427 31.7076C147.725 31.0587 148.915 30.0854 150.322 30.0854" fill="#B1BFE2"/>
<path d="M199.651 64.0429C199.218 63.394 198.353 63.1777 197.596 63.1777C196.298 63.1777 195.108 64.0429 194.35 65.1243C193.593 66.2058 193.269 67.5035 192.944 68.6931C192.511 70.6397 192.403 72.8026 193.593 74.3166C194.675 75.6143 196.622 76.0469 198.245 75.5062C199.867 74.9655 201.057 73.5596 201.707 71.9374C202.356 70.3152 202.464 68.5849 202.356 66.8546C202.247 65.8813 202.031 64.6918 201.274 64.151C200.625 63.6103 199.651 63.6103 198.786 63.6103" fill="#B1BFE2"/>
<path d="M194.567 75.0737C193.701 77.561 193.16 80.4809 192.836 83.0764C194.134 83.4008 195.432 83.4008 196.73 83.2927C197.163 80.4809 197.596 77.6692 198.029 74.8574C196.839 75.3981 195.649 75.29 194.459 74.9656" fill="#B1BFE2"/>
<path d="M193.161 69.2336C192.944 68.9092 192.511 68.9092 192.187 69.0173C191.862 69.2336 191.646 69.558 191.538 69.8825C191.43 70.0988 191.43 70.4232 191.43 70.6395C191.538 71.0721 191.862 71.2883 192.187 71.5046C192.511 71.6128 192.944 71.7209 193.269 71.7209C193.377 70.9639 193.485 70.2069 193.593 69.4499" fill="#B1BFE2"/>
<path d="M201.382 70.7478C201.382 70.5315 201.706 70.4233 201.923 70.4233C202.572 70.5315 203.329 71.1803 203.113 71.8292C202.68 73.4514 201.49 73.1269 200.949 73.2351C201.166 72.3699 201.274 71.3966 201.274 70.5315" fill="#B1BFE2"/>
<path d="M209.063 85.0227C222.369 88.8078 233.079 95.8371 246.709 97.0267C260.881 98.3245 263.153 98.1082 274.836 98.1082C275.16 98.1082 276.891 115.952 277.432 118.98C273.321 119.845 228.535 114.654 212.958 104.056C212.201 103.624 207.657 94.215 207.549 87.51C207.549 86.5367 207.982 84.9146 209.063 85.0227Z" fill="#FCB21C"/>
<path d="M192.403 80.2645C192.079 82.5355 195.973 83.617 197.488 81.9948C197.812 81.5622 198.678 80.8052 198.678 80.8052C198.678 80.8052 207.873 82.3192 211.226 84.0495C214.58 85.888 217.501 88.8079 218.258 92.5929C219.015 96.1617 217.717 99.7304 216.635 103.191C213.065 115.195 218.366 150.775 218.366 150.775C180.395 153.586 163.736 148.72 163.952 147.855C165.034 143.961 170.443 93.0255 174.878 85.0228C176.501 82.2111 179.53 80.3726 182.775 79.7238C185.912 79.0749 189.266 79.5075 192.403 80.2645Z" fill="#FCB21C"/>
<path d="M184.182 79.6158C181.694 80.2647 175.744 78.7506 171.525 74.8575C167.306 70.9643 159.517 61.4476 156.597 51.4983C154.325 43.8201 152.053 36.1418 151.837 28.1392C146.32 30.9509 140.478 33.1138 134.42 34.6278C137.016 60.1498 150.863 78.8588 155.839 84.1579C160.815 89.4569 168.712 94.756 175.636 96.8107C176.069 96.9189 177.908 94.2153 178.34 94.1071C178.665 93.999 178.881 93.5664 179.098 93.242C181.369 88.9162 183.1 84.266 183.966 79.5077" fill="#FCB21C"/>
<path d="M193.052 69.8827C192.836 65.9895 194.026 61.9882 196.406 58.9601C196.406 59.1764 196.406 59.5009 196.514 59.7171C197.704 58.9601 199.002 58.4194 200.3 58.2031C200.084 58.7438 199.976 59.3927 199.976 60.0416C201.598 59.3927 203.437 59.2846 205.168 59.609C204.519 60.0416 203.978 60.6904 203.654 61.3393C204.736 61.6637 205.709 62.0963 206.683 62.637C206.142 62.8533 205.601 63.1778 205.168 63.6103C205.926 63.6103 206.791 63.7185 207.44 64.0429C204.519 66.6384 202.356 69.9908 201.166 73.6677C200.949 73.6677 200.733 73.6677 200.517 73.6677C200.949 71.9374 201.382 70.3153 201.707 68.585C200.084 68.2605 198.461 68.1524 196.839 68.2605C197.055 67.9361 197.379 67.7198 197.812 67.5035C196.73 67.5035 195.54 67.7198 194.459 68.0442C194.567 67.7198 194.783 67.5035 195.108 67.2872C194.459 67.1791 193.701 67.6117 193.377 68.1524C193.052 68.6931 192.944 69.4501 193.052 70.099" fill="black"/>
<path d="M180.179 88.4835C181.261 89.0242 182.451 89.3486 183.641 89.4568C183.966 89.4568 183.966 89.0242 183.641 88.9161C182.559 88.8079 181.477 88.4835 180.396 88.0509C180.179 87.9428 179.855 88.3753 180.179 88.4835Z" fill="#141D3E"/>
<path d="M184.723 86.1041C185.697 86.3204 186.67 86.5367 187.536 86.753C187.86 86.8611 187.968 86.3204 187.644 86.3204C186.67 86.1041 185.697 85.8878 184.831 85.6715C184.615 85.5634 184.399 86.1041 184.723 86.1041Z" fill="#141D3E"/>
<path d="M181.694 92.8094C182.343 93.1338 183.1 93.242 183.749 93.242C184.074 93.242 184.074 92.7013 183.749 92.7013C183.1 92.7013 182.451 92.5931 181.91 92.3768C181.802 92.2687 181.694 92.3768 181.586 92.485C181.478 92.5931 181.586 92.7013 181.694 92.8094Z" fill="#141D3E"/>
<path d="M175.203 92.9175C175.744 92.8093 176.393 92.9175 176.825 93.2419C177.15 93.4582 177.366 93.0256 177.042 92.8093C176.501 92.4849 175.852 92.2686 175.203 92.3768C175.095 92.3768 174.986 92.4849 174.986 92.5931C174.986 92.7012 175.095 92.9175 175.203 92.9175Z" fill="#141D3E"/>
<path d="M175.312 99.4061C176.069 99.7305 176.934 99.9468 177.908 100.055C178.232 100.055 178.232 99.5142 177.908 99.5142C177.151 99.5142 176.285 99.2979 175.636 98.9735C175.528 98.8654 175.312 98.9735 175.312 99.0817C175.203 99.1898 175.203 99.2979 175.312 99.4061Z" fill="#141D3E"/>
<path d="M182.126 98C183.208 98.2163 184.182 98.3244 185.264 98.2163C185.372 98.2163 185.48 98.1082 185.48 98C185.48 97.8919 185.372 97.7837 185.264 97.7837C184.29 97.8919 183.208 97.7837 182.235 97.6756C182.018 97.4593 181.802 98 182.126 98Z" fill="#141D3E"/>
<path d="M187.319 93.6743C188.076 93.7824 188.942 93.7824 189.699 93.8906C189.807 93.8906 189.915 93.7824 189.915 93.6743C189.915 93.5661 189.807 93.458 189.699 93.458C188.942 93.3498 188.076 93.3498 187.319 93.2417C187.211 93.2417 187.103 93.3498 187.103 93.458C186.995 93.5661 187.211 93.6743 187.319 93.6743Z" fill="#141D3E"/>
<path d="M190.456 89.1324C191.213 89.4568 192.079 89.6731 193.052 89.565C193.161 89.565 193.269 89.4569 193.269 89.3487C193.269 89.2406 193.161 89.1324 193.052 89.1324C192.295 89.2406 191.43 89.1324 190.781 88.808C190.672 88.6998 190.564 88.808 190.456 88.9161C190.348 88.9161 190.348 89.1324 190.456 89.1324Z" fill="#141D3E"/>
<path d="M177.367 83.9415C178.124 83.8333 178.881 83.8333 179.638 83.9415C179.963 84.0496 180.071 83.5089 179.746 83.5089C178.881 83.2926 178.016 83.2926 177.258 83.5089C177.15 83.5089 177.042 83.7252 177.042 83.8333C177.042 83.9415 177.258 83.9415 177.367 83.9415Z" fill="#141D3E"/>
<path d="M187.643 82.5357C188.184 82.8602 188.833 83.0765 189.482 83.1846C189.59 83.1846 189.699 83.0765 189.699 82.9683C189.699 82.8602 189.59 82.752 189.482 82.752C188.941 82.6439 188.292 82.5357 187.86 82.2113C187.751 82.1032 187.535 82.2113 187.535 82.3194C187.427 82.3194 187.535 82.4276 187.643 82.5357Z" fill="#141D3E"/>
<path d="M198.245 85.8878C199.327 86.1041 200.3 86.5366 201.274 87.0774C201.598 87.1855 201.815 86.7529 201.49 86.6448C200.517 86.1041 199.435 85.6715 198.353 85.4552C198.137 85.3471 198.029 85.7796 198.245 85.8878Z" fill="#141D3E"/>
<path d="M196.731 91.1871C197.488 91.4034 198.137 91.7278 198.678 92.1604C198.786 92.2685 199.003 92.1604 199.003 92.0523C199.111 91.9441 199.003 91.836 198.894 91.7278C198.245 91.2952 197.596 90.8627 196.839 90.7545C196.623 90.6464 196.406 91.079 196.731 91.1871Z" fill="#141D3E"/>
<path d="M193.269 94.756C193.377 94.756 193.377 94.756 193.269 94.756C193.485 94.756 193.485 94.756 193.269 94.756C193.377 94.756 193.377 94.756 193.377 94.756C193.485 94.756 193.485 94.756 193.593 94.756C193.702 94.756 193.702 94.756 193.81 94.756C193.81 94.756 193.81 94.756 193.918 94.756H194.026C194.134 94.756 194.134 94.756 194.242 94.756H194.351C194.459 94.756 194.459 94.8641 194.567 94.8641C194.567 94.8641 194.675 94.8641 194.675 94.9723C194.783 95.0804 194.892 95.0804 195 94.9723C195.108 94.8641 195.108 94.756 195 94.6478C194.459 94.2153 193.81 94.1071 193.161 94.2153C193.053 94.2153 192.944 94.4316 192.944 94.5397C193.053 94.756 193.161 94.8641 193.269 94.756Z" fill="#141D3E"/>
<path d="M192.945 100.704C194.027 100.92 195.217 100.92 196.298 100.812C196.407 100.812 196.515 100.704 196.515 100.595C196.515 100.487 196.407 100.379 196.298 100.379C195.217 100.487 194.135 100.487 193.053 100.271C192.945 100.271 192.837 100.271 192.729 100.487C192.729 100.487 192.837 100.704 192.945 100.704Z" fill="#141D3E"/>
<path d="M201.058 97.5676C201.815 97.4594 202.572 97.4594 203.329 97.6757C203.654 97.7839 203.762 97.2431 203.438 97.2431C202.572 97.0269 201.707 97.0269 200.841 97.135C200.733 97.135 200.625 97.3513 200.625 97.4594C200.841 97.5676 200.95 97.5676 201.058 97.5676Z" fill="#141D3E"/>
<path d="M203.005 92.593C203.546 93.0256 204.195 93.1338 204.844 93.0256C204.952 93.0256 205.061 92.8093 205.061 92.7012C205.061 92.593 204.844 92.4849 204.736 92.4849H204.628C204.52 92.4849 204.52 92.4849 204.411 92.4849C204.303 92.4849 204.303 92.4849 204.195 92.4849C204.195 92.4849 204.195 92.4849 204.087 92.4849H203.979C203.871 92.4849 203.871 92.4849 203.762 92.4849H203.654C203.546 92.4849 203.546 92.3768 203.438 92.3768C203.438 92.3768 203.33 92.3768 203.33 92.2686C203.221 92.1605 203.113 92.1605 203.005 92.2686C203.005 92.3768 202.897 92.4849 203.005 92.593Z" fill="#141D3E"/>
<path d="M203.978 86.6449C204.627 87.0775 205.493 87.2938 206.358 87.2938C206.466 87.2938 206.574 87.1856 206.574 87.0775C206.574 86.9693 206.466 86.8612 206.358 86.8612C205.601 86.8612 204.952 86.753 204.303 86.3205C203.978 86.1042 203.654 86.5368 203.978 86.6449Z" fill="#141D3E"/>
<path d="M210.577 91.7277C211.335 91.8359 212.092 92.0522 212.633 92.4847C212.741 92.5929 212.957 92.4847 212.957 92.3766C213.066 92.2685 212.957 92.1603 212.849 92.0522C212.2 91.6196 211.335 91.2952 210.469 91.187C210.361 91.187 210.253 91.2952 210.253 91.4033C210.361 91.6196 210.469 91.7277 210.577 91.7277Z" fill="#141D3E"/>
<path d="M208.955 96.5944C209.604 96.7026 210.253 96.8107 210.902 97.027C211.01 97.027 211.226 97.027 211.226 96.8107C211.226 96.7026 211.226 96.4863 211.01 96.4863C210.361 96.3781 209.712 96.27 209.063 96.0537C208.955 96.0537 208.738 96.0537 208.738 96.27C208.738 96.3781 208.846 96.5944 208.955 96.5944Z" fill="#141D3E"/>
<path d="M208.739 101.028C209.28 101.245 209.821 101.461 210.253 101.569C210.361 101.569 210.578 101.569 210.578 101.353C210.578 101.245 210.578 101.136 210.361 101.028C209.821 100.812 209.28 100.596 208.847 100.379C208.739 100.379 208.522 100.379 208.522 100.596C208.522 100.812 208.631 100.92 208.739 101.028Z" fill="#141D3E"/>
<path d="M201.491 101.677C202.248 102.002 203.005 102.218 203.763 102.326C203.871 102.326 203.979 102.218 203.979 102.11C203.979 102.002 203.871 101.893 203.763 101.893C203.005 101.785 202.356 101.569 201.707 101.245C201.599 101.136 201.383 101.245 201.383 101.353C201.275 101.461 201.383 101.569 201.491 101.677Z" fill="#141D3E"/>
<path d="M205.06 107.084C205.926 106.976 206.791 106.976 207.656 107.192C207.981 107.3 208.089 106.76 207.765 106.76C206.899 106.543 205.926 106.543 205.06 106.652C204.952 106.652 204.844 106.76 204.844 106.868C204.844 106.868 204.952 107.084 205.06 107.084Z" fill="#141D3E"/>
<path d="M210.903 106.003C211.552 106.003 212.201 106.219 212.742 106.544C213.066 106.652 213.282 106.219 212.958 106.111C212.309 105.787 211.552 105.57 210.794 105.57C210.578 105.462 210.578 105.895 210.903 106.003Z" fill="#141D3E"/>
<path d="M209.929 113.032C210.47 113.14 210.902 113.14 211.443 113.248C211.551 113.248 211.66 113.14 211.66 113.032C211.66 112.924 211.551 112.816 211.443 112.816C210.902 112.708 210.47 112.708 209.929 112.6C209.821 112.6 209.712 112.708 209.712 112.816C209.604 112.924 209.712 113.032 209.929 113.032Z" fill="#141D3E"/>
<path d="M202.897 111.194C203.546 111.518 204.304 111.626 204.953 111.626C205.277 111.626 205.277 111.086 204.953 111.086C204.304 111.086 203.654 110.978 203.114 110.653C203.005 110.545 202.897 110.653 202.789 110.761C202.789 110.978 202.789 111.086 202.897 111.194Z" fill="#141D3E"/>
<path d="M196.298 106.003C196.947 106.003 197.596 106.111 198.137 106.327C198.245 106.327 198.353 106.327 198.462 106.219C198.57 106.111 198.462 105.894 198.353 105.894C197.704 105.57 196.947 105.462 196.298 105.462C195.974 105.57 195.974 106.003 196.298 106.003Z" fill="#141D3E"/>
<path d="M189.158 110.004C189.915 110.22 190.672 110.437 191.321 110.653C191.646 110.761 191.754 110.22 191.43 110.22C190.672 110.004 189.915 109.788 189.266 109.571C188.942 109.463 188.833 109.896 189.158 110.004Z" fill="#141D3E"/>
<path d="M187.103 105.786C187.644 105.786 188.077 105.786 188.618 105.678C188.726 105.678 188.834 105.57 188.834 105.462C188.834 105.354 188.726 105.246 188.618 105.246C188.077 105.246 187.644 105.246 187.103 105.354C186.995 105.354 186.887 105.462 186.887 105.57C186.887 105.678 186.995 105.786 187.103 105.786Z" fill="#141D3E"/>
<path d="M180.829 105.678C181.586 106.111 182.452 106.219 183.209 106.003C183.317 106.003 183.425 105.787 183.425 105.678C183.425 105.57 183.209 105.462 183.101 105.462C182.452 105.57 181.694 105.462 181.045 105.138C180.829 105.138 180.613 105.57 180.829 105.678Z" fill="#141D3E"/>
<path d="M177.584 110.653C178.016 110.761 178.449 110.869 178.882 111.086C178.99 111.086 179.206 111.086 179.206 110.869C179.206 110.761 179.206 110.653 178.99 110.545C178.557 110.437 178.124 110.329 177.692 110.112C177.584 110.112 177.367 110.112 177.367 110.329C177.367 110.545 177.475 110.653 177.584 110.653Z" fill="#141D3E"/>
<path d="M172.823 105.462C173.256 105.462 173.688 105.462 174.121 105.462C174.229 105.462 174.337 105.354 174.337 105.246C174.337 105.137 174.229 105.029 174.121 105.029C173.688 105.029 173.256 105.029 172.823 105.029C172.715 105.029 172.606 105.137 172.606 105.246C172.606 105.354 172.715 105.462 172.823 105.462Z" fill="#141D3E"/>
<path d="M173.148 114.762C173.689 114.979 174.338 115.195 174.879 115.411C174.987 115.411 175.203 115.411 175.203 115.195C175.203 115.087 175.203 114.979 174.987 114.871C174.446 114.654 173.797 114.438 173.256 114.222C173.148 114.222 172.932 114.222 172.932 114.438C172.932 114.546 173.04 114.762 173.148 114.762Z" fill="#141D3E"/>
<path d="M180.071 115.411C180.612 115.519 181.045 115.519 181.586 115.627C181.694 115.627 181.802 115.519 181.802 115.411C181.802 115.303 181.694 115.195 181.586 115.195C181.045 115.087 180.612 115.087 180.071 114.979C179.963 114.979 179.855 115.087 179.855 115.195C179.747 115.303 179.855 115.411 180.071 115.411Z" fill="#141D3E"/>
<path d="M182.343 112.707C183.209 112.816 184.074 112.924 184.94 113.032C185.048 113.032 185.156 112.924 185.156 112.816C185.156 112.707 185.048 112.599 184.94 112.599C184.074 112.491 183.209 112.383 182.343 112.275C182.235 112.275 182.127 112.383 182.127 112.491C182.127 112.599 182.235 112.707 182.343 112.707Z" fill="#141D3E"/>
<path d="M182.559 120.819C183.1 120.927 183.641 121.035 184.074 121.251C184.182 121.251 184.398 121.251 184.398 121.035C184.398 120.927 184.398 120.71 184.182 120.71C183.641 120.602 183.1 120.494 182.667 120.278C182.559 120.278 182.343 120.278 182.343 120.494C182.343 120.602 182.451 120.71 182.559 120.819Z" fill="#141D3E"/>
<path d="M174.77 120.17C175.527 120.062 176.176 120.17 176.934 120.494C177.042 120.494 177.258 120.494 177.258 120.278C177.258 120.17 177.258 120.062 177.042 119.953C176.285 119.629 175.527 119.521 174.77 119.629C174.662 119.629 174.554 119.737 174.554 119.845C174.554 120.062 174.662 120.17 174.77 120.17Z" fill="#141D3E"/>
<path d="M169.902 122.981C170.551 123.198 171.092 123.522 171.741 123.738C171.849 123.846 172.066 123.738 172.066 123.63C172.174 123.522 172.066 123.306 171.958 123.306C171.308 123.089 170.768 122.765 170.118 122.549C170.01 122.441 169.794 122.549 169.794 122.657C169.794 122.765 169.794 122.873 169.902 122.981Z" fill="#141D3E"/>
<path d="M171.2 129.254C172.066 129.362 172.931 129.362 173.796 129.47C173.905 129.47 174.013 129.362 174.013 129.254C174.013 129.146 173.905 129.038 173.796 129.038C172.931 128.929 172.066 128.929 171.2 128.821C171.092 128.821 170.984 128.929 170.984 129.038C170.876 129.146 170.984 129.254 171.2 129.254Z" fill="#141D3E"/>
<path d="M174.662 126.55C175.419 126.767 176.285 126.875 177.042 127.091C177.366 127.199 177.475 126.659 177.15 126.659C176.393 126.442 175.527 126.334 174.77 126.118C174.554 126.01 174.446 126.442 174.662 126.55Z" fill="#141D3E"/>
<path d="M178.773 129.254C179.314 129.47 179.963 129.578 180.504 129.794C180.612 129.794 180.828 129.794 180.828 129.578C180.828 129.47 180.828 129.362 180.612 129.254C180.071 129.037 179.422 128.929 178.881 128.713C178.773 128.713 178.557 128.713 178.557 128.929C178.557 129.037 178.665 129.254 178.773 129.254Z" fill="#141D3E"/>
<path d="M174.554 134.661C175.311 134.877 176.177 134.986 176.934 135.202C177.259 135.31 177.367 134.769 177.042 134.769C176.285 134.553 175.42 134.445 174.662 134.229C174.446 134.12 174.23 134.553 174.554 134.661Z" fill="#141D3E"/>
<path d="M169.362 134.12C170.119 134.228 170.768 134.228 171.525 134.336C171.634 134.336 171.742 134.228 171.742 134.12C171.742 134.012 171.634 133.904 171.525 133.904C170.768 133.796 170.119 133.796 169.362 133.688C169.254 133.688 169.146 133.796 169.146 133.904C169.146 134.012 169.254 134.12 169.362 134.12Z" fill="#141D3E"/>
<path d="M168.279 139.744C169.037 139.744 169.686 139.96 170.335 140.176C170.443 140.285 170.659 140.176 170.659 140.068C170.768 139.96 170.659 139.744 170.551 139.744C169.794 139.419 169.037 139.203 168.171 139.203C167.955 139.203 167.955 139.744 168.279 139.744Z" fill="#141D3E"/>
<path d="M174.446 142.772C174.987 142.988 175.636 143.204 176.177 143.421C176.285 143.421 176.501 143.421 176.501 143.204C176.501 143.096 176.501 142.988 176.285 142.88C175.744 142.664 175.095 142.447 174.554 142.231C174.446 142.231 174.229 142.231 174.229 142.447C174.229 142.555 174.338 142.664 174.446 142.772Z" fill="#141D3E"/>
<path d="M176.826 140.284C177.8 140.284 178.774 140.609 179.531 140.933C179.639 141.041 179.855 140.933 179.855 140.825C179.964 140.717 179.855 140.501 179.747 140.501C178.774 140.068 177.8 139.744 176.718 139.744C176.502 139.744 176.502 140.284 176.826 140.284Z" fill="#141D3E"/>
<path d="M167.847 146.232C168.604 146.232 169.47 146.341 170.227 146.341C170.335 146.341 170.443 146.232 170.443 146.124C170.443 146.016 170.335 145.908 170.227 145.908C169.47 145.908 168.604 145.8 167.847 145.8C167.739 145.8 167.631 145.908 167.631 146.016C167.631 146.124 167.739 146.232 167.847 146.232Z" fill="#141D3E"/>
<path d="M180.071 147.963C180.828 148.179 181.586 148.396 182.235 148.504C182.559 148.612 182.667 148.071 182.343 148.071C181.586 147.855 180.828 147.639 180.179 147.53C179.963 147.422 179.855 147.855 180.071 147.963Z" fill="#141D3E"/>
<path d="M182.343 140.717C183.317 140.717 184.398 140.609 185.372 140.609C185.697 140.609 185.697 140.068 185.372 140.068C184.398 140.068 183.317 140.177 182.343 140.177C182.018 140.177 182.018 140.717 182.343 140.717Z" fill="#141D3E"/>
<path d="M186.562 132.823C187.319 132.823 188.184 132.715 188.942 132.715C189.266 132.715 189.266 132.174 188.942 132.174C188.184 132.174 187.319 132.282 186.562 132.282C186.237 132.39 186.237 132.931 186.562 132.823Z" fill="#141D3E"/>
<path d="M185.047 125.469C185.804 125.469 186.453 125.361 187.211 125.361C187.535 125.361 187.535 124.82 187.211 124.82C186.453 124.82 185.804 124.928 185.047 124.928C184.723 125.036 184.723 125.469 185.047 125.469Z" fill="#141D3E"/>
<path d="M191.322 117.791C192.188 117.683 193.053 117.683 193.919 117.899C194.243 118.007 194.351 117.466 194.027 117.466C193.161 117.25 192.188 117.25 191.322 117.358C191.214 117.358 191.106 117.466 191.106 117.574C190.998 117.683 191.106 117.899 191.322 117.791Z" fill="#141D3E"/>
<path d="M195.216 124.063C195.865 124.171 196.515 124.279 197.164 124.387C197.272 124.387 197.488 124.387 197.488 124.171C197.488 124.063 197.488 123.846 197.272 123.846C196.623 123.738 195.974 123.63 195.325 123.522C195.216 123.522 195 123.522 195 123.738C195 123.846 195 123.955 195.216 124.063Z" fill="#141D3E"/>
<path d="M195.649 132.173C196.406 131.957 197.163 131.957 197.92 132.39C198.245 132.498 198.461 132.065 198.137 131.957C197.38 131.525 196.406 131.416 195.541 131.741C195.432 131.741 195.324 131.957 195.324 132.065C195.324 132.065 195.541 132.173 195.649 132.173Z" fill="#141D3E"/>
<path d="M196.081 141.474C196.947 141.474 197.812 141.366 198.678 141.366C199.002 141.366 199.002 140.825 198.678 140.825C197.812 140.825 196.947 140.933 196.081 140.933C195.757 140.933 195.757 141.474 196.081 141.474Z" fill="#141D3E"/>
<path d="M191.971 147.53C192.728 147.53 193.594 147.422 194.351 147.422C194.675 147.422 194.675 146.881 194.351 146.881C193.594 146.881 192.728 146.989 191.971 146.989C191.646 146.989 191.646 147.53 191.971 147.53Z" fill="#141D3E"/>
<path d="M188.509 140.176C189.158 140.068 189.807 139.96 190.456 139.852C190.564 139.852 190.673 139.635 190.673 139.527C190.673 139.419 190.456 139.311 190.348 139.311C189.699 139.419 189.05 139.527 188.401 139.635C188.293 139.635 188.185 139.852 188.185 139.96C188.185 140.176 188.401 140.284 188.509 140.176Z" fill="#141D3E"/>
<path d="M202.68 148.179C203.546 148.395 204.411 148.395 205.168 148.179C205.277 148.179 205.385 147.963 205.385 147.854C205.385 147.746 205.168 147.638 205.06 147.638C204.303 147.746 203.546 147.746 202.789 147.638C202.464 147.638 202.356 148.071 202.68 148.179Z" fill="#141D3E"/>
<path d="M203.005 141.366C203.87 141.15 204.736 141.042 205.601 141.042C205.926 141.042 205.926 140.609 205.601 140.501C204.736 140.501 203.762 140.609 202.897 140.825C202.464 141.042 202.68 141.474 203.005 141.366Z" fill="#141D3E"/>
<path d="M208.63 145.8C209.171 145.584 209.82 145.475 210.469 145.584C210.577 145.584 210.686 145.584 210.794 145.367C210.794 145.259 210.794 145.043 210.577 145.043C209.82 144.935 209.171 145.043 208.522 145.259C208.414 145.259 208.306 145.475 208.306 145.584C208.306 145.692 208.414 145.8 208.63 145.8Z" fill="#141D3E"/>
<path d="M189.05 144.502C189.591 144.394 190.24 144.286 190.781 144.178C190.889 144.178 190.997 143.962 190.997 143.853C190.997 143.745 190.781 143.637 190.673 143.637C190.132 143.745 189.483 143.853 188.942 143.962C188.834 143.962 188.726 144.178 188.726 144.286C188.834 144.502 188.942 144.611 189.05 144.502Z" fill="#141D3E"/>
<path d="M197.055 149.909C197.812 149.909 198.461 149.801 199.218 149.801C199.543 149.801 199.543 149.26 199.218 149.26C198.461 149.26 197.812 149.368 197.055 149.368C196.73 149.477 196.73 150.017 197.055 149.909Z" fill="#141D3E"/>
<path d="M204.195 134.985C205.168 135.094 206.142 134.985 207.115 134.769C207.44 134.661 207.332 134.228 207.007 134.337C206.142 134.553 205.168 134.661 204.195 134.553C203.87 134.445 203.87 134.985 204.195 134.985Z" fill="#141D3E"/>
<path d="M202.897 125.469C203.654 125.577 204.303 125.469 205.061 125.253C205.169 125.253 205.277 125.036 205.277 124.928C205.277 124.82 205.061 124.712 204.953 124.712C204.412 124.928 203.763 125.036 203.113 124.928C203.005 124.928 202.897 124.928 202.789 125.144C202.681 125.253 202.789 125.469 202.897 125.469Z" fill="#141D3E"/>
<path d="M199.327 116.385C200.085 116.385 200.734 116.277 201.491 116.277C201.815 116.277 201.815 115.736 201.491 115.736C200.734 115.736 200.085 115.844 199.327 115.844C199.003 115.952 199.003 116.493 199.327 116.385Z" fill="#141D3E"/>
<path d="M206.9 118.98C207.765 118.872 208.739 118.872 209.604 118.98C209.712 118.98 209.929 118.98 209.929 118.764C209.929 118.656 209.928 118.44 209.712 118.44C208.739 118.223 207.765 118.223 206.683 118.44C206.575 118.44 206.467 118.656 206.467 118.764C206.683 118.98 206.791 118.98 206.9 118.98Z" fill="#141D3E"/>
<path d="M209.063 126.118C209.172 126.118 209.172 126.118 209.28 126.01C209.388 126.01 209.388 126.01 209.496 126.01H209.604C209.712 126.01 209.821 126.01 209.821 126.01H209.929H210.037C210.145 126.01 210.037 126.01 210.037 126.01C210.145 126.01 210.145 126.118 210.253 126.118L210.361 126.226C210.47 126.334 210.578 126.334 210.686 126.226C210.794 126.118 210.794 126.01 210.686 125.901C210.145 125.361 209.28 125.253 208.631 125.577C208.522 125.685 208.522 125.793 208.522 125.901C208.739 126.226 208.955 126.226 209.063 126.118Z" fill="#141D3E"/>
<path d="M208.954 133.796C209.82 133.796 210.685 133.688 211.551 133.688C211.875 133.688 211.875 133.147 211.551 133.147C210.685 133.147 209.82 133.255 208.954 133.255C208.63 133.255 208.63 133.796 208.954 133.796Z" fill="#141D3E"/>
<path d="M211.984 141.474C212.633 141.15 213.498 141.15 214.255 141.366C214.58 141.474 214.688 140.934 214.364 140.934C213.498 140.717 212.525 140.717 211.767 141.15C211.659 141.258 211.659 141.366 211.659 141.474C211.767 141.582 211.876 141.582 211.984 141.474Z" fill="#141D3E"/>
<path d="M212.633 149.585C213.282 149.369 213.931 149.044 214.58 148.828C214.689 148.828 214.797 148.612 214.797 148.503C214.797 148.395 214.58 148.287 214.472 148.287C213.823 148.503 213.174 148.828 212.525 149.044C212.417 149.044 212.309 149.26 212.309 149.369C212.417 149.477 212.525 149.585 212.633 149.585Z" fill="#141D3E"/>
<path d="M135.935 34.7356C139.396 53.4445 145.346 72.9105 159.95 85.9959C163.628 89.2402 167.631 91.9438 172.174 93.9986C172.499 94.1067 172.715 93.6741 172.391 93.566C155.19 85.7796 145.346 68.4765 140.154 50.9572C138.531 45.55 137.341 40.0346 136.367 34.5193C136.367 34.303 135.935 34.4111 135.935 34.7356Z" fill="#141D3E"/>
<path d="M134.96 37.9801C140.586 36.1417 146.211 33.9788 151.728 31.7078C152.053 31.5996 151.944 31.0589 151.62 31.2752C146.103 33.5462 140.586 35.7091 134.852 37.5476C134.528 37.6557 134.636 38.0883 134.96 37.9801Z" fill="#141D3E"/>
<path d="M216.636 103.948C235.567 112.167 256.121 116.384 276.783 116.601C277.108 116.601 277.108 116.06 276.783 116.06C256.229 115.952 235.783 111.626 216.96 103.515C216.528 103.407 216.311 103.84 216.636 103.948Z" fill="#141D3E"/>
<path d="M272.348 98.1081C272.78 105.029 273.538 111.951 274.619 118.872C274.619 119.196 275.16 119.088 275.052 118.764C273.97 111.951 273.213 105.029 272.78 98.1081C272.78 97.7836 272.348 97.7836 272.348 98.1081Z" fill="#141D3E"/>
<path d="M175.852 78.4259C176.609 81.454 175.528 84.5901 174.662 87.51C173.797 90.2136 172.823 92.9173 171.201 95.2964C170.984 95.5127 171.417 95.8371 171.633 95.5127C173.364 93.0254 174.446 90.2136 175.203 87.4019C176.069 84.482 177.15 81.3458 176.285 78.3178C176.285 77.9934 175.744 78.2096 175.852 78.4259Z" fill="#141D3E"/>
<path d="M215.553 87.5099C215.013 93.7823 215.445 100.163 216.852 106.327C216.96 106.651 217.393 106.543 217.284 106.219C215.878 100.055 215.445 93.7823 215.986 87.5099C216.094 87.1855 215.553 87.1855 215.553 87.5099Z" fill="#141D3E"/>
<path d="M190.89 79.9401C190.349 82.2111 191.971 84.5903 194.351 84.9147C195.541 85.131 196.839 84.8066 197.813 84.0496C198.354 83.617 198.787 83.1844 199.219 82.6437C199.652 82.103 200.085 81.6704 200.085 80.9134C200.085 80.589 199.544 80.589 199.544 80.9134C199.544 81.5623 199.003 82.103 198.57 82.5356C198.246 82.9682 197.813 83.4007 197.38 83.617C196.515 84.1577 195.325 84.4822 194.351 84.2659C192.404 83.9414 190.89 81.9949 191.43 79.9401C191.43 79.7238 190.89 79.6157 190.89 79.9401Z" fill="#141D3E"/>
<path d="M180.72 134.445C181.694 134.769 182.668 134.985 183.641 135.31C183.966 135.418 184.074 134.877 183.749 134.877C182.776 134.553 181.802 134.336 180.829 134.012C180.504 133.796 180.396 134.336 180.72 134.445Z" fill="#141D3E"/>
<path d="M174.879 148.287C175.528 148.504 176.177 148.72 176.826 148.828C177.15 148.936 177.259 148.395 176.934 148.395C176.285 148.179 175.636 147.963 174.987 147.855C174.771 147.638 174.662 148.179 174.879 148.287Z" fill="#141D3E"/>
<path d="M182.451 144.718C183.1 144.718 183.749 144.718 184.398 144.61C184.507 144.61 184.615 144.502 184.615 144.394C184.615 144.286 184.507 144.178 184.398 144.178C183.749 144.178 183.1 144.178 182.451 144.286C182.343 144.286 182.235 144.394 182.235 144.502C182.127 144.61 182.235 144.718 182.451 144.718Z" fill="#141D3E"/>
<path d="M189.591 128.064C190.348 128.064 191.106 127.956 191.863 127.956C192.187 127.956 192.187 127.416 191.863 127.416C191.106 127.416 190.348 127.524 189.591 127.524C189.267 127.524 189.267 128.064 189.591 128.064Z" fill="#141D3E"/>
<path d="M186.562 117.358C187.427 117.358 188.293 117.25 189.158 117.25C189.483 117.25 189.483 116.709 189.158 116.709C188.293 116.709 187.427 116.817 186.562 116.817C186.237 116.817 186.237 117.358 186.562 117.358Z" fill="#141D3E"/>
<path d="M194.567 136.067C195.432 136.067 196.298 135.959 197.163 135.959C197.487 135.959 197.487 135.418 197.163 135.418C196.298 135.418 195.432 135.526 194.567 135.526C194.242 135.526 194.242 136.067 194.567 136.067Z" fill="#141D3E"/>
<path d="M186.237 150.125C187.211 150.017 188.184 149.585 189.05 148.936C189.158 148.828 189.158 148.72 189.05 148.611C188.941 148.503 188.833 148.503 188.725 148.611C188.076 149.152 187.211 149.585 186.345 149.693C186.237 149.693 186.129 149.801 186.129 149.909C186.021 150.017 186.129 150.125 186.237 150.125Z" fill="#141D3E"/>
<path d="M201.815 131.417C202.464 131.633 203.221 131.417 203.654 130.984C203.762 130.876 203.762 130.768 203.654 130.66C203.546 130.552 203.438 130.552 203.329 130.66C203.329 130.66 203.221 130.66 203.221 130.768C203.113 130.768 203.113 130.876 203.005 130.876H202.897C202.789 130.876 202.789 130.876 202.68 130.876H202.572C202.572 130.876 202.572 130.876 202.464 130.876C202.356 130.876 202.356 130.876 202.248 130.876H202.14C202.031 130.876 202.031 130.876 201.923 130.876C201.815 130.876 201.599 130.876 201.599 131.092C201.599 131.309 201.707 131.417 201.815 131.417Z" fill="#141D3E"/>
<path d="M194.567 112.059C195.541 112.167 196.514 112.275 197.488 112.383C197.596 112.383 197.704 112.275 197.704 112.167C197.704 112.059 197.596 111.951 197.488 111.951C196.514 111.843 195.541 111.735 194.567 111.626C194.459 111.626 194.351 111.735 194.351 111.843C194.351 111.951 194.459 112.059 194.567 112.059Z" fill="#141D3E"/>
<path d="M200.193 121.035C200.95 121.035 201.707 120.926 202.464 120.926C202.789 120.926 202.789 120.386 202.464 120.386C201.707 120.386 200.95 120.494 200.193 120.494C199.868 120.602 199.868 121.035 200.193 121.035Z" fill="#141D3E"/>
<path d="M208.847 139.311C209.604 138.987 210.469 138.878 211.335 138.987C211.443 138.987 211.551 138.987 211.659 138.77C211.659 138.662 211.659 138.446 211.443 138.446C210.469 138.338 209.496 138.446 208.63 138.77C208.522 138.77 208.414 138.987 208.414 139.095C208.522 139.311 208.63 139.419 208.847 139.311Z" fill="#141D3E"/>
<path d="M211.551 151.424C212.741 155.857 212.417 160.724 214.04 165.05C214.689 166.672 215.554 168.294 216.744 169.592C217.285 170.241 217.934 170.673 218.691 171.106C219.016 171.322 219.34 171.43 219.665 171.646C219.881 171.755 219.989 171.755 220.206 171.863C220.314 171.863 220.53 171.971 220.638 171.971C220.747 172.079 220.963 171.971 221.071 171.863C220.747 171.755 220.53 172.295 220.963 172.404C221.287 172.404 221.612 172.295 221.504 171.971C221.396 171.43 220.422 171.43 220.097 171.214C217.934 170.349 216.203 168.51 215.121 166.456C212.741 161.805 213.282 156.29 211.984 151.207C211.984 150.991 211.443 151.099 211.551 151.424Z" fill="white"/>
<path d="M169.254 149.693C169.254 154.127 170.335 158.453 170.011 162.778C169.686 166.347 168.172 170.132 164.926 171.971C164.602 172.187 164.926 172.62 165.251 172.403C168.388 170.673 170.011 167.321 170.552 163.86C171.201 159.102 169.903 154.451 169.903 149.693C169.794 149.369 169.254 149.369 169.254 149.693Z" fill="white"/>
<path d="M209.604 151.423C209.604 152.18 209.604 153.045 209.82 153.802C209.928 154.127 210.469 154.019 210.361 153.694C210.144 152.937 210.036 152.18 210.144 151.531C210.144 151.423 210.036 151.207 209.82 151.207C209.712 151.207 209.604 151.315 209.604 151.423Z" fill="white"/>
<path d="M209.82 155.208C209.82 155.965 209.928 156.614 209.928 157.371C209.928 157.479 210.037 157.696 210.253 157.696C210.361 157.696 210.578 157.587 210.578 157.371C210.578 156.614 210.469 155.965 210.469 155.208C210.469 155.1 210.361 154.884 210.145 154.884C210.037 154.992 209.82 155.1 209.82 155.208Z" fill="white"/>
<path d="M210.145 160.075C210.361 160.832 210.47 161.589 210.686 162.346C210.794 162.67 211.335 162.562 211.227 162.238C211.011 161.481 210.902 160.724 210.686 159.967C210.578 159.534 210.037 159.751 210.145 160.075Z" fill="white"/>
<path d="M211.551 164.941C211.768 165.915 212.2 166.672 212.741 167.429C212.849 167.537 213.066 167.537 213.174 167.429C213.282 167.321 213.282 167.212 213.174 166.996C212.633 166.347 212.308 165.59 212.092 164.725C212.092 164.617 211.876 164.509 211.768 164.509C211.551 164.617 211.443 164.725 211.551 164.941Z" fill="white"/>
<path d="M214.039 169.916C214.472 170.349 214.796 170.781 215.229 171.214C215.337 171.322 215.554 171.322 215.662 171.214C215.77 171.106 215.77 170.889 215.662 170.781C215.229 170.349 214.905 169.916 214.472 169.483C214.364 169.375 214.147 169.375 214.039 169.483C213.931 169.592 213.931 169.808 214.039 169.916Z" fill="white"/>
<path d="M216.852 172.403C217.285 172.836 217.826 173.052 218.475 173.268C218.583 173.268 218.8 173.268 218.8 173.052C218.8 172.944 218.8 172.728 218.583 172.728C218.475 172.728 218.367 172.619 218.15 172.619C218.15 172.619 218.042 172.619 218.15 172.619H218.042C217.934 172.619 217.934 172.511 217.826 172.511C217.718 172.403 217.61 172.403 217.501 172.295C217.393 172.295 217.393 172.187 217.285 172.187C217.285 172.187 217.177 172.187 217.177 172.079C217.069 171.971 216.852 171.971 216.744 172.079C216.744 172.079 216.744 172.295 216.852 172.403Z" fill="white"/>
<path d="M220.097 173.917C220.53 174.025 220.963 174.025 221.395 174.133C221.504 174.133 221.504 174.133 221.612 174.133C221.72 174.133 221.72 174.025 221.72 173.917C221.72 173.809 221.72 173.593 221.504 173.593C221.071 173.485 220.638 173.485 220.205 173.376C220.097 173.376 220.097 173.376 219.989 173.376C219.881 173.376 219.881 173.485 219.881 173.593C219.881 173.701 219.989 173.917 220.097 173.917Z" fill="white"/>
<path d="M171.958 153.802C172.174 154.451 172.283 155.208 172.283 155.857C172.283 155.965 172.391 156.182 172.607 156.182C172.715 156.182 172.823 156.073 172.932 155.857C172.932 155.1 172.823 154.343 172.607 153.694C172.607 153.586 172.391 153.478 172.283 153.478C172.066 153.478 171.958 153.694 171.958 153.802Z" fill="white"/>
<path d="M172.715 158.128C172.715 158.993 172.823 159.858 172.823 160.724C172.823 161.048 173.364 161.048 173.364 160.724C173.364 159.858 173.256 158.993 173.256 158.128C173.256 157.804 172.715 157.804 172.715 158.128Z" fill="white"/>
<path d="M172.932 163.319C172.932 164.184 172.715 165.049 172.499 165.915C172.499 166.023 172.607 166.239 172.715 166.239C172.824 166.239 173.04 166.239 173.04 166.023C173.364 165.157 173.473 164.292 173.473 163.319C173.473 162.995 172.932 162.995 172.932 163.319Z" fill="white"/>
<path d="M171.525 168.51C171.417 168.618 171.417 168.726 171.308 168.943C171.308 168.943 171.308 169.051 171.2 169.051C171.2 169.159 171.092 169.159 171.092 169.267C170.984 169.375 170.876 169.483 170.768 169.591C170.659 169.591 170.659 169.7 170.551 169.7C170.551 169.7 170.443 169.7 170.443 169.808C170.335 169.916 170.227 170.024 170.335 170.132C170.443 170.24 170.551 170.348 170.659 170.24C171.2 169.808 171.633 169.375 171.958 168.726C172.066 168.618 171.958 168.402 171.849 168.402C171.741 168.402 171.633 168.402 171.525 168.51Z" fill="white"/>
<path d="M168.171 171.863C168.063 171.971 168.063 172.079 167.955 172.079L167.847 172.187C167.847 172.187 167.847 172.187 167.739 172.187C167.631 172.295 167.522 172.295 167.414 172.403L167.306 172.511C167.306 172.511 167.306 172.511 167.198 172.511C167.198 172.511 167.09 172.511 167.198 172.511C167.09 172.511 167.09 172.62 166.981 172.62C166.981 172.728 166.981 172.728 166.981 172.836C166.981 172.944 167.198 173.052 167.306 173.052C167.739 172.836 168.28 172.511 168.604 172.187C168.712 172.079 168.712 171.863 168.604 171.754C168.388 171.754 168.28 171.754 168.171 171.863Z" fill="white"/>
<path d="M166.116 173.377C165.683 173.377 165.25 173.593 165.034 173.917C164.926 174.026 165.034 174.242 165.142 174.242C165.25 174.35 165.467 174.242 165.467 174.134C165.467 174.134 165.467 174.026 165.575 174.026C165.575 174.026 165.575 174.026 165.575 174.134C165.575 174.026 165.683 174.026 165.683 174.026C165.683 174.026 165.683 174.026 165.575 174.026C165.683 174.026 165.683 173.917 165.791 173.917C165.791 173.917 165.791 173.917 165.683 173.917C165.791 173.917 165.791 173.917 165.899 173.809C165.899 173.809 165.9 173.809 165.791 173.809C165.9 173.809 165.9 173.809 166.008 173.809C166.116 173.809 166.116 173.809 166.224 173.701C166.224 173.701 166.332 173.593 166.332 173.485C166.332 173.377 166.332 173.377 166.224 173.269C166.224 173.485 166.116 173.485 166.116 173.377Z" fill="white"/>
<path d="M199.111 69.8828C199.003 69.9909 199.111 69.7747 199.111 69.8828C199.003 69.8828 199.003 69.8828 199.111 69.8828C199.111 69.9909 199.003 69.9909 199.003 70.0991C199.003 70.0991 198.894 70.2072 199.003 70.0991C199.003 70.0991 198.894 70.0991 198.894 70.2072H198.786C198.786 70.2072 198.786 70.2072 198.678 70.2072C198.678 70.2072 198.678 70.2072 198.57 70.2072C198.462 70.2072 198.57 70.2072 198.57 70.2072H198.462C198.462 70.2072 198.462 70.2072 198.354 70.2072C198.462 70.2072 198.354 70.2072 198.354 70.2072C198.354 70.2072 198.245 70.2072 198.245 70.0991L198.137 69.9909C198.137 69.9909 198.137 69.8828 198.029 69.8828C197.921 69.7747 197.705 69.6665 197.596 69.7746C197.488 69.8828 197.38 69.9909 197.488 70.2072C197.705 70.6398 198.137 70.9642 198.57 70.9642C199.111 70.9642 199.544 70.5317 199.652 70.0991C199.76 69.9909 199.544 69.7746 199.435 69.7746C199.219 69.6665 199.111 69.6665 199.111 69.8828Z" fill="#1C4E60"/>
<path d="M195.649 69.6665V69.7746C195.649 69.7746 195.649 69.8828 195.649 69.7746C195.649 69.7746 195.649 69.7746 195.649 69.8828C195.649 69.8828 195.649 69.9909 195.541 69.9909C195.541 69.9909 195.432 69.9909 195.541 69.9909C195.541 69.9909 195.432 69.9909 195.432 70.0991C195.432 70.0991 195.324 70.0991 195.432 70.0991C195.432 70.0991 195.432 70.0991 195.324 70.0991H195.216C195.216 70.0991 195.216 70.0991 195.108 70.0991C195.108 70.0991 195 70.0991 195.108 70.0991C195.108 70.0991 195.108 70.0991 195 70.0991C195 70.0991 194.891 70.0991 195 70.0991C195 70.0991 195 70.0991 195 69.9909C195 69.8828 195 69.9909 195 69.9909C195 69.9909 195 69.8828 194.891 69.8828V69.7746C194.891 69.6665 194.675 69.5583 194.567 69.5583C194.459 69.5583 194.351 69.7746 194.351 69.8828C194.459 70.4235 195 70.8561 195.541 70.8561C196.081 70.8561 196.514 70.3153 196.622 69.7746C196.622 69.6665 196.622 69.4502 196.406 69.4502C195.865 69.4502 195.757 69.5583 195.649 69.6665Z" fill="#1C4E60"/>
<path d="M197.812 73.1267C196.947 73.5593 195.865 73.343 195.216 72.8023C195.108 72.6942 194.891 72.6942 194.783 72.8023C194.675 72.9104 194.675 73.1267 194.783 73.2349C195.757 73.9919 197.055 74.2082 198.137 73.6674C198.245 73.5593 198.353 73.343 198.245 73.2349C198.137 73.1267 197.92 73.0186 197.812 73.1267Z" fill="#1C4E60"/>
</svg>
