<svg width="184" height="622" viewBox="0 0 184 622" fill="none" xmlns="http://www.w3.org/2000/svg">
<g clip-path="url(#clip0)">
<path d="M32.917 68.9424C32.917 131.355 32.917 193.616 32.917 256.028C32.917 354.582 32.917 453.137 32.917 551.691C32.917 574.469 32.917 597.247 32.917 620.026C32.917 622.455 36.7092 622.455 36.7092 620.026C36.7092 557.613 36.7092 495.352 36.7092 432.94C36.7092 334.386 36.7092 235.832 36.7092 137.277C36.7092 114.499 36.7092 91.7207 36.7092 68.9424C36.7092 66.5127 32.917 66.5127 32.917 68.9424Z" fill="#1C2243"/>
<path d="M179.904 68.9424C179.904 131.355 179.904 193.616 179.904 256.028C179.904 354.582 179.904 453.137 179.904 551.691C179.904 574.469 179.904 597.247 179.904 620.026C179.904 622.455 183.697 622.455 183.697 620.026C183.697 557.613 183.697 495.352 183.697 432.94C183.697 334.386 183.697 235.832 183.697 137.277C183.697 114.499 183.697 91.7207 183.697 68.9424C183.697 66.5127 179.904 66.5127 179.904 68.9424Z" fill="#1C2243"/>
<path d="M34.8886 118.447C83.8845 118.447 132.88 118.447 181.725 118.447C184.152 118.447 184.152 114.651 181.725 114.651C132.729 114.651 83.7328 114.651 34.8886 114.651C32.4616 114.651 32.4616 118.447 34.8886 118.447Z" fill="#1C2243"/>
<path d="M34.8886 195.894C83.8845 195.894 132.88 195.894 181.725 195.894C184.152 195.894 184.152 192.097 181.725 192.097C132.729 192.097 83.7328 192.097 34.8886 192.097C32.4616 192.097 32.4616 195.894 34.8886 195.894Z" fill="#1C2243"/>
<path d="M34.8886 291.259C83.8845 291.259 132.88 291.259 181.725 291.259C184.152 291.259 184.152 287.462 181.725 287.462C132.729 287.462 83.7328 287.462 34.8886 287.462C32.4616 287.462 32.4616 291.259 34.8886 291.259Z" fill="#1C2243"/>
<path d="M34.8886 386.472C83.8845 386.472 132.88 386.472 181.725 386.472C184.152 386.472 184.152 382.676 181.725 382.676C132.729 382.676 83.7328 382.676 34.8886 382.676C32.4616 382.828 32.4616 386.472 34.8886 386.472Z" fill="#1C2243"/>
<path d="M34.8886 471.663C83.8845 471.663 132.88 471.663 181.725 471.663C184.152 471.663 184.152 467.867 181.725 467.867C132.729 467.867 83.7328 467.867 34.8886 467.867C32.4616 467.867 32.4616 471.663 34.8886 471.663Z" fill="#1C2243"/>
<path d="M34.8886 561.562C83.8845 561.562 132.88 561.562 181.725 561.562C184.152 561.562 184.152 557.765 181.725 557.765C132.729 557.765 83.7328 557.765 34.8886 557.765C32.4616 557.765 32.4616 561.562 34.8886 561.562Z" fill="#1C2243"/>
<path d="M109.975 286.703C111.947 283.514 113.616 280.325 114.981 276.985C116.043 276.985 116.498 278.199 116.65 279.262C116.801 280.325 116.801 281.54 117.711 282.148C119.077 279.718 120.442 277.44 121.807 275.01C122.262 274.099 122.869 273.188 123.779 272.733C125.144 271.973 126.813 272.581 127.42 273.947C128.026 275.162 127.875 276.833 127.571 278.351C126.206 284.729 122.11 290.955 116.498 294.904C113.768 292.474 111.34 289.437 109.672 286.096" fill="#ED6061"/>
<path d="M68.7161 205.764C69.1712 208.498 68.1094 211.079 68.1094 213.812C68.1094 213.964 68.1094 214.116 68.2611 214.268C68.4128 214.572 68.7161 214.572 69.0195 214.724C71.5982 215.331 74.177 215.179 76.7557 214.724C77.0591 211.99 77.3625 209.257 77.5142 206.523" fill="#B1BFE2"/>
<path d="M106.184 87.7722C104.667 96.428 97.8409 102.958 91.3182 108.728C84.7956 114.499 77.6661 120.421 74.6323 128.621C73.1154 132.721 72.8121 137.277 72.5087 141.681C70.9918 162.789 69.0198 183.745 66.5928 204.701C70.9918 206.523 75.6942 207.434 80.3966 207.586C80.5483 189.515 84.7956 171.9 90.1047 154.741C91.925 149.122 93.7453 143.503 96.4757 138.188C101.33 128.773 108.611 120.725 113.465 111.31C117.409 103.869 119.684 95.6687 120.443 87.3167C115.589 86.2537 110.583 86.4055 105.88 87.4685" fill="#126D97"/>
<path d="M120.594 202.879C121.807 205.916 122.717 209.105 123.324 212.294C123.324 212.598 123.476 212.901 123.628 212.901C123.779 212.901 123.931 212.901 124.083 212.901C126.358 212.294 128.633 211.079 131.06 211.079C131.364 209.257 130.605 207.283 129.999 205.612C129.392 204.246 128.937 202.727 128.33 201.36" fill="#B1BFE2"/>
<path d="M123.325 210.472C125.752 212.446 129.999 211.231 131.061 208.346C133.336 210.168 135.46 212.294 136.977 214.724C133.792 216.85 130.606 218.976 127.421 220.95C124.538 222.62 121.656 224.442 118.623 225.354C115.437 226.416 112.1 226.872 108.763 225.961C110.128 225.05 111.645 224.291 113.313 223.835C114.224 223.531 115.285 223.228 116.044 222.62C116.651 222.165 116.954 221.557 117.409 220.95C119.229 217.457 121.201 213.964 123.325 210.472Z" fill="#6B007C"/>
<path d="M68.1094 212.446C70.8398 214.42 74.7837 214.116 77.3625 211.99C79.6378 214.42 81.3064 217.305 82.0649 220.494C78.2726 222.468 74.4804 224.291 70.6881 226.265C67.9577 227.631 65.0756 228.998 62.0418 229.757C59.008 230.365 55.6708 230.365 52.9404 228.846C52.4853 228.542 52.0302 228.239 52.0302 227.783C51.8785 226.872 52.9404 226.265 53.6988 226.113C54.7607 225.809 55.9742 225.657 57.1877 225.657C58.0978 225.657 59.1597 225.657 59.9181 225.202C60.5249 224.898 60.8283 224.291 61.1316 223.835C63.407 220.494 65.5307 217.001 67.5026 213.509C67.6543 213.357 67.806 213.053 68.1094 213.205C68.2611 213.357 68.1094 212.598 67.9577 213.509" fill="#6B007C"/>
<path d="M112.555 88.228C113.313 96.7319 108.914 104.932 103.605 111.614C98.2961 118.295 91.9251 124.37 87.6778 131.811C86.9193 133.177 86.1609 134.696 85.8575 136.366C85.4024 139.707 86.9193 142.744 88.4362 145.781C98.5994 164.915 108.611 184.201 118.774 203.334C122.718 202.727 126.662 202.271 130.606 201.664C120.139 182.53 114.83 160.967 109.369 139.859C109.066 138.948 108.914 137.885 109.218 136.822C109.521 135.759 110.431 135 111.19 134.392C119.836 127.103 128.634 119.814 137.28 112.525C140.163 110.095 143.196 107.514 144.41 103.869C146.685 97.3394 142.438 90.6577 140.921 83.9761C131.061 85.3428 121.201 87.0132 111.341 88.9873" fill="#1374AA"/>
<path d="M134.853 7.2892C138.342 5.61879 142.589 6.22621 145.623 8.6559C148.657 11.0856 150.326 14.882 150.326 18.6784C150.326 21.108 149.719 23.5377 148.05 25.36C146.533 27.0304 144.41 27.9415 142.286 28.549C140.162 29.1564 138.039 29.4601 135.915 29.1564C133.791 28.8527 131.668 27.7897 130.454 25.9674C129.241 24.1452 129.089 21.8673 129.392 19.7413C129.847 17.6154 130.758 15.6412 131.668 13.6671C132.729 11.2374 133.943 8.95961 135.005 6.52992" fill="black"/>
<path d="M124.69 0.151726C121.808 -0.303841 118.774 0.607292 116.498 2.58141C114.223 4.55553 112.858 7.44079 112.706 10.326C112.403 12.7557 113.01 15.3373 114.223 17.4632C116.954 22.1708 123.476 24.1449 128.482 21.8671C133.336 19.7411 136.218 13.6669 135.005 8.35192C134.398 5.61852 132.881 3.18883 130.606 1.67028C128.33 0.151726 125.448 -0.455696 122.869 0.455436" fill="black"/>
<path d="M117.712 8.04834C117.56 9.41504 117.56 10.7817 117.408 12.1484C117.256 14.2744 117.105 16.5522 117.712 18.5264C118.318 20.6523 119.987 22.4746 122.111 22.7783C123.627 23.082 125.296 22.3228 126.358 21.2598C127.571 20.1968 128.178 18.6782 128.633 17.1597C129.847 18.0708 131.819 17.4634 132.274 15.9448C132.577 14.4263 131.06 12.9077 129.695 13.2114C129.998 11.2373 129.543 9.11133 128.633 7.28906C127.723 5.4668 126.054 3.79639 124.083 3.64453C123.021 3.64453 122.111 3.94824 121.2 4.25195C119.532 4.85937 117.863 6.07422 117.56 7.74463" fill="#B1BFE2"/>
<path d="M114.374 13.8187C119.077 12.9075 123.324 10.326 126.358 6.68147C127.723 8.80745 129.24 10.9334 130.909 12.9075C132.729 9.56673 131.364 4.85921 128.178 2.73323C124.993 0.607256 120.442 0.910967 117.56 3.34065C114.678 5.77034 113.313 10.0223 114.223 13.6668C114.223 13.8187 114.678 13.9705 114.526 13.8187" fill="black"/>
<path d="M120.291 21.8672C120.291 23.9932 120.291 25.9673 120.291 28.0933C118.623 29.0044 116.954 29.9155 115.134 30.5229C116.651 32.1934 118.471 34.0156 120.746 34.623C122.263 35.0786 123.78 34.9268 125.297 34.623C126.966 34.3193 128.634 33.8638 129.848 32.4971C130.758 31.5859 131.213 30.3711 131.668 29.1562C129.848 28.8525 128.027 28.5488 126.055 28.2451C125.904 28.2451 125.752 28.2451 125.6 28.0933C125.449 27.9414 125.449 27.7896 125.449 27.6377C125.449 25.8154 125.449 23.8413 125.449 22.019C123.628 22.3228 122.263 21.2598 120.443 21.2598" fill="#B1BFE2"/>
<path d="M117.257 29.4597C118.167 32.0413 120.897 33.7117 123.628 33.5598C126.358 33.2561 128.633 30.9783 129.088 28.3967C133.791 28.093 138.493 28.093 143.044 28.5486C144.106 28.7004 145.168 28.8523 146.078 29.3079C148.505 30.5227 149.263 33.5598 149.718 36.1414C152.6 51.9343 156.999 61.1975 161.853 76.3831C165.039 85.9499 170.045 99.4651 173.382 108.576C170.5 109.639 163.825 111.006 160.792 112.069C156.393 95.8206 146.381 76.8386 141.679 60.5901C140.92 66.8162 142.437 80.3313 142.589 86.5574C134.398 90.2019 123.476 91.4167 112.554 90.5056C111.644 90.3537 105.728 89.2908 105.273 88.5315C105.273 88.5315 106.335 49.2009 102.239 31.8894C106.942 29.9153 111.947 28.7004 117.105 28.5486" fill="#FF8A00"/>
<path d="M102.239 31.8896C94.5033 35.0786 95.7168 48.7456 94.5033 57.5532C93.4414 64.6904 93.2897 70.7646 93.4414 77.75C93.4414 78.9648 93.5931 80.0278 94.1999 81.0908C95.5651 83.3687 98.5989 83.6724 101.178 83.8242C101.633 83.8242 102.239 83.8242 102.695 83.6724C103.301 83.3686 103.605 82.6094 103.756 81.8501C107.852 68.4868 108.459 54.2124 106.942 40.3936C106.79 38.7231 106.487 37.2046 105.88 35.686C104.97 34.3193 103.756 32.1934 102.239 31.8896Z" fill="#FF8A00"/>
<path d="M110.735 42.0642C113.01 39.6345 115.437 37.053 117.712 34.6233C118.168 34.1677 118.623 33.7122 119.078 33.4084C119.684 33.1047 120.291 33.1047 120.746 33.4084C121.05 33.5603 121.353 34.0159 121.505 34.3196C121.96 35.2307 121.96 36.2937 121.656 37.2048C121.353 38.116 120.898 38.8752 120.443 39.4827C118.774 41.7605 116.954 44.0383 114.982 46.0125C113.465 44.4939 111.948 43.2791 110.128 42.0642" fill="#B1BFE2"/>
<path d="M168.983 109.792C172.776 111.462 177.175 111.158 175.203 111.158C172.169 111.158 181.118 111.614 184.001 112.525C181.27 114.499 177.63 114.347 174.292 114.195C170.5 114.043 166.708 113.74 162.916 113.588C162.916 112.98 162.764 112.373 162.612 111.766" fill="#B1BFE2"/>
<path d="M96.4755 65.9053C93.5934 70.1572 92.0765 75.3203 91.9248 80.3316C91.9248 83.5205 92.8349 87.165 95.7171 88.228C98.5992 89.291 101.633 87.165 103.605 84.7354C107.852 79.4204 109.369 72.7388 110.886 66.0571C112.251 59.9829 113.616 53.9087 114.982 47.6826C115.133 47.2271 115.133 46.7715 114.982 46.4678C114.83 46.0122 114.527 45.7085 114.223 45.4048C113.01 44.0381 111.645 42.8232 110.279 41.6084C104.818 49.9605 100.419 57.5532 96.4755 65.9053Z" fill="#FF8A00"/>
<path d="M117.409 13.6672C116.802 13.2116 115.892 13.3634 115.437 13.819C114.83 14.2746 114.678 15.0339 114.982 15.7931C115.133 16.4006 115.437 16.8561 116.044 17.1598C116.954 17.6154 118.016 17.4635 119.077 17.3117C118.471 16.7043 118.319 15.945 118.167 15.1857C118.016 14.7301 117.864 14.1227 117.712 13.6672" fill="#B1BFE2"/>
<path d="M108.004 44.7974C108.307 45.4048 108.762 45.8604 109.217 46.3159C109.672 46.7715 110.279 47.227 110.886 47.6826C111.948 48.4419 113.161 49.2012 114.375 49.6567C115.285 49.9604 115.74 48.4419 114.83 48.1382C113.768 47.8345 112.706 47.2271 111.796 46.4678C111.341 46.1641 110.886 45.7085 110.431 45.4048C109.976 45.1011 109.521 44.6455 109.369 44.1899C109.217 43.8862 108.611 43.7344 108.307 43.8862C107.852 44.0381 107.852 44.4937 108.004 44.7974Z" fill="white"/>
<path d="M107.094 46.7717C109.218 48.594 111.038 51.0237 114.072 51.3274C114.527 51.3274 114.83 50.8718 114.83 50.5681C114.83 50.1125 114.527 49.8088 114.072 49.8088C111.645 49.5051 109.976 47.2273 108.156 45.7087C107.852 45.405 107.397 45.405 107.094 45.7087C106.79 46.0125 106.639 46.468 107.094 46.7717Z" fill="white"/>
<path d="M160.033 109.791C162.157 109.64 164.432 109.184 166.556 108.728C168.68 108.121 170.803 107.514 172.624 106.451C173.382 105.995 172.624 104.628 171.865 105.084C170.196 106.147 168.225 106.754 166.253 107.21C164.281 107.665 162.157 108.121 160.185 108.273C158.971 108.273 158.971 109.791 160.033 109.791Z" fill="white"/>
<path d="M159.578 108.273C163.674 107.514 167.77 106.451 171.258 104.021C172.017 103.413 171.258 102.199 170.5 102.654C167.163 105.084 163.219 105.995 159.275 106.754C158.213 106.906 158.517 108.425 159.578 108.273Z" fill="white"/>
<path d="M105.122 86.5575C106.336 87.1649 107.397 87.1649 108.763 87.3168C110.279 87.4686 111.645 88.0761 113.01 88.2279C116.044 88.8353 119.381 88.6835 122.415 88.5316C129.089 88.2279 135.612 86.8612 142.134 85.039C143.044 84.7352 142.741 83.2167 141.679 83.5204C135.612 85.3427 129.392 86.7094 123.173 87.0131C120.291 87.1649 117.257 87.1649 114.223 86.8612C112.706 86.7094 111.493 86.1019 109.976 85.7982C108.611 85.6464 107.094 85.7982 105.729 85.1908C104.97 84.8871 104.212 86.1019 105.122 86.5575Z" fill="white"/>
<path d="M132.578 90.5058C135.46 93.2392 135.308 97.7949 133.488 101.136C131.516 104.78 128.179 107.362 124.994 109.943C121.353 112.829 117.864 115.714 114.224 118.751C111.038 121.332 107.701 123.914 105.122 127.103C102.847 129.836 101.33 133.177 101.027 136.822C100.571 141.074 101.785 145.022 103.302 148.818C106.791 157.322 110.28 165.826 113.769 174.33C117.561 183.745 121.201 193.16 125.752 202.271C126.207 203.183 127.572 202.423 127.117 201.512C122.87 193.008 119.533 184.201 115.892 175.393C112.403 166.889 108.914 158.233 105.426 149.729C103.605 145.478 101.937 141.074 102.695 136.366C103.302 131.811 105.881 128.166 109.218 125.129C115.74 119.055 123.022 114.043 129.696 108.121C132.578 105.54 135.308 102.502 136.219 98.5542C136.825 95.2134 136.219 91.8725 133.792 89.4429C132.881 88.6836 131.82 89.7466 132.578 90.5058Z" fill="white"/>
<path d="M67.0476 202.575C71.1432 204.853 75.6939 205.916 80.3963 205.612C81.3064 205.612 81.3064 203.942 80.3963 204.094C75.9973 204.398 71.5983 203.486 67.806 201.361C66.8959 200.753 66.1374 202.12 67.0476 202.575Z" fill="white"/>
<path d="M117.409 201.208C121.353 201.208 125.448 200.753 129.241 199.69C130.151 199.386 129.847 198.02 128.786 198.171C124.993 199.234 121.201 199.69 117.257 199.69C116.499 199.69 116.499 201.208 117.409 201.208Z" fill="white"/>
<path d="M60.0694 319.959C60.0694 323.756 60.2211 327.552 60.2211 331.197C60.2211 331.5 60.2211 331.804 60.0694 331.956C59.9177 332.26 59.4626 332.412 59.1593 332.563C54.6086 334.234 49.9062 336.056 45.3555 337.727C58.4008 343.193 68.109 343.193 78.2722 337.575C73.8732 336.512 69.1708 332.563 64.7718 331.197C63.8617 330.893 65.6819 332.715 65.2269 331.956C64.7718 331.349 64.6201 330.438 64.6201 329.678C64.3167 326.337 64.0133 322.845 63.71 319.504" fill="#DE4E55"/>
<path d="M37.7715 455.87C46.5695 490.038 47.4796 525.572 51.8787 560.802C52.0303 561.561 52.7888 562.624 53.3956 563.08C53.8506 563.536 54.6091 563.536 55.3675 563.536C57.4912 563.536 59.0081 562.473 61.1317 562.625C63.7105 547.895 64.6206 505.527 65.0757 500.06C66.1375 483.66 67.1994 467.411 68.2612 451.011C58.553 452.377 48.8449 453.592 39.2884 454.959" fill="#ED6061"/>
<path d="M69.7773 451.77C73.4179 489.126 77.0585 526.331 80.8507 563.688C83.8845 564.599 86.6149 564.295 89.8004 563.688C92.3792 524.964 95.2613 486.697 97.84 447.974C88.7386 450.555 79.3338 452.074 69.929 452.529" fill="#ED6061"/>
<path d="M51.575 559.132C48.5412 558.98 45.9624 558.98 42.9286 559.284C42.4736 560.195 43.3837 561.106 44.1422 561.562C48.3895 564.447 53.3952 566.117 58.5527 566.269C59.1595 566.269 59.7662 566.269 60.2213 565.965C60.8281 565.51 61.1314 564.75 61.4348 563.991C61.8899 562.321 62.0416 560.499 61.8899 558.828C59.4629 562.169 54.1537 562.321 51.575 559.132Z" fill="#1C4E60"/>
<path d="M90.5593 559.132C93.5931 558.98 96.1718 558.98 99.2056 559.284C99.6607 560.195 98.7506 561.106 97.9921 561.562C93.7448 564.447 88.739 566.117 83.5816 566.269C82.9748 566.269 82.368 566.269 81.913 565.965C81.3062 565.51 81.0028 564.75 80.6995 563.991C80.2444 562.321 80.0927 560.499 80.2444 558.828C82.5197 562.169 87.9806 562.321 90.5593 559.132Z" fill="#1C4E60"/>
<path d="M48.2375 377.057C37.3159 399.987 28.6695 451.314 29.1246 474.245C52.9399 481.686 89.6489 481.686 108.61 471.663C105.88 447.67 91.3175 397.102 77.5137 376.602C64.9234 377.057 60.9795 376.753 48.2375 377.057Z" fill="#4097D2"/>
<path d="M46.328 337.841C39.6537 342.245 30.4006 362.746 20.2373 371.553C19.6306 372.161 18.8721 372.616 18.1137 372.616C16.9002 372.464 16.2934 370.946 15.99 369.579C12.9562 356.064 13.2596 342.397 12.0461 328.578C8.86059 330.4 0.517644 334.045 0.0625741 335.26C-0.240806 336.019 0.517644 363.201 3.24806 374.894C4.76496 381.424 6.58524 388.409 11.591 392.813C12.9562 394.028 14.6248 394.939 16.2934 395.091C18.7204 395.243 20.9958 393.876 22.8161 392.357C31.4624 385.524 39.0469 376.261 45.4179 366.998" fill="#6B007C"/>
<path d="M47.0244 340.61L47.4795 340.307C47.3278 340.458 47.1761 340.61 47.0244 340.61Z" fill="#F5F5FA"/>
<path d="M47.1758 341.067C47.3275 340.915 47.4792 340.915 47.6309 340.763C48.0859 340.46 47.6309 339.549 47.1758 340.004C47.0241 340.156 46.8724 340.156 46.7207 340.308C46.2657 340.612 46.7207 341.371 47.1758 341.067C47.3275 340.915 47.4792 340.915 47.6309 340.763C47.4792 340.46 47.3275 340.156 47.1758 340.004C47.0241 340.156 46.8724 340.156 46.7207 340.308C46.2657 340.612 46.7207 341.371 47.1758 341.067Z" fill="#6B007C"/>
<path d="M47.1764 341.067C47.1764 341.067 47.3281 341.067 47.1764 341.067C47.6315 340.612 47.1764 340.004 46.7213 340.308C46.2663 340.612 46.7213 341.371 47.1764 341.067C47.0247 340.763 46.873 340.612 46.5696 340.308C46.1146 340.46 46.5696 341.371 47.1764 341.067Z" fill="#6B007C"/>
<path d="M111.038 287.766C107.245 278.047 95.1101 317.681 74.7836 337.726C71.5981 340.915 70.5363 339.245 64.0136 340.004C58.2494 340.612 46.1142 337.878 46.1142 337.878C46.1142 337.878 43.6872 347.293 43.8389 351.09C44.1422 359.29 45.3558 367.49 47.6311 375.538C47.7828 376.146 47.9345 376.753 48.3896 377.057C48.9963 377.664 49.7548 377.664 50.5132 377.816C59.6146 378.727 68.716 378.272 77.6657 376.601C78.8793 373.261 79.0309 367.794 79.6377 364.301C79.6377 364.605 110.886 314.948 115.74 307.052C129.089 284.881 115.437 299.307 111.038 287.766Z" fill="#6B007C"/>
<path d="M3.79215 334.689C2.27525 330.285 2.27525 325.426 3.64046 321.022C4.5506 318.289 5.91581 315.707 8.34285 314.341C9.40468 313.733 10.7699 313.429 11.68 314.189C12.5902 314.796 12.8936 316.011 12.8936 317.074C13.3486 321.63 11.68 326.337 11.8317 330.893C9.25299 332.259 6.67426 333.626 3.94384 334.993" fill="#DE4E55"/>
<path d="M57.1877 302.496C53.3954 303.104 50.0583 306.141 48.8447 310.089C47.7829 314.037 48.8447 318.441 51.4235 321.478C52.9404 323.148 55.064 324.819 54.9123 327.097C54.7606 329.982 50.9684 331.804 51.4235 334.689C51.7268 337.575 55.8225 338.334 56.7326 341.067C58.0978 345.319 50.8167 348.66 51.8785 353.064C52.4853 355.494 55.5191 356.557 56.2775 358.834C57.036 361.416 54.9123 363.846 54.0022 366.579C52.7887 370.072 54.4573 374.324 57.4911 376.45C60.5249 378.576 64.4688 378.728 67.806 377.513C70.6881 376.45 73.2668 374.172 74.4804 371.287C75.6939 368.401 75.3905 364.605 73.2668 362.327C71.5982 360.505 69.0195 359.29 68.2611 356.86C67.0475 353.064 71.2949 349.419 70.6881 345.471C69.9297 341.067 63.407 338.486 64.6205 334.234C65.2273 331.956 67.9577 329.83 66.7442 328.008C66.2891 327.4 65.6823 327.097 65.0756 326.641C63.407 324.971 64.7722 322.085 65.5306 319.959C68.2611 312.67 65.6823 302.496 57.1877 302.496Z" fill="#FCB500"/>
</g>
<defs>
<clipPath id="clip0">
<rect width="184" height="622" fill="white"/>
</clipPath>
</defs>
</svg>
