<svg width="202" height="90" viewBox="0 0 202 90" fill="none" xmlns="http://www.w3.org/2000/svg">
<g clip-path="url(#clip0)">
<path d="M140.782 58.5001C140.782 59.7858 140.782 61.2858 140.355 62.5715L136.516 85.0715C136.089 87.8572 133.529 89.7858 130.97 89.7858C128.197 89.7858 126.49 88.0715 126.917 85.0715L130.543 64.5001C130.756 63.6429 130.756 62.7858 130.756 61.9286C130.756 58.2858 128.837 55.9286 124.144 55.9286C117.745 55.9286 114.545 59.3572 113.692 64.5001L110.066 85.2858C109.639 88.0715 107.08 90.0001 104.52 90.0001C101.747 90.0001 100.04 88.2858 100.467 85.2858L104.093 64.7144C104.307 63.8572 104.307 63.0001 104.307 62.1429C104.307 58.5001 102.387 56.1429 97.6941 56.1429C91.0817 56.1429 88.0954 60.0001 87.2422 65.3572L83.616 85.2858C83.1894 88.0715 80.843 90.0001 78.07 90.0001C75.2971 90.0001 73.5906 88.2858 74.0172 85.2858L79.7765 52.7144C80.2031 49.9286 82.7628 47.7858 85.5357 47.7858C87.8821 47.7858 89.5885 49.5001 89.5885 51.6429C89.5885 52.0715 89.5885 52.7144 89.5885 52.7144C91.7216 50.1429 95.9877 47.1429 101.96 47.1429C108.786 47.1429 111.772 49.2858 114.119 52.9287C117.532 49.0715 121.798 47.1429 127.77 47.1429C137.156 46.9286 140.782 52.2858 140.782 58.5001Z" fill="#FCB21C"/>
<path d="M167.018 78.6435C168.084 78.0006 168.724 77.5721 169.791 77.5721C172.137 77.5721 174.057 79.5006 174.057 81.8578C174.057 83.5721 173.417 84.4292 172.35 85.2863C170.644 86.7863 165.524 90.0006 156.779 90.0006C146.754 90.0006 140.354 84.6435 140.354 73.2863C140.354 57.8578 149.527 46.9292 163.605 46.9292C172.99 46.9292 178.323 51.8578 178.323 57.8578C178.323 64.2863 175.123 71.7863 149.953 71.7863C149.74 72.4292 149.74 73.7149 149.74 74.3578C149.74 79.2863 153.153 81.2149 158.059 81.2149C161.685 81.4292 164.671 80.1435 167.018 78.6435ZM150.806 64.7149C167.231 64.7149 168.511 60.4292 168.511 58.5006C168.511 57.0006 167.231 55.0721 162.752 55.0721C157.419 55.0721 152.939 58.2863 150.806 64.7149Z" fill="#FCB21C"/>
<path d="M186.428 40.7148C186.855 38.1433 189.415 36.0005 191.974 36.0005C194.534 36.0005 196.24 38.1433 195.814 40.7148L194.534 48.2148H198.587C200.506 48.2148 201.786 49.7148 201.786 51.6433C201.786 54.2148 199.653 56.3576 197.094 56.3576H193.041L189.415 77.1433C189.415 77.5719 189.201 78.2148 189.201 78.6434C189.201 80.3576 190.694 81.2148 192.188 81.2148C194.321 81.2148 195.6 82.9291 195.6 84.8576C195.6 87.4291 193.681 89.7862 190.054 89.7862C183.015 89.7862 179.603 85.9291 179.603 80.1434C179.603 79.2862 179.603 78.4291 179.816 77.5719L183.655 56.3576H181.522C179.603 56.3576 178.109 54.8576 178.109 52.9291C178.109 50.3576 180.456 48.2148 183.015 48.2148H185.148L186.428 40.7148Z" fill="#FCB21C"/>
<path d="M25.8099 87.8575L12.585 69.8575L9.81204 72.0003V84.8575C9.81204 87.6432 7.67899 89.5718 4.90602 89.5718C2.13305 89.5718 0 87.6432 0 85.0718V29.7861C0 27.0003 2.13305 25.0718 4.90602 25.0718C7.67899 25.0718 9.81204 27.0003 9.81204 29.7861V61.5003L26.0232 48.8575C27.0898 48.0003 28.1563 47.7861 29.2228 47.7861C31.7825 47.7861 33.9155 49.9289 33.9155 52.5003C33.9155 53.7861 33.2756 55.2861 32.2091 56.1432L20.4773 65.1432L33.4889 82.5003C34.1288 83.5718 34.5554 84.4289 34.5554 85.2861C34.5554 87.8575 32.4224 90.0003 29.8627 90.0003C27.7297 89.5718 26.6631 88.9289 25.8099 87.8575Z" fill="#662D91"/>
<path d="M44.7945 84.8574C44.7945 87.6431 42.6614 89.786 39.8884 89.786C37.1155 89.786 34.9824 87.6431 34.9824 84.8574V52.286C34.9824 49.5003 37.1155 47.3574 39.8884 47.3574C42.6614 47.3574 44.7945 49.5003 44.7945 52.286V84.8574Z" fill="#662D91"/>
<path d="M57.3784 58.7149C57.3784 65.3578 79.3488 62.3578 79.3488 77.1435C79.3488 85.5006 72.3098 89.7864 62.9243 89.7864C55.2454 89.7864 49.2728 86.3578 47.1398 83.5721C46.4999 82.7149 46.0732 81.8578 46.0732 80.7863C46.0732 78.4292 47.993 76.5006 50.3393 76.5006C51.1926 76.5006 52.0458 76.7149 53.1123 77.5721C55.4587 79.5006 58.4449 81.2149 62.9243 81.2149C66.9771 81.2149 69.5368 80.1435 69.5368 77.5721C69.5368 70.2863 47.7797 74.1435 47.7797 58.9292C47.7797 50.7863 54.3921 46.9292 62.711 46.9292C69.1102 46.9292 74.6561 49.2863 77.2158 52.5006C77.8557 53.1435 78.069 53.7863 78.069 55.2863C78.069 57.6435 76.1493 59.5721 73.8029 59.5721C72.5231 59.5721 71.6699 58.9292 70.8166 58.2863C68.8969 56.7863 66.5505 55.5006 62.711 55.5006C59.2982 55.5006 57.3784 56.5721 57.3784 58.7149Z" fill="#662D91"/>
<path d="M19.624 39.6425C19.624 40.7139 20.4772 41.7854 21.7571 41.7854C23.0369 41.7854 23.8901 40.9282 23.8901 39.6425C23.8901 32.7854 25.8099 20.9997 36.2618 20.9997C38.8215 20.9997 41.1678 21.8568 43.0876 23.1425C42.661 23.5711 46.7138 20.7854 46.7138 20.7854C44.1541 18.2139 39.888 16.9282 36.2618 16.9282C23.0369 16.9282 19.624 30.6425 19.624 39.6425Z" fill="#FCB21C"/>
<path d="M36.2616 15C40.3144 15 43.7273 11.5714 43.7273 7.5C43.7273 3.42857 40.3144 0 36.2616 0C32.2088 0 28.7959 3.42857 28.7959 7.5C28.7959 11.5714 32.2088 15 36.2616 15Z" fill="#FCB21C"/>
<path d="M56.0985 15C60.1513 15 63.5642 11.5714 63.5642 7.5C63.5642 3.42857 60.1513 0 56.0985 0C52.0457 0 48.6328 3.42857 48.6328 7.5C48.6328 11.5714 51.8324 15 56.0985 15Z" fill="#662D91"/>
<path d="M56.0987 16.9286C52.4725 16.7143 49.4863 18.2143 46.2867 20.1429C46.2867 20.1429 42.0206 23.1429 40.3142 28.2858C39.0343 32.1429 39.4609 34.5 39.8875 35.7858C40.5275 38.3572 42.6605 39.6429 45.0069 40.0715H45.2202H45.4335C45.6468 40.0715 45.8601 40.0715 46.0734 40.0715C46.2867 40.0715 46.5 40.0715 46.7133 40.0715H46.9266H47.1399C49.273 39.6429 51.6193 38.3572 52.2592 35.7858C53.5391 31.2858 51.1927 26.7858 50.9794 26.3572C50.7661 25.7143 49.273 23.5715 49.0597 23.1429C50.9794 21.8572 53.3258 21 55.8854 21C66.1241 21 68.2571 32.7858 68.2571 39.6429C68.2571 40.7143 69.1103 41.7858 70.3902 41.7858C71.67 41.7858 72.3099 40.9286 72.5232 39.6429C73.3764 31.2858 69.1103 17.3572 56.0987 16.9286Z" fill="#662D91"/>
<path d="M46.0738 25.9287C46.0738 25.9287 43.5141 29.5716 43.3008 33.0001C43.3008 36.2144 45.0072 36.643 46.0738 36.643C47.5669 36.643 48.6334 35.143 48.6334 33.2144C48.6334 31.2859 47.7802 27.643 46.0738 25.9287Z" fill="white"/>
</g>
<defs>
<clipPath id="clip0">
<rect width="202" height="90" fill="white"/>
</clipPath>
</defs>
</svg>
