<svg width="75" height="74" viewBox="0 0 75 74" fill="none" xmlns="http://www.w3.org/2000/svg">
<path d="M45.3125 31.8125H4.6875C3.82324 31.8125 3.125 32.5107 3.125 33.375V64.625C3.125 65.4893 3.82324 66.1875 4.6875 66.1875H45.3125C46.1768 66.1875 46.875 65.4893 46.875 64.625V33.375C46.875 32.5107 46.1768 31.8125 45.3125 31.8125ZM43.3594 37.2227V62.6719H6.64062V37.2227L5.29297 36.1729L7.21191 33.707L9.30176 35.333H40.7031L42.793 33.707L44.7119 36.1729L43.3594 37.2227ZM40.7031 35.3281L25 47.5352L9.29687 35.3281L7.20703 33.7021L5.28809 36.168L6.63574 37.2178L23.3154 50.1865C23.7951 50.5592 24.3852 50.7615 24.9927 50.7615C25.6001 50.7615 26.1902 50.5592 26.6699 50.1865L43.3594 37.2227L44.707 36.1729L42.7881 33.707L40.7031 35.3281Z" fill="#6B007C"/>
<ellipse cx="50" cy="24.5" rx="25" ry="24.5" fill="#6B007C"/>
<path d="M57.3913 31.336V33H44.6253V31.674L52.1913 24.264C53.1447 23.328 53.786 22.522 54.1153 21.846C54.462 21.1527 54.6353 20.4593 54.6353 19.766C54.6353 18.6913 54.2627 17.8593 53.5173 17.27C52.7893 16.6633 51.7407 16.36 50.3713 16.36C48.2393 16.36 46.584 17.036 45.4053 18.388L44.0793 17.244C44.79 16.412 45.6913 15.7707 46.7833 15.32C47.8927 14.8693 49.1407 14.644 50.5273 14.644C52.382 14.644 53.8467 15.086 54.9213 15.97C56.0133 16.8367 56.5593 18.0327 56.5593 19.558C56.5593 20.494 56.3513 21.3953 55.9353 22.262C55.5193 23.1287 54.7307 24.1253 53.5693 25.252L47.3813 31.336H57.3913Z" fill="white"/>
</svg>
